<?xml version="1.0" encoding="UTF-8"?>
<svg xmlns="http://www.w3.org/2000/svg" width="2000" height="1703" viewBox="0 0 2000 1703" role="img" aria-label="04_thermoregulation">
  <path d="M1059 382 L1058 383 L1057 383 L1056 383 L1055 384 L1054 384 L1053 385 L1052 385 L1051 386 L1050 387 L1049 387 L1048 388 L1047 389 L1046 390 L1046 391 L1045 392 L1044 393 L1044 394 L1043 395 L1043 396 L1042 397 L1042 398 L1042 399 L1041 400 L1041 401 L1041 402 L1041 403 L1041 404 L1041 405 L1040 406 L1040 407 L1040 408 L1040 409 L1040 410 L1040 411 L1040 412 L1040 413 L1040 414 L1040 415 L1040 416 L1040 417 L1040 418 L1040 419 L1040 420 L1040 421 L1040 422 L1040 423 L1040 424 L1040 425 L1040 426 L1040 427 L1040 428 L1040 429 L1040 430 L1040 431 L1040 432 L1040 433 L1040 434 L1040 435 L1040 436 L1040 437 L1040 438 L1040 439 L1040 440 L1040 441 L1040 442 L1040 443 L1040 444 L1040 445 L1040 446 L1040 447 L1040 448 L1040 449 L1040 450 L1040 451 L1040 452 L1040 453 L1040 454 L1040 455 L1040 456 L1040 457 L1040 458 L1040 459 L1040 460 L1040 461 L1040 462 L1040 463 L1040 464 L1040 465 L1040 466 L1040 467 L1040 468 L1040 469 L1040 470 L1040 471 L1040 472 L1040 473 L1040 474 L1040 475 L1040 476 L1040 477 L1040 478 L1040 479 L1040 480 L1040 481 L1040 482 L1040 483 L1040 484 L1040 485 L1040 486 L1040 487 L1040 488 L1040 489 L1040 490 L1040 491 L1040 492 L1040 493 L1040 494 L1040 495 L1040 496 L1040 497 L1040 498 L1040 499 L1040 500 L1040 501 L1040 502 L1040 503 L1040 504 L1040 505 L1040 506 L1040 507 L1040 508 L1040 509 L1040 510 L1040 511 L1040 512 L1040 513 L1040 514 L1040 515 L1040 516 L1040 517 L1040 518 L1039 519 L1040 520 L1039 521 L1039 522 L1039 523 L1039 524 L1040 525 L1039 526 L1040 527 L1039 528 L1040 529 L1040 530 L1040 531 L1040 532 L1040 533 L1040 534 L1040 535 L1040 536 L1040 537 L1040 538 L1040 539 L1040 540 L1040 541 L1040 542 L1040 543 L1040 544 L1040 545 L1040 546 L1040 547 L1040 548 L1040 549 L1040 550 L1040 551 L1040 552 L1040 553 L1040 554 L1040 555 L1040 556 L1040 557 L1040 558 L1040 559 L1040 560 L1040 561 L1040 562 L1040 563 L1040 564 L1040 565 L1040 566 L1040 567 L1040 568 L1040 569 L1040 570 L1040 571 L1040 572 L1040 573 L1040 574 L1040 575 L1040 576 L1040 577 L1040 578 L1040 579 L1040 580 L1040 581 L1040 582 L1040 583 L1040 584 L1040 585 L1040 586 L1040 587 L1040 588 L1040 589 L1040 590 L1040 591 L1040 592 L1040 593 L1040 594 L1040 595 L1040 596 L1040 597 L1040 598 L1040 599 L1040 600 L1040 601 L1040 602 L1040 603 L1040 604 L1040 605 L1040 606 L1040 607 L1040 608 L1040 609 L1040 610 L1040 611 L1040 612 L1040 613 L1040 614 L1040 615 L1040 616 L1040 617 L1040 618 L1040 619 L1040 620 L1040 621 L1040 622 L1040 623 L1040 624 L1040 625 L1040 626 L1040 627 L1040 628 L1040 629 L1040 630 L1040 631 L1040 632 L1040 633 L1040 634 L1040 635 L1040 636 L1040 637 L1040 638 L1040 639 L1040 640 L1040 641 L1040 642 L1040 643 L1040 644 L1040 645 L1040 646 L1040 647 L1040 648 L1040 649 L1040 650 L1040 651 L1040 652 L1040 653 L1040 654 L1040 655 L1040 656 L1040 657 L1040 658 L1040 659 L1040 660 L1040 661 L1040 662 L1040 663 L1040 664 L1040 665 L1040 666 L1040 667 L1040 668 L1040 669 L1040 670 L1040 671 L1040 672 L1040 673 L1040 674 L1040 675 L1040 676 L1040 677 L1040 678 L1040 679 L1040 680 L1040 681 L1040 682 L1040 683 L1040 684 L1040 685 L1040 686 L1040 687 L1040 688 L1040 689 L1040 690 L1040 691 L1040 692 L1040 693 L1040 694 L1040 695 L1040 696 L1040 697 L1040 698 L1040 699 L1040 700 L1040 701 L1040 702 L1040 703 L1040 704 L1040 705 L1040 706 L1040 707 L1040 708 L1040 709 L1040 710 L1040 711 L1040 712 L1040 713 L1040 714 L1040 715 L1040 716 L1040 717 L1040 718 L1040 719 L1040 720 L1040 721 L1040 722 L1040 723 L1040 724 L1040 725 L1040 726 L1040 727 L1040 728 L1040 729 L1040 730 L1040 731 L1040 732 L1040 733 L1040 734 L1040 735 L1040 736 L1040 737 L1040 738 L1040 739 L1040 740 L1040 741 L1040 742 L1040 743 L1040 744 L1040 745 L1040 746 L1040 747 L1040 748 L1040 749 L1040 750 L1040 751 L1040 752 L1040 753 L1040 754 L1040 755 L1040 756 L1040 757 L1040 758 L1040 759 L1040 760 L1040 761 L1040 762 L1040 763 L1040 764 L1040 765 L1040 766 L1040 767 L1040 768 L1040 769 L1040 770 L1040 771 L1040 772 L1040 773 L1040 774 L1040 775 L1040 776 L1040 777 L1040 778 L1040 779 L1040 780 L1040 781 L1040 782 L1040 783 L1040 784 L1040 785 L1040 786 L1040 787 L1040 788 L1040 789 L1040 790 L1040 791 L1040 792 L1040 793 L1040 794 L1040 795 L1040 796 L1040 797 L1040 798 L1040 799 L1040 800 L1040 801 L1040 802 L1040 803 L1040 804 L1040 805 L1040 806 L1040 807 L1040 808 L1040 809 L1040 810 L1040 811 L1040 812 L1040 813 L1040 814 L1040 815 L1040 816 L1040 817 L1040 818 L1040 819 L1040 820 L1040 821 L1040 822 L1040 823 L1040 824 L1040 825 L1040 826 L1040 827 L1040 828 L1040 829 L1040 830 L1040 831 L1040 832 L1040 833 L1040 834 L1040 835 L1040 836 L1040 837 L1040 838 L1040 839 L1040 840 L1040 841 L1040 842 L1040 843 L1040 844 L1040 845 L1040 846 L1040 847 L1040 848 L1040 849 L1040 850 L1040 851 L1040 852 L1040 853 L1040 854 L1040 855 L1040 856 L1040 857 L1040 858 L1040 859 L1040 860 L1040 861 L1040 862 L1040 863 L1040 864 L1040 865 L1040 866 L1040 867 L1040 868 L1040 869 L1040 870 L1040 871 L1040 872 L1040 873 L1040 874 L1040 875 L1040 876 L1040 877 L1040 878 L1040 879 L1040 880 L1040 881 L1040 882 L1040 883 L1040 884 L1040 885 L1040 886 L1040 887 L1040 888 L1040 889 L1040 890 L1040 891 L1040 892 L1040 893 L1040 894 L1040 895 L1040 896 L1040 897 L1040 898 L1040 899 L1040 900 L1040 901 L1040 902 L1040 903 L1040 904 L1040 905 L1040 906 L1040 907 L1040 908 L1040 909 L1040 910 L1040 911 L1040 912 L1040 913 L1040 914 L1040 915 L1040 916 L1040 917 L1040 918 L1040 919 L1040 920 L1040 921 L1040 922 L1040 923 L1040 924 L1040 925 L1040 926 L1040 927 L1040 928 L1040 929 L1040 930 L1040 931 L1040 932 L1040 933 L1040 934 L1040 935 L1040 936 L1040 937 L1040 938 L1040 939 L1040 940 L1040 941 L1040 942 L1040 943 L1040 944 L1040 945 L1040 946 L1040 947 L1040 948 L1040 949 L1040 950 L1040 951 L1040 952 L1040 953 L1040 954 L1040 955 L1040 956 L1040 957 L1040 958 L1040 959 L1040 960 L1040 961 L1040 962 L1040 963 L1040 964 L1040 965 L1040 966 L1040 967 L1040 968 L1040 969 L1040 970 L1040 971 L1040 972 L1040 973 L1040 974 L1040 975 L1040 976 L1040 977 L1040 978 L1040 979 L1040 980 L1040 981 L1040 982 L1040 983 L1040 984 L1040 985 L1040 986 L1040 987 L1040 988 L1040 989 L1040 990 L1040 991 L1040 992 L1040 993 L1040 994 L1040 995 L1040 996 L1040 997 L1040 998 L1040 999 L1040 1000 L1040 1001 L1040 1002 L1040 1003 L1040 1004 L1040 1005 L1040 1006 L1040 1007 L1040 1008 L1040 1009 L1040 1010 L1040 1011 L1040 1012 L1040 1013 L1040 1014 L1040 1015 L1040 1016 L1040 1017 L1040 1018 L1040 1019 L1040 1020 L1040 1021 L1040 1022 L1040 1023 L1040 1024 L1040 1025 L1040 1026 L1040 1027 L1040 1028 L1040 1029 L1040 1030 L1040 1031 L1040 1032 L1040 1033 L1040 1034 L1040 1035 L1040 1036 L1040 1037 L1040 1038 L1040 1039 L1040 1040 L1040 1041 L1040 1042 L1040 1043 L1040 1044 L1040 1045 L1040 1046 L1040 1047 L1040 1048 L1040 1049 L1040 1050 L1040 1051 L1040 1052 L1040 1053 L1040 1054 L1040 1055 L1040 1056 L1040 1057 L1040 1058 L1040 1059 L1040 1060 L1040 1061 L1040 1062 L1040 1063 L1040 1064 L1040 1065 L1040 1066 L1040 1067 L1040 1068 L1040 1069 L1040 1070 L1040 1071 L1040 1072 L1040 1073 L1040 1074 L1040 1075 L1040 1076 L1040 1077 L1040 1078 L1040 1079 L1040 1080 L1040 1081 L1040 1082 L1040 1083 L1040 1084 L1040 1085 L1040 1086 L1040 1087 L1040 1088 L1040 1089 L1040 1090 L1040 1091 L1040 1092 L1040 1093 L1040 1094 L1040 1095 L1040 1096 L1040 1097 L1040 1098 L1040 1099 L1040 1100 L1040 1101 L1040 1102 L1040 1103 L1040 1104 L1040 1105 L1040 1106 L1040 1107 L1040 1108 L1040 1109 L1040 1110 L1040 1111 L1040 1112 L1040 1113 L1040 1114 L1040 1115 L1040 1116 L1040 1117 L1040 1118 L1040 1119 L1040 1120 L1040 1121 L1040 1122 L1040 1123 L1040 1124 L1040 1125 L1040 1126 L1040 1127 L1040 1128 L1040 1129 L1040 1130 L1040 1131 L1040 1132 L1040 1133 L1040 1134 L1040 1135 L1040 1136 L1040 1137 L1040 1138 L1040 1139 L1040 1140 L1040 1141 L1040 1142 L1040 1143 L1040 1144 L1040 1145 L1040 1146 L1040 1147 L1040 1148 L1040 1149 L1040 1150 L1040 1151 L1040 1152 L1040 1153 L1040 1154 L1040 1155 L1040 1156 L1040 1157 L1040 1158 L1040 1159 L1040 1160 L1040 1161 L1040 1162 L1040 1163 L1040 1164 L1040 1165 L1040 1166 L1040 1167 L1040 1168 L1040 1169 L1040 1170 L1040 1171 L1040 1172 L1040 1173 L1040 1174 L1040 1175 L1040 1176 L1040 1177 L1040 1178 L1040 1179 L1040 1180 L1040 1181 L1040 1182 L1040 1183 L1040 1184 L1040 1185 L1040 1186 L1040 1187 L1040 1188 L1040 1189 L1040 1190 L1040 1191 L1040 1192 L1040 1193 L1040 1194 L1040 1195 L1040 1196 L1040 1197 L1040 1198 L1040 1199 L1040 1200 L1040 1201 L1040 1202 L1040 1203 L1040 1204 L1040 1205 L1040 1206 L1040 1207 L1040 1208 L1040 1209 L1040 1210 L1040 1211 L1040 1212 L1040 1213 L1040 1214 L1040 1215 L1040 1216 L1040 1217 L1040 1218 L1040 1219 L1040 1220 L1040 1221 L1040 1222 L1040 1223 L1040 1224 L1040 1225 L1040 1226 L1040 1227 L1040 1228 L1040 1229 L1040 1230 L1040 1231 L1040 1232 L1040 1233 L1040 1234 L1040 1235 L1040 1236 L1040 1237 L1040 1238 L1040 1239 L1040 1240 L1040 1241 L1040 1242 L1040 1243 L1040 1244 L1040 1245 L1040 1246 L1040 1247 L1040 1248 L1040 1249 L1040 1250 L1040 1251 L1040 1252 L1040 1253 L1040 1254 L1040 1255 L1040 1256 L1040 1257 L1040 1258 L1040 1259 L1040 1260 L1040 1261 L1040 1262 L1040 1263 L1040 1264 L1040 1265 L1040 1266 L1040 1267 L1040 1268 L1040 1269 L1040 1270 L1040 1271 L1040 1272 L1040 1273 L1040 1274 L1040 1275 L1040 1276 L1040 1277 L1040 1278 L1040 1279 L1040 1280 L1040 1281 L1040 1282 L1040 1283 L1040 1284 L1040 1285 L1040 1286 L1040 1287 L1040 1288 L1040 1289 L1040 1290 L1040 1291 L1040 1292 L1040 1293 L1040 1294 L1040 1295 L1040 1296 L1040 1297 L1040 1298 L1040 1299 L1041 1300 L1041 1301 L1042 1302 L1042 1303 L1042 1304 L1043 1305 L1043 1306 L1043 1307 L1044 1308 L1044 1309 L1045 1310 L1045 1311 L1046 1312 L1047 1313 L1047 1314 L1048 1315 L1049 1316 L1050 1317 L1051 1318 L1052 1319 L1053 1320 L1054 1320 L1055 1321 L1056 1322 L1057 1322 L1058 1323 L1059 1323 L1060 1323 L1061 1324 L1062 1324 L1063 1324 L1064 1324 L1065 1323 L1066 1323 L1067 1323 L1068 1322 L1069 1322 L1070 1321 L1071 1321 L1072 1320 L1073 1319 L1074 1318 L1075 1317 L1076 1316 L1076 1315 L1077 1314 L1077 1313 L1078 1312 L1078 1311 L1078 1310 L1079 1309 L1079 1308 L1079 1307 L1080 1306 L1080 1305 L1080 1304 L1080 1303 L1080 1302 L1080 1301 L1081 1300 L1081 1299 L1081 1298 L1081 1297 L1081 1296 L1081 1295 L1081 1294 L1081 1293 L1081 1292 L1081 1291 L1081 1290 L1081 1289 L1081 1288 L1081 1287 L1081 1286 L1081 1285 L1081 1284 L1081 1283 L1081 1282 L1081 1281 L1081 1280 L1081 1279 L1081 1278 L1081 1277 L1081 1276 L1081 1275 L1081 1274 L1081 1273 L1081 1272 L1081 1271 L1081 1270 L1081 1269 L1081 1268 L1081 1267 L1081 1266 L1081 1265 L1081 1264 L1081 1263 L1081 1262 L1081 1261 L1081 1260 L1081 1259 L1081 1258 L1081 1257 L1081 1256 L1081 1255 L1081 1254 L1081 1253 L1081 1252 L1081 1251 L1081 1250 L1081 1249 L1081 1248 L1081 1247 L1081 1246 L1081 1245 L1081 1244 L1081 1243 L1081 1242 L1082 1241 L1082 1240 L1082 1239 L1082 1238 L1082 1237 L1082 1236 L1082 1235 L1082 1234 L1082 1233 L1082 1232 L1082 1231 L1082 1230 L1082 1229 L1082 1228 L1082 1227 L1082 1226 L1082 1225 L1082 1224 L1082 1223 L1082 1222 L1082 1221 L1082 1220 L1082 1219 L1082 1218 L1082 1217 L1082 1216 L1082 1215 L1082 1214 L1082 1213 L1082 1212 L1082 1211 L1082 1210 L1083 1209 L1083 1208 L1083 1207 L1083 1206 L1084 1205 L1084 1204 L1085 1203 L1085 1202 L1086 1201 L1087 1200 L1088 1199 L1089 1198 L1090 1197 L1091 1197 L1092 1196 L1093 1196 L1094 1196 L1095 1196 L1096 1196 L1097 1196 L1098 1197 L1099 1197 L1100 1198 L1101 1199 L1102 1199 L1103 1200 L1104 1201 L1105 1202 L1106 1203 L1107 1204 L1108 1205 L1109 1205 L1110 1206 L1111 1207 L1112 1208 L1113 1209 L1114 1209 L1115 1210 L1116 1211 L1117 1212 L1118 1212 L1119 1213 L1120 1214 L1121 1214 L1122 1215 L1123 1216 L1124 1217 L1125 1217 L1126 1218 L1127 1219 L1128 1220 L1129 1221 L1130 1222 L1131 1223 L1132 1224 L1133 1225 L1134 1226 L1135 1227 L1136 1228 L1137 1229 L1137 1230 L1138 1231 L1139 1232 L1140 1233 L1141 1234 L1142 1235 L1143 1236 L1144 1237 L1145 1238 L1146 1239 L1147 1239 L1148 1240 L1149 1241 L1150 1241 L1151 1242 L1152 1242 L1153 1243 L1154 1243 L1155 1244 L1156 1244 L1157 1245 L1158 1245 L1159 1245 L1160 1246 L1161 1246 L1162 1246 L1163 1246 L1164 1246 L1165 1246 L1166 1246 L1167 1246 L1168 1246 L1169 1246 L1170 1246 L1171 1246 L1172 1246 L1173 1246 L1174 1245 L1175 1245 L1176 1244 L1177 1243 L1178 1243 L1178 1242 L1179 1241 L1180 1240 L1180 1239 L1181 1238 L1182 1237 L1182 1236 L1182 1235 L1183 1234 L1183 1233 L1183 1232 L1184 1231 L1184 1230 L1184 1229 L1184 1228 L1184 1227 L1183 1226 L1183 1225 L1183 1224 L1183 1223 L1183 1222 L1182 1221 L1182 1220 L1181 1219 L1181 1218 L1180 1217 L1180 1216 L1179 1215 L1179 1214 L1178 1213 L1177 1212 L1177 1211 L1176 1210 L1175 1209 L1175 1208 L1174 1207 L1173 1206 L1172 1205 L1172 1204 L1171 1203 L1170 1202 L1169 1201 L1169 1200 L1168 1199 L1167 1198 L1167 1197 L1166 1196 L1165 1195 L1164 1194 L1163 1193 L1163 1192 L1162 1191 L1161 1190 L1160 1189 L1159 1188 L1158 1187 L1158 1186 L1157 1185 L1156 1184 L1155 1183 L1154 1182 L1153 1181 L1152 1180 L1151 1179 L1151 1178 L1150 1177 L1149 1176 L1148 1175 L1147 1174 L1146 1173 L1145 1172 L1144 1171 L1143 1170 L1142 1169 L1141 1168 L1140 1167 L1140 1166 L1139 1165 L1138 1164 L1137 1163 L1136 1162 L1135 1161 L1134 1160 L1133 1159 L1132 1158 L1131 1157 L1130 1156 L1129 1155 L1128 1154 L1127 1153 L1126 1152 L1125 1151 L1124 1150 L1123 1149 L1122 1148 L1121 1147 L1120 1146 L1119 1145 L1118 1144 L1117 1143 L1117 1142 L1116 1141 L1115 1140 L1114 1139 L1113 1138 L1112 1137 L1111 1136 L1110 1135 L1109 1134 L1108 1133 L1107 1132 L1107 1131 L1106 1130 L1105 1129 L1104 1128 L1103 1127 L1102 1126 L1101 1125 L1100 1124 L1100 1123 L1099 1122 L1098 1121 L1097 1120 L1096 1119 L1096 1118 L1095 1117 L1094 1116 L1093 1115 L1092 1114 L1092 1113 L1091 1112 L1090 1111 L1090 1110 L1089 1109 L1089 1108 L1088 1107 L1088 1106 L1087 1105 L1087 1104 L1086 1103 L1086 1102 L1086 1101 L1085 1100 L1085 1099 L1084 1098 L1084 1097 L1084 1096 L1084 1095 L1083 1094 L1083 1093 L1083 1092 L1083 1091 L1083 1090 L1083 1089 L1083 1088 L1083 1087 L1082 1086 L1082 1085 L1082 1084 L1082 1083 L1082 1082 L1082 1081 L1082 1080 L1082 1079 L1082 1078 L1082 1077 L1082 1076 L1082 1075 L1082 1074 L1082 1073 L1082 1072 L1082 1071 L1082 1070 L1082 1069 L1082 1068 L1081 1067 L1081 1066 L1081 1065 L1081 1064 L1081 1063 L1081 1062 L1081 1061 L1081 1060 L1081 1059 L1081 1058 L1081 1057 L1081 1056 L1081 1055 L1081 1054 L1081 1053 L1081 1052 L1081 1051 L1081 1050 L1081 1049 L1081 1048 L1081 1047 L1081 1046 L1081 1045 L1081 1044 L1081 1043 L1081 1042 L1081 1041 L1081 1040 L1081 1039 L1081 1038 L1081 1037 L1081 1036 L1081 1035 L1081 1034 L1081 1033 L1081 1032 L1081 1031 L1081 1030 L1081 1029 L1081 1028 L1081 1027 L1081 1026 L1081 1025 L1081 1024 L1081 1023 L1081 1022 L1081 1021 L1081 1020 L1081 1019 L1081 1018 L1081 1017 L1081 1016 L1081 1015 L1081 1014 L1081 1013 L1081 1012 L1081 1011 L1081 1010 L1081 1009 L1081 1008 L1081 1007 L1081 1006 L1081 1005 L1081 1004 L1081 1003 L1081 1002 L1081 1001 L1081 1000 L1081 999 L1081 998 L1081 997 L1081 996 L1081 995 L1081 994 L1081 993 L1081 992 L1081 991 L1081 990 L1081 989 L1081 988 L1081 987 L1081 986 L1081 985 L1081 984 L1081 983 L1081 982 L1081 981 L1081 980 L1081 979 L1081 978 L1081 977 L1081 976 L1081 975 L1081 974 L1081 973 L1081 972 L1081 971 L1081 970 L1081 969 L1081 968 L1081 967 L1081 966 L1081 965 L1081 964 L1081 963 L1081 962 L1081 961 L1081 960 L1081 959 L1081 958 L1081 957 L1081 956 L1081 955 L1081 954 L1081 953 L1081 952 L1081 951 L1081 950 L1081 949 L1081 948 L1081 947 L1081 946 L1081 945 L1082 944 L1082 943 L1082 942 L1082 941 L1082 940 L1082 939 L1082 938 L1082 937 L1082 936 L1082 935 L1082 934 L1082 933 L1082 932 L1083 931 L1083 930 L1083 929 L1083 928 L1083 927 L1084 926 L1084 925 L1084 924 L1085 923 L1085 922 L1086 921 L1086 920 L1087 919 L1088 918 L1088 917 L1089 916 L1090 915 L1091 914 L1092 913 L1093 913 L1094 912 L1095 912 L1096 911 L1097 911 L1098 911 L1099 911 L1100 912 L1101 912 L1102 912 L1103 912 L1104 913 L1105 913 L1106 913 L1107 914 L1108 914 L1109 914 L1110 915 L1111 915 L1112 916 L1113 916 L1114 916 L1115 917 L1116 917 L1117 917 L1118 918 L1119 918 L1120 919 L1121 919 L1122 919 L1123 920 L1124 920 L1125 921 L1126 921 L1127 922 L1128 922 L1129 923 L1130 923 L1131 924 L1132 924 L1133 925 L1134 926 L1135 926 L1136 927 L1137 928 L1138 928 L1139 929 L1140 930 L1141 931 L1142 932 L1143 933 L1144 933 L1145 934 L1146 935 L1147 936 L1148 936 L1149 937 L1150 938 L1151 939 L1152 939 L1153 940 L1154 941 L1155 942 L1156 942 L1157 943 L1158 944 L1159 945 L1160 945 L1161 946 L1162 946 L1163 947 L1164 948 L1165 948 L1166 949 L1167 950 L1168 950 L1169 951 L1170 952 L1171 952 L1172 953 L1173 954 L1174 954 L1175 955 L1176 956 L1177 956 L1178 957 L1179 958 L1180 959 L1181 959 L1182 960 L1183 961 L1184 962 L1185 962 L1186 963 L1187 964 L1188 965 L1189 965 L1190 966 L1191 967 L1192 968 L1193 968 L1194 969 L1195 970 L1196 971 L1197 971 L1198 972 L1199 972 L1200 973 L1201 974 L1202 974 L1203 975 L1204 976 L1205 976 L1206 977 L1207 978 L1208 978 L1209 979 L1210 980 L1211 980 L1212 981 L1213 981 L1214 982 L1215 983 L1216 984 L1217 984 L1218 985 L1219 986 L1220 986 L1221 987 L1222 988 L1223 989 L1224 990 L1225 990 L1226 991 L1227 992 L1228 993 L1229 994 L1230 995 L1231 996 L1232 997 L1233 998 L1234 999 L1235 1000 L1236 1001 L1237 1002 L1238 1003 L1239 1004 L1239 1005 L1240 1006 L1241 1007 L1241 1008 L1242 1009 L1242 1010 L1243 1011 L1243 1012 L1244 1013 L1244 1014 L1245 1015 L1245 1016 L1246 1017 L1246 1018 L1247 1019 L1247 1020 L1248 1021 L1248 1022 L1249 1023 L1249 1024 L1250 1025 L1250 1026 L1251 1027 L1251 1028 L1252 1029 L1252 1030 L1253 1031 L1253 1032 L1254 1033 L1254 1034 L1255 1035 L1255 1036 L1256 1037 L1256 1038 L1257 1039 L1257 1040 L1257 1041 L1258 1042 L1258 1043 L1259 1044 L1259 1045 L1260 1046 L1260 1047 L1260 1048 L1261 1049 L1261 1050 L1261 1051 L1262 1052 L1262 1053 L1262 1054 L1263 1055 L1263 1056 L1263 1057 L1264 1058 L1264 1059 L1264 1060 L1264 1061 L1264 1062 L1265 1063 L1265 1064 L1265 1065 L1265 1066 L1265 1067 L1265 1068 L1266 1069 L1266 1070 L1266 1071 L1266 1072 L1266 1073 L1266 1074 L1267 1075 L1267 1076 L1267 1077 L1267 1078 L1267 1079 L1267 1080 L1267 1081 L1268 1082 L1268 1083 L1268 1084 L1268 1085 L1268 1086 L1268 1087 L1268 1088 L1269 1089 L1269 1090 L1269 1091 L1269 1092 L1269 1093 L1269 1094 L1269 1095 L1269 1096 L1270 1097 L1270 1098 L1270 1099 L1270 1100 L1270 1101 L1270 1102 L1271 1103 L1271 1104 L1271 1105 L1271 1106 L1271 1107 L1271 1108 L1272 1109 L1272 1110 L1272 1111 L1272 1112 L1272 1113 L1273 1114 L1273 1115 L1273 1116 L1273 1117 L1274 1118 L1274 1119 L1274 1120 L1274 1121 L1275 1122 L1275 1123 L1275 1124 L1275 1125 L1276 1126 L1276 1127 L1276 1128 L1277 1129 L1277 1130 L1277 1131 L1278 1132 L1278 1133 L1279 1134 L1279 1135 L1279 1136 L1280 1137 L1280 1138 L1280 1139 L1281 1140 L1281 1141 L1282 1142 L1282 1143 L1283 1144 L1284 1145 L1285 1146 L1286 1147 L1287 1148 L1288 1149 L1288 1150 L1289 1151 L1290 1152 L1291 1153 L1292 1153 L1293 1154 L1294 1155 L1295 1156 L1296 1157 L1297 1158 L1298 1158 L1299 1159 L1300 1159 L1301 1160 L1302 1160 L1303 1160 L1304 1160 L1305 1161 L1306 1161 L1307 1161 L1308 1161 L1309 1160 L1310 1160 L1311 1160 L1312 1159 L1313 1158 L1314 1157 L1315 1157 L1316 1156 L1316 1155 L1317 1154 L1318 1153 L1318 1152 L1319 1151 L1319 1150 L1320 1149 L1320 1148 L1320 1147 L1321 1146 L1321 1145 L1321 1144 L1321 1143 L1322 1142 L1322 1141 L1322 1140 L1322 1139 L1322 1138 L1322 1137 L1322 1136 L1322 1135 L1322 1134 L1321 1133 L1321 1132 L1321 1131 L1321 1130 L1321 1129 L1321 1128 L1321 1127 L1321 1126 L1321 1125 L1321 1124 L1320 1123 L1320 1122 L1320 1121 L1320 1120 L1320 1119 L1320 1118 L1319 1117 L1319 1116 L1319 1115 L1319 1114 L1319 1113 L1319 1112 L1318 1111 L1318 1110 L1318 1109 L1318 1108 L1318 1107 L1318 1106 L1317 1105 L1317 1104 L1317 1103 L1317 1102 L1317 1101 L1316 1100 L1316 1099 L1316 1098 L1316 1097 L1316 1096 L1316 1095 L1315 1094 L1315 1093 L1315 1092 L1315 1091 L1315 1090 L1314 1089 L1314 1088 L1314 1087 L1314 1086 L1314 1085 L1314 1084 L1314 1083 L1313 1082 L1313 1081 L1313 1080 L1313 1079 L1313 1078 L1313 1077 L1313 1076 L1313 1075 L1313 1074 L1313 1073 L1314 1072 L1314 1071 L1314 1070 L1315 1069 L1315 1068 L1316 1067 L1316 1066 L1317 1065 L1318 1064 L1319 1064 L1320 1063 L1321 1062 L1322 1062 L1323 1062 L1324 1061 L1325 1061 L1326 1061 L1327 1061 L1328 1061 L1329 1060 L1330 1060 L1331 1060 L1332 1060 L1333 1060 L1334 1060 L1335 1061 L1336 1061 L1337 1061 L1338 1062 L1339 1062 L1340 1062 L1341 1063 L1342 1064 L1343 1064 L1344 1065 L1345 1066 L1346 1066 L1347 1067 L1348 1068 L1349 1068 L1350 1069 L1351 1070 L1352 1070 L1353 1071 L1354 1072 L1355 1072 L1356 1073 L1357 1074 L1358 1074 L1359 1075 L1360 1076 L1361 1076 L1362 1077 L1363 1077 L1364 1078 L1365 1078 L1366 1079 L1367 1080 L1368 1080 L1369 1081 L1370 1081 L1371 1082 L1372 1083 L1373 1083 L1374 1084 L1375 1084 L1376 1085 L1377 1085 L1378 1086 L1379 1087 L1380 1087 L1381 1088 L1382 1089 L1383 1090 L1384 1090 L1385 1091 L1386 1091 L1387 1092 L1388 1093 L1389 1093 L1390 1094 L1391 1095 L1392 1095 L1393 1096 L1394 1097 L1395 1097 L1396 1098 L1397 1099 L1398 1099 L1399 1100 L1400 1100 L1401 1101 L1402 1101 L1403 1102 L1404 1102 L1405 1102 L1406 1103 L1407 1103 L1408 1103 L1409 1104 L1410 1104 L1411 1104 L1412 1104 L1413 1104 L1414 1105 L1415 1105 L1416 1105 L1417 1105 L1418 1105 L1419 1105 L1420 1104 L1421 1104 L1422 1104 L1423 1103 L1424 1103 L1425 1102 L1426 1102 L1427 1101 L1428 1101 L1429 1100 L1430 1100 L1431 1099 L1432 1098 L1432 1097 L1433 1096 L1434 1095 L1434 1094 L1435 1093 L1435 1092 L1435 1091 L1435 1090 L1436 1089 L1436 1088 L1436 1087 L1436 1086 L1436 1085 L1436 1084 L1436 1083 L1436 1082 L1435 1081 L1435 1080 L1435 1079 L1435 1078 L1434 1077 L1434 1076 L1434 1075 L1433 1074 L1433 1073 L1433 1072 L1432 1071 L1431 1070 L1431 1069 L1430 1068 L1429 1067 L1429 1066 L1428 1065 L1427 1064 L1426 1063 L1425 1063 L1424 1062 L1423 1061 L1422 1060 L1421 1060 L1420 1059 L1419 1058 L1418 1058 L1417 1057 L1416 1056 L1415 1056 L1414 1055 L1413 1055 L1412 1054 L1411 1054 L1410 1053 L1409 1052 L1408 1052 L1407 1051 L1406 1050 L1405 1050 L1404 1049 L1403 1048 L1402 1048 L1401 1047 L1400 1046 L1399 1046 L1398 1045 L1397 1044 L1396 1044 L1395 1043 L1394 1042 L1393 1041 L1392 1041 L1391 1040 L1390 1039 L1389 1038 L1388 1038 L1387 1037 L1386 1036 L1385 1035 L1384 1035 L1383 1034 L1382 1033 L1381 1033 L1380 1032 L1379 1031 L1378 1031 L1377 1030 L1376 1030 L1375 1029 L1374 1028 L1373 1028 L1372 1027 L1371 1027 L1370 1026 L1369 1026 L1368 1025 L1367 1025 L1366 1024 L1365 1024 L1364 1023 L1363 1022 L1362 1022 L1361 1021 L1360 1020 L1359 1020 L1358 1019 L1357 1018 L1356 1017 L1355 1016 L1354 1015 L1353 1014 L1352 1013 L1352 1012 L1351 1011 L1351 1010 L1350 1009 L1350 1008 L1350 1007 L1349 1006 L1349 1005 L1349 1004 L1349 1003 L1349 1002 L1349 1001 L1349 1000 L1349 999 L1350 998 L1350 997 L1350 996 L1351 995 L1351 994 L1352 993 L1352 992 L1353 991 L1354 990 L1355 989 L1355 988 L1356 987 L1357 986 L1358 986 L1359 985 L1360 984 L1361 983 L1362 983 L1363 982 L1364 982 L1365 981 L1366 981 L1367 980 L1368 980 L1369 979 L1370 979 L1371 979 L1372 978 L1373 978 L1374 977 L1375 977 L1376 977 L1377 976 L1378 976 L1379 976 L1380 976 L1381 975 L1382 975 L1383 975 L1384 974 L1385 974 L1386 974 L1387 974 L1388 973 L1389 973 L1390 973 L1391 973 L1392 972 L1393 972 L1394 972 L1395 971 L1396 971 L1397 971 L1398 970 L1399 970 L1400 970 L1401 970 L1402 969 L1403 969 L1404 969 L1405 968 L1406 968 L1407 968 L1408 967 L1409 967 L1410 967 L1411 966 L1412 966 L1413 966 L1414 965 L1415 965 L1416 964 L1417 963 L1418 963 L1419 962 L1420 961 L1421 960 L1422 959 L1423 958 L1424 957 L1424 956 L1425 955 L1425 954 L1426 953 L1426 952 L1427 951 L1427 950 L1427 949 L1428 948 L1428 947 L1428 946 L1428 945 L1428 944 L1429 943 L1429 942 L1429 941 L1429 940 L1429 939 L1428 938 L1428 937 L1428 936 L1428 935 L1427 934 L1427 933 L1427 932 L1426 931 L1425 930 L1425 929 L1424 928 L1423 927 L1422 926 L1421 926 L1420 925 L1419 925 L1418 924 L1417 924 L1416 923 L1415 923 L1414 923 L1413 923 L1412 923 L1411 922 L1410 922 L1409 922 L1408 922 L1407 922 L1406 922 L1405 922 L1404 922 L1403 922 L1402 922 L1401 922 L1400 922 L1399 922 L1398 922 L1397 922 L1396 923 L1395 923 L1394 923 L1393 923 L1392 923 L1391 923 L1390 924 L1389 924 L1388 924 L1387 924 L1386 925 L1385 925 L1384 925 L1383 926 L1382 926 L1381 927 L1380 927 L1379 928 L1378 928 L1377 929 L1376 929 L1375 930 L1374 930 L1373 931 L1372 932 L1371 932 L1370 933 L1369 933 L1368 934 L1367 934 L1366 934 L1365 935 L1364 936 L1363 936 L1362 936 L1361 937 L1360 937 L1359 937 L1358 938 L1357 938 L1356 938 L1355 939 L1354 939 L1353 940 L1352 940 L1351 940 L1350 940 L1349 941 L1348 941 L1347 941 L1346 941 L1345 942 L1344 942 L1343 942 L1342 942 L1341 942 L1340 943 L1339 943 L1338 943 L1337 943 L1336 944 L1335 944 L1334 944 L1333 944 L1332 944 L1331 945 L1330 945 L1329 945 L1328 945 L1327 946 L1326 946 L1325 946 L1324 946 L1323 946 L1322 947 L1321 947 L1320 947 L1319 947 L1318 948 L1317 948 L1316 948 L1315 948 L1314 949 L1313 949 L1312 949 L1311 949 L1310 950 L1309 950 L1308 950 L1307 951 L1306 951 L1305 951 L1304 952 L1303 952 L1302 952 L1301 953 L1300 953 L1299 953 L1298 954 L1297 954 L1296 954 L1295 955 L1294 955 L1293 955 L1292 955 L1291 956 L1290 956 L1289 956 L1288 957 L1287 957 L1286 957 L1285 957 L1284 957 L1283 957 L1282 957 L1281 957 L1280 957 L1279 957 L1278 957 L1277 957 L1276 957 L1275 957 L1274 957 L1273 957 L1272 957 L1271 956 L1270 956 L1269 956 L1268 956 L1267 955 L1266 955 L1265 955 L1264 955 L1263 954 L1262 954 L1261 953 L1260 953 L1259 953 L1258 952 L1257 952 L1256 951 L1255 951 L1254 950 L1253 950 L1252 950 L1251 949 L1250 949 L1249 948 L1248 948 L1247 947 L1246 947 L1245 946 L1244 946 L1243 945 L1242 945 L1241 944 L1240 944 L1239 943 L1238 943 L1237 942 L1236 942 L1235 941 L1234 941 L1233 940 L1232 940 L1231 939 L1230 938 L1229 938 L1228 937 L1227 937 L1226 936 L1225 935 L1224 935 L1223 934 L1222 933 L1221 932 L1220 932 L1219 931 L1218 930 L1217 929 L1216 928 L1215 928 L1214 927 L1213 926 L1212 925 L1211 924 L1210 924 L1209 923 L1208 922 L1207 921 L1206 921 L1205 920 L1204 920 L1203 919 L1202 918 L1201 918 L1200 917 L1199 916 L1198 916 L1197 915 L1196 914 L1195 914 L1194 913 L1193 913 L1192 912 L1191 911 L1190 911 L1189 910 L1188 909 L1187 908 L1186 908 L1185 907 L1184 906 L1183 906 L1182 905 L1181 904 L1180 903 L1179 903 L1178 902 L1177 901 L1176 901 L1175 900 L1174 900 L1173 899 L1172 898 L1171 898 L1170 897 L1169 896 L1168 896 L1167 895 L1166 895 L1165 894 L1164 893 L1163 893 L1162 892 L1161 892 L1160 891 L1159 890 L1158 890 L1157 889 L1156 889 L1155 888 L1154 887 L1153 887 L1152 886 L1151 886 L1150 885 L1149 884 L1148 884 L1147 883 L1146 882 L1145 881 L1144 881 L1143 880 L1142 879 L1141 878 L1140 877 L1139 876 L1138 875 L1137 874 L1136 873 L1135 872 L1134 871 L1133 870 L1132 869 L1131 868 L1131 867 L1130 866 L1129 865 L1128 864 L1128 863 L1127 862 L1127 861 L1126 860 L1126 859 L1125 858 L1125 857 L1125 856 L1124 855 L1124 854 L1124 853 L1124 852 L1124 851 L1125 850 L1125 849 L1125 848 L1126 847 L1127 846 L1127 845 L1128 844 L1129 843 L1130 842 L1131 841 L1132 840 L1133 839 L1134 838 L1135 837 L1136 836 L1137 835 L1138 834 L1139 833 L1140 832 L1141 832 L1142 831 L1143 830 L1144 829 L1145 828 L1146 827 L1147 827 L1148 826 L1149 825 L1150 824 L1151 824 L1152 823 L1153 822 L1154 821 L1155 821 L1156 820 L1157 819 L1158 819 L1159 818 L1160 817 L1161 816 L1162 816 L1163 815 L1164 815 L1165 814 L1166 813 L1167 813 L1168 812 L1169 811 L1170 811 L1171 810 L1172 810 L1173 809 L1174 808 L1175 808 L1176 807 L1177 806 L1178 806 L1179 805 L1180 804 L1181 804 L1182 803 L1183 802 L1184 802 L1185 801 L1186 800 L1187 799 L1188 799 L1189 798 L1190 797 L1191 796 L1192 795 L1193 795 L1194 794 L1195 793 L1196 792 L1197 791 L1198 791 L1199 790 L1200 789 L1201 788 L1202 788 L1203 787 L1204 786 L1205 786 L1206 785 L1207 785 L1208 784 L1209 783 L1210 783 L1211 782 L1212 781 L1213 781 L1214 780 L1215 779 L1216 779 L1217 778 L1218 777 L1219 777 L1220 776 L1221 775 L1222 775 L1223 774 L1224 773 L1225 773 L1226 772 L1227 771 L1228 771 L1229 770 L1230 769 L1231 768 L1232 768 L1233 767 L1234 767 L1235 766 L1236 766 L1237 765 L1238 764 L1239 764 L1240 763 L1241 763 L1242 762 L1243 762 L1244 761 L1245 761 L1246 760 L1247 760 L1248 759 L1249 759 L1250 758 L1251 758 L1252 757 L1253 757 L1254 757 L1255 756 L1256 756 L1257 756 L1258 756 L1259 755 L1260 755 L1261 755 L1262 754 L1263 754 L1264 754 L1265 754 L1266 754 L1267 754 L1268 753 L1269 753 L1270 753 L1271 753 L1272 753 L1273 753 L1274 753 L1275 752 L1276 752 L1277 752 L1278 752 L1279 752 L1280 752 L1281 752 L1282 752 L1283 752 L1284 752 L1285 752 L1286 752 L1287 752 L1288 753 L1289 753 L1290 753 L1291 753 L1292 753 L1293 753 L1294 754 L1295 754 L1296 754 L1297 754 L1298 754 L1299 754 L1300 755 L1301 755 L1302 755 L1303 755 L1304 756 L1305 756 L1306 756 L1307 756 L1308 756 L1309 757 L1310 757 L1311 757 L1312 757 L1313 757 L1314 758 L1315 758 L1316 758 L1317 758 L1318 759 L1319 759 L1320 759 L1321 759 L1322 760 L1323 760 L1324 760 L1325 760 L1326 760 L1327 761 L1328 761 L1329 761 L1330 762 L1331 762 L1332 762 L1333 762 L1334 763 L1335 763 L1336 763 L1337 763 L1338 764 L1339 764 L1340 764 L1341 765 L1342 765 L1343 765 L1344 765 L1345 766 L1346 766 L1347 766 L1348 767 L1349 767 L1350 767 L1351 768 L1352 768 L1353 769 L1354 769 L1355 769 L1356 770 L1357 770 L1358 771 L1359 771 L1360 771 L1361 772 L1362 772 L1363 772 L1364 773 L1365 773 L1366 773 L1367 774 L1368 774 L1369 775 L1370 775 L1371 775 L1372 776 L1373 776 L1374 776 L1375 777 L1376 777 L1377 777 L1378 778 L1379 778 L1380 778 L1381 779 L1382 779 L1383 779 L1384 780 L1385 780 L1386 780 L1387 780 L1388 781 L1389 781 L1390 781 L1391 781 L1392 781 L1393 781 L1394 782 L1395 782 L1396 782 L1397 782 L1398 782 L1399 782 L1400 782 L1401 782 L1402 782 L1403 782 L1404 782 L1405 782 L1406 782 L1407 782 L1408 782 L1409 782 L1410 782 L1411 782 L1412 781 L1413 781 L1414 781 L1415 781 L1416 781 L1417 781 L1418 780 L1419 780 L1420 779 L1421 779 L1422 778 L1423 777 L1424 776 L1425 775 L1425 774 L1426 773 L1426 772 L1427 771 L1427 770 L1427 769 L1428 768 L1428 767 L1428 766 L1428 765 L1428 764 L1427 763 L1427 762 L1427 761 L1426 760 L1426 759 L1425 758 L1425 757 L1424 756 L1423 755 L1423 754 L1422 753 L1421 752 L1420 751 L1419 750 L1418 749 L1417 748 L1416 748 L1415 747 L1414 746 L1413 746 L1412 745 L1411 744 L1410 744 L1409 743 L1408 743 L1407 742 L1406 742 L1405 741 L1404 741 L1403 740 L1402 740 L1401 739 L1400 739 L1399 739 L1398 738 L1397 738 L1396 737 L1395 737 L1394 737 L1393 736 L1392 736 L1391 735 L1390 735 L1389 735 L1388 734 L1387 734 L1386 734 L1385 733 L1384 733 L1383 733 L1382 732 L1381 732 L1380 732 L1379 732 L1378 731 L1377 731 L1376 731 L1375 731 L1374 730 L1373 730 L1372 730 L1371 729 L1370 729 L1369 729 L1368 728 L1367 728 L1366 728 L1365 727 L1364 727 L1363 726 L1362 726 L1361 725 L1360 725 L1359 724 L1358 724 L1357 723 L1356 722 L1355 722 L1354 721 L1353 720 L1352 719 L1351 718 L1350 717 L1350 716 L1349 715 L1349 714 L1348 713 L1348 712 L1348 711 L1348 710 L1348 709 L1348 708 L1349 707 L1349 706 L1349 705 L1350 704 L1350 703 L1351 702 L1351 701 L1352 700 L1353 699 L1353 698 L1354 697 L1355 696 L1355 695 L1356 694 L1357 693 L1358 692 L1359 691 L1360 690 L1361 689 L1362 688 L1363 688 L1364 687 L1365 686 L1366 685 L1367 684 L1368 684 L1369 683 L1370 682 L1371 681 L1372 681 L1373 680 L1374 679 L1375 679 L1376 678 L1377 677 L1378 676 L1379 676 L1380 675 L1381 674 L1382 673 L1383 672 L1384 672 L1385 671 L1386 670 L1387 669 L1388 668 L1389 668 L1390 667 L1391 666 L1392 665 L1393 664 L1394 663 L1395 663 L1396 662 L1397 661 L1398 660 L1399 659 L1400 658 L1401 657 L1402 656 L1403 656 L1404 655 L1405 654 L1406 653 L1407 653 L1408 652 L1409 651 L1410 650 L1411 650 L1412 649 L1413 648 L1414 648 L1415 647 L1416 646 L1417 646 L1418 645 L1419 644 L1420 644 L1421 643 L1422 642 L1423 642 L1424 641 L1425 640 L1426 639 L1427 638 L1428 637 L1428 636 L1429 635 L1430 634 L1430 633 L1431 632 L1431 631 L1431 630 L1431 629 L1432 628 L1432 627 L1432 626 L1432 625 L1432 624 L1432 623 L1432 622 L1432 621 L1432 620 L1432 619 L1432 618 L1431 617 L1431 616 L1431 615 L1431 614 L1430 613 L1430 612 L1429 611 L1428 610 L1428 609 L1427 608 L1426 607 L1425 606 L1424 606 L1423 605 L1422 605 L1421 604 L1420 604 L1419 604 L1418 603 L1417 603 L1416 603 L1415 603 L1414 603 L1413 603 L1412 603 L1411 604 L1410 604 L1409 604 L1408 605 L1407 605 L1406 606 L1405 606 L1404 607 L1403 607 L1402 608 L1401 608 L1400 609 L1399 609 L1398 610 L1397 610 L1396 611 L1395 611 L1394 612 L1393 612 L1392 613 L1391 613 L1390 614 L1389 614 L1388 615 L1387 615 L1386 616 L1385 617 L1384 617 L1383 618 L1382 618 L1381 619 L1380 619 L1379 620 L1378 621 L1377 621 L1376 622 L1375 622 L1374 623 L1373 623 L1372 624 L1371 624 L1370 625 L1369 626 L1368 626 L1367 627 L1366 628 L1365 628 L1364 629 L1363 629 L1362 630 L1361 631 L1360 631 L1359 632 L1358 633 L1357 633 L1356 634 L1355 635 L1354 635 L1353 636 L1352 637 L1351 637 L1350 638 L1349 639 L1348 639 L1347 640 L1346 640 L1345 641 L1344 642 L1343 642 L1342 642 L1341 643 L1340 643 L1339 643 L1338 644 L1337 644 L1336 644 L1335 644 L1334 645 L1333 645 L1332 645 L1331 645 L1330 645 L1329 645 L1328 644 L1327 644 L1326 644 L1325 644 L1324 643 L1323 643 L1322 642 L1321 642 L1320 641 L1319 640 L1318 640 L1317 639 L1317 638 L1316 637 L1315 636 L1315 635 L1315 634 L1314 633 L1314 632 L1314 631 L1313 630 L1313 629 L1313 628 L1313 627 L1314 626 L1314 625 L1314 624 L1314 623 L1314 622 L1314 621 L1314 620 L1314 619 L1315 618 L1315 617 L1315 616 L1315 615 L1315 614 L1316 613 L1316 612 L1316 611 L1316 610 L1316 609 L1316 608 L1317 607 L1317 606 L1317 605 L1317 604 L1317 603 L1317 602 L1318 601 L1318 600 L1318 599 L1318 598 L1318 597 L1318 596 L1319 595 L1319 594 L1319 593 L1319 592 L1319 591 L1319 590 L1320 589 L1320 588 L1320 587 L1320 586 L1320 585 L1320 584 L1321 583 L1321 582 L1321 581 L1321 580 L1321 579 L1321 578 L1321 577 L1322 576 L1322 575 L1322 574 L1322 573 L1322 572 L1322 571 L1322 570 L1322 569 L1322 568 L1322 567 L1322 566 L1322 565 L1322 564 L1323 563 L1322 562 L1322 561 L1322 560 L1322 559 L1322 558 L1321 557 L1321 556 L1321 555 L1320 554 L1320 553 L1319 552 L1318 551 L1318 550 L1317 549 L1316 548 L1315 547 L1314 546 L1313 546 L1312 545 L1311 545 L1310 545 L1309 544 L1308 544 L1307 544 L1306 544 L1305 545 L1304 545 L1303 545 L1302 545 L1301 546 L1300 546 L1299 547 L1298 547 L1297 548 L1296 548 L1295 549 L1294 550 L1293 551 L1292 552 L1291 553 L1290 554 L1289 555 L1289 556 L1288 557 L1287 558 L1286 559 L1286 560 L1285 561 L1284 562 L1284 563 L1283 564 L1283 565 L1282 566 L1282 567 L1281 568 L1281 569 L1280 570 L1280 571 L1280 572 L1279 573 L1279 574 L1279 575 L1278 576 L1278 577 L1278 578 L1277 579 L1277 580 L1277 581 L1276 582 L1276 583 L1276 584 L1275 585 L1275 586 L1275 587 L1275 588 L1274 589 L1274 590 L1274 591 L1274 592 L1273 593 L1273 594 L1273 595 L1273 596 L1273 597 L1272 598 L1272 599 L1272 600 L1272 601 L1272 602 L1271 603 L1271 604 L1271 605 L1271 606 L1271 607 L1271 608 L1270 609 L1270 610 L1270 611 L1270 612 L1270 613 L1270 614 L1269 615 L1269 616 L1269 617 L1269 618 L1269 619 L1269 620 L1269 621 L1268 622 L1268 623 L1268 624 L1268 625 L1268 626 L1268 627 L1267 628 L1267 629 L1267 630 L1267 631 L1267 632 L1267 633 L1266 634 L1266 635 L1266 636 L1266 637 L1266 638 L1265 639 L1265 640 L1265 641 L1265 642 L1265 643 L1264 644 L1264 645 L1264 646 L1263 647 L1263 648 L1263 649 L1262 650 L1262 651 L1262 652 L1261 653 L1261 654 L1260 655 L1260 656 L1259 657 L1259 658 L1259 659 L1258 660 L1258 661 L1257 662 L1257 663 L1256 664 L1256 665 L1256 666 L1255 667 L1255 668 L1254 669 L1254 670 L1253 671 L1253 672 L1253 673 L1252 674 L1252 675 L1251 676 L1251 677 L1251 678 L1250 679 L1250 680 L1250 681 L1249 682 L1249 683 L1248 684 L1248 685 L1248 686 L1247 687 L1247 688 L1246 689 L1246 690 L1246 691 L1245 692 L1245 693 L1244 694 L1244 695 L1243 696 L1243 697 L1242 698 L1242 699 L1241 700 L1241 701 L1240 702 L1239 703 L1239 704 L1238 705 L1238 706 L1237 707 L1236 708 L1235 709 L1235 710 L1234 711 L1233 712 L1232 713 L1231 714 L1230 715 L1229 716 L1228 717 L1227 718 L1226 719 L1225 720 L1224 721 L1223 721 L1222 722 L1221 723 L1220 723 L1219 724 L1218 725 L1217 726 L1216 726 L1215 727 L1214 728 L1213 728 L1212 729 L1211 730 L1210 730 L1209 731 L1208 731 L1207 732 L1206 733 L1205 733 L1204 734 L1203 735 L1202 735 L1201 736 L1200 737 L1199 737 L1198 738 L1197 739 L1196 739 L1195 740 L1194 741 L1193 741 L1192 742 L1191 743 L1190 743 L1189 744 L1188 745 L1187 745 L1186 746 L1185 747 L1184 747 L1183 748 L1182 748 L1181 749 L1180 750 L1179 750 L1178 751 L1177 751 L1176 752 L1175 752 L1174 753 L1173 754 L1172 754 L1171 755 L1170 755 L1169 756 L1168 757 L1167 757 L1166 758 L1165 758 L1164 759 L1163 760 L1162 760 L1161 761 L1160 762 L1159 762 L1158 763 L1157 764 L1156 764 L1155 765 L1154 766 L1153 766 L1152 767 L1151 768 L1150 769 L1149 769 L1148 770 L1147 771 L1146 772 L1145 772 L1144 773 L1143 774 L1142 775 L1141 775 L1140 776 L1139 777 L1138 777 L1137 778 L1136 779 L1135 779 L1134 780 L1133 781 L1132 781 L1131 782 L1130 782 L1129 783 L1128 784 L1127 784 L1126 785 L1125 785 L1124 786 L1123 786 L1122 787 L1121 787 L1120 788 L1119 788 L1118 789 L1117 789 L1116 790 L1115 790 L1114 791 L1113 791 L1112 792 L1111 792 L1110 793 L1109 793 L1108 793 L1107 794 L1106 794 L1105 795 L1104 795 L1103 795 L1102 795 L1101 796 L1100 796 L1099 796 L1098 796 L1097 796 L1096 796 L1095 795 L1094 795 L1093 795 L1092 795 L1091 794 L1090 793 L1089 792 L1089 791 L1088 790 L1087 789 L1087 788 L1086 787 L1086 786 L1085 785 L1085 784 L1085 783 L1084 782 L1084 781 L1084 780 L1084 779 L1083 778 L1083 777 L1083 776 L1083 775 L1083 774 L1083 773 L1082 772 L1082 771 L1082 770 L1082 769 L1082 768 L1082 767 L1082 766 L1082 765 L1082 764 L1081 763 L1081 762 L1081 761 L1081 760 L1081 759 L1081 758 L1081 757 L1081 756 L1081 755 L1081 754 L1081 753 L1081 752 L1081 751 L1081 750 L1081 749 L1081 748 L1081 747 L1081 746 L1081 745 L1081 744 L1081 743 L1081 742 L1081 741 L1081 740 L1081 739 L1081 738 L1081 737 L1081 736 L1081 735 L1081 734 L1081 733 L1081 732 L1081 731 L1081 730 L1081 729 L1081 728 L1081 727 L1081 726 L1081 725 L1081 724 L1081 723 L1081 722 L1081 721 L1081 720 L1081 719 L1081 718 L1081 717 L1081 716 L1081 715 L1081 714 L1081 713 L1081 712 L1081 711 L1081 710 L1081 709 L1081 708 L1081 707 L1081 706 L1081 705 L1081 704 L1081 703 L1081 702 L1081 701 L1081 700 L1081 699 L1081 698 L1081 697 L1081 696 L1081 695 L1081 694 L1081 693 L1081 692 L1081 691 L1081 690 L1081 689 L1081 688 L1081 687 L1081 686 L1081 685 L1081 684 L1081 683 L1081 682 L1081 681 L1081 680 L1081 679 L1081 678 L1081 677 L1081 676 L1081 675 L1081 674 L1081 673 L1081 672 L1081 671 L1081 670 L1081 669 L1081 668 L1081 667 L1081 666 L1081 665 L1081 664 L1081 663 L1082 662 L1082 661 L1082 660 L1082 659 L1082 658 L1082 657 L1082 656 L1082 655 L1082 654 L1082 653 L1082 652 L1082 651 L1082 650 L1082 649 L1082 648 L1082 647 L1082 646 L1082 645 L1082 644 L1082 643 L1082 642 L1082 641 L1082 640 L1082 639 L1082 638 L1082 637 L1082 636 L1082 635 L1082 634 L1082 633 L1082 632 L1082 631 L1082 630 L1082 629 L1082 628 L1082 627 L1082 626 L1082 625 L1082 624 L1082 623 L1083 622 L1083 621 L1083 620 L1083 619 L1083 618 L1083 617 L1083 616 L1084 615 L1084 614 L1084 613 L1084 612 L1085 611 L1085 610 L1085 609 L1086 608 L1086 607 L1087 606 L1087 605 L1087 604 L1088 603 L1088 602 L1089 601 L1090 600 L1090 599 L1091 598 L1092 597 L1092 596 L1093 595 L1094 594 L1094 593 L1095 592 L1096 591 L1096 590 L1097 589 L1098 588 L1099 587 L1100 586 L1100 585 L1101 584 L1102 583 L1103 582 L1104 581 L1104 580 L1105 579 L1106 578 L1107 577 L1108 576 L1109 575 L1110 574 L1111 573 L1112 572 L1112 571 L1113 570 L1114 569 L1115 568 L1116 567 L1117 566 L1118 565 L1119 564 L1120 563 L1121 562 L1122 561 L1123 560 L1124 559 L1125 558 L1126 557 L1127 556 L1128 555 L1129 554 L1130 553 L1131 552 L1132 551 L1132 550 L1133 549 L1134 548 L1135 547 L1136 546 L1137 545 L1138 544 L1139 543 L1140 542 L1141 541 L1142 540 L1143 539 L1144 538 L1145 537 L1146 536 L1146 535 L1147 534 L1148 533 L1149 532 L1150 531 L1151 530 L1151 529 L1152 528 L1153 527 L1154 526 L1155 525 L1155 524 L1156 523 L1157 522 L1158 521 L1159 520 L1159 519 L1160 518 L1161 517 L1162 516 L1163 515 L1163 514 L1164 513 L1165 512 L1166 511 L1167 510 L1168 509 L1169 508 L1170 507 L1170 506 L1171 505 L1172 504 L1173 503 L1174 502 L1174 501 L1175 500 L1176 499 L1177 498 L1177 497 L1178 496 L1178 495 L1179 494 L1179 493 L1180 492 L1180 491 L1180 490 L1181 489 L1181 488 L1181 487 L1182 486 L1182 485 L1182 484 L1182 483 L1182 482 L1182 481 L1182 480 L1183 479 L1183 478 L1182 477 L1182 476 L1182 475 L1182 474 L1181 473 L1181 472 L1180 471 L1180 470 L1179 469 L1179 468 L1178 467 L1177 466 L1176 466 L1175 465 L1174 465 L1173 464 L1172 464 L1171 464 L1170 463 L1169 463 L1168 463 L1167 463 L1166 463 L1165 463 L1164 463 L1163 464 L1162 464 L1161 464 L1160 464 L1159 464 L1158 464 L1157 464 L1156 465 L1155 465 L1154 465 L1153 466 L1152 466 L1151 467 L1150 467 L1149 468 L1148 468 L1147 469 L1146 470 L1145 470 L1144 471 L1143 472 L1142 473 L1141 474 L1140 475 L1139 476 L1138 477 L1137 477 L1136 478 L1135 479 L1134 480 L1133 481 L1132 482 L1131 483 L1130 484 L1129 485 L1128 486 L1127 487 L1126 488 L1125 488 L1124 489 L1123 490 L1122 491 L1121 492 L1120 493 L1119 494 L1118 495 L1117 496 L1116 496 L1115 497 L1114 498 L1113 499 L1112 500 L1111 501 L1110 502 L1109 503 L1108 504 L1107 505 L1106 505 L1105 506 L1104 507 L1103 508 L1102 508 L1101 509 L1100 510 L1099 510 L1098 510 L1097 511 L1096 511 L1095 511 L1094 511 L1093 511 L1092 510 L1091 510 L1090 509 L1089 509 L1088 508 L1087 507 L1086 506 L1085 505 L1085 504 L1084 503 L1084 502 L1084 501 L1083 500 L1083 499 L1082 498 L1082 497 L1082 496 L1082 495 L1082 494 L1082 493 L1081 492 L1081 491 L1081 490 L1081 489 L1081 488 L1081 487 L1081 486 L1081 485 L1081 484 L1081 483 L1081 482 L1081 481 L1081 480 L1081 479 L1081 478 L1081 477 L1081 476 L1081 475 L1081 474 L1081 473 L1081 472 L1081 471 L1081 470 L1081 469 L1081 468 L1081 467 L1081 466 L1081 465 L1081 464 L1081 463 L1081 462 L1081 461 L1081 460 L1081 459 L1081 458 L1081 457 L1081 456 L1081 455 L1081 454 L1081 453 L1081 452 L1081 451 L1081 450 L1081 449 L1081 448 L1081 447 L1081 446 L1081 445 L1081 444 L1081 443 L1081 442 L1081 441 L1081 440 L1081 439 L1081 438 L1081 437 L1081 436 L1081 435 L1081 434 L1081 433 L1081 432 L1081 431 L1081 430 L1081 429 L1081 428 L1081 427 L1081 426 L1081 425 L1081 424 L1081 423 L1081 422 L1081 421 L1081 420 L1081 419 L1081 418 L1081 417 L1081 416 L1081 415 L1081 414 L1081 413 L1081 412 L1081 411 L1081 410 L1081 409 L1081 408 L1081 407 L1081 406 L1081 405 L1081 404 L1081 403 L1081 402 L1081 401 L1081 400 L1080 399 L1080 398 L1080 397 L1080 396 L1080 395 L1080 394 L1079 393 L1079 392 L1079 391 L1078 390 L1077 389 L1077 388 L1076 387 L1075 386 L1074 385 L1073 385 L1072 384 L1071 383 L1070 383 L1069 383 L1068 383 L1067 382 L1066 382 L1065 382 L1064 382 L1063 382 L1062 382 L1061 382 L1060 382 Z
M911 614 L910 615 L909 615 L908 615 L907 615 L906 615 L905 615 L904 615 L903 615 L902 615 L901 616 L900 616 L899 616 L898 616 L897 616 L896 616 L895 617 L894 617 L893 617 L892 617 L891 617 L890 617 L889 618 L888 618 L887 618 L886 618 L885 618 L884 618 L883 619 L882 619 L881 619 L880 619 L879 619 L878 619 L877 620 L876 620 L875 620 L874 620 L873 621 L872 621 L871 621 L870 621 L869 622 L868 622 L867 622 L866 622 L865 622 L864 623 L863 623 L862 623 L861 624 L860 624 L859 624 L858 624 L857 625 L856 625 L855 626 L854 626 L853 626 L852 627 L851 627 L850 628 L849 628 L848 628 L847 629 L846 629 L845 630 L844 630 L843 631 L842 631 L841 632 L840 632 L839 633 L838 633 L837 634 L836 634 L835 635 L834 635 L833 636 L832 636 L831 637 L830 637 L829 638 L828 638 L827 639 L826 639 L825 640 L824 640 L823 641 L822 641 L821 642 L820 642 L819 643 L818 644 L817 644 L816 645 L815 645 L814 646 L813 646 L812 647 L811 647 L810 648 L809 649 L808 649 L807 650 L806 650 L805 651 L804 652 L803 652 L802 653 L801 654 L800 655 L799 656 L798 657 L797 658 L796 659 L795 660 L794 661 L793 662 L792 663 L791 663 L790 664 L789 665 L788 666 L787 667 L786 668 L785 669 L784 670 L783 671 L782 672 L781 673 L780 674 L779 675 L778 676 L777 677 L776 678 L775 679 L774 680 L773 681 L772 682 L771 683 L770 684 L769 685 L768 686 L767 687 L766 688 L765 689 L764 690 L763 691 L762 692 L761 693 L761 694 L760 695 L759 696 L758 697 L757 698 L756 699 L755 700 L754 701 L753 702 L753 703 L752 704 L751 705 L750 706 L750 707 L749 708 L748 709 L747 710 L747 711 L746 712 L745 713 L744 714 L744 715 L743 716 L742 717 L742 718 L741 719 L740 720 L739 721 L739 722 L738 723 L737 724 L737 725 L736 726 L736 727 L735 728 L734 729 L734 730 L733 731 L733 732 L732 733 L732 734 L731 735 L731 736 L730 737 L730 738 L729 739 L729 740 L728 741 L728 742 L728 743 L727 744 L727 745 L726 746 L726 747 L726 748 L725 749 L725 750 L724 751 L724 752 L723 753 L723 754 L723 755 L722 756 L722 757 L721 758 L721 759 L720 760 L720 761 L719 762 L719 763 L719 764 L718 765 L718 766 L717 767 L717 768 L716 769 L716 770 L715 771 L715 772 L714 773 L714 774 L713 775 L713 776 L712 777 L712 778 L712 779 L711 780 L711 781 L710 782 L710 783 L709 784 L709 785 L709 786 L708 787 L708 788 L708 789 L707 790 L707 791 L707 792 L706 793 L706 794 L706 795 L706 796 L706 797 L705 798 L705 799 L705 800 L705 801 L705 802 L705 803 L704 804 L704 805 L704 806 L704 807 L704 808 L704 809 L704 810 L704 811 L704 812 L703 813 L703 814 L703 815 L703 816 L703 817 L703 818 L703 819 L703 820 L703 821 L703 822 L703 823 L703 824 L703 825 L703 826 L703 827 L703 828 L702 829 L702 830 L702 831 L702 832 L702 833 L702 834 L702 835 L702 836 L702 837 L702 838 L702 839 L702 840 L702 841 L702 842 L702 843 L702 844 L702 845 L702 846 L702 847 L702 848 L702 849 L702 850 L702 851 L702 852 L702 853 L702 854 L702 855 L702 856 L702 857 L702 858 L702 859 L702 860 L702 861 L702 862 L702 863 L702 864 L702 865 L702 866 L702 867 L702 868 L702 869 L702 870 L702 871 L702 872 L703 873 L703 874 L703 875 L703 876 L703 877 L703 878 L703 879 L703 880 L703 881 L703 882 L703 883 L703 884 L703 885 L703 886 L703 887 L703 888 L703 889 L703 890 L703 891 L703 892 L703 893 L704 894 L704 895 L704 896 L704 897 L704 898 L704 899 L704 900 L704 901 L705 902 L705 903 L705 904 L705 905 L705 906 L705 907 L706 908 L706 909 L706 910 L706 911 L706 912 L706 913 L707 914 L707 915 L707 916 L707 917 L707 918 L708 919 L708 920 L708 921 L708 922 L709 923 L709 924 L709 925 L710 926 L710 927 L710 928 L711 929 L711 930 L711 931 L712 932 L712 933 L713 934 L713 935 L714 936 L714 937 L715 938 L715 939 L715 940 L716 941 L716 942 L717 943 L718 944 L718 945 L719 946 L719 947 L720 948 L720 949 L721 950 L721 951 L722 952 L722 953 L723 954 L723 955 L724 956 L724 957 L724 958 L725 959 L725 960 L726 961 L726 962 L726 963 L727 964 L727 965 L728 966 L728 967 L729 968 L729 969 L730 970 L730 971 L731 972 L731 973 L732 974 L732 975 L733 976 L733 977 L734 978 L734 979 L735 980 L736 981 L736 982 L737 983 L737 984 L738 985 L739 986 L739 987 L740 988 L741 989 L741 990 L742 991 L743 992 L744 993 L744 994 L745 995 L746 996 L746 997 L747 998 L748 999 L749 1000 L749 1001 L750 1002 L751 1003 L751 1004 L752 1005 L753 1006 L754 1007 L755 1008 L755 1009 L756 1010 L757 1011 L758 1012 L758 1013 L759 1014 L760 1015 L761 1016 L762 1017 L763 1018 L764 1019 L765 1020 L766 1021 L766 1022 L767 1023 L768 1023 L769 1024 L770 1025 L771 1026 L772 1027 L773 1028 L774 1029 L775 1030 L776 1031 L777 1032 L778 1033 L779 1034 L780 1035 L781 1036 L782 1037 L783 1037 L784 1038 L785 1039 L786 1040 L787 1041 L788 1042 L789 1043 L790 1044 L791 1044 L792 1045 L793 1046 L794 1046 L795 1047 L796 1048 L797 1048 L798 1049 L799 1049 L800 1050 L801 1051 L802 1051 L803 1052 L804 1052 L805 1053 L806 1053 L807 1054 L808 1054 L809 1055 L810 1055 L811 1056 L812 1057 L813 1057 L814 1058 L815 1058 L816 1059 L817 1059 L818 1060 L819 1060 L820 1061 L821 1062 L822 1062 L823 1063 L824 1063 L825 1064 L826 1065 L827 1065 L828 1066 L829 1067 L830 1067 L831 1068 L832 1069 L833 1069 L834 1070 L835 1071 L836 1071 L837 1072 L838 1072 L839 1073 L840 1073 L841 1074 L842 1074 L843 1075 L844 1075 L845 1076 L846 1076 L847 1076 L848 1077 L849 1077 L850 1077 L851 1078 L852 1078 L853 1078 L854 1078 L855 1079 L856 1079 L857 1079 L858 1080 L859 1080 L860 1080 L861 1080 L862 1081 L863 1081 L864 1081 L865 1082 L866 1082 L867 1082 L868 1082 L869 1083 L870 1083 L871 1083 L872 1083 L873 1084 L874 1084 L875 1084 L876 1085 L877 1085 L878 1085 L879 1085 L880 1086 L881 1086 L882 1086 L883 1086 L884 1087 L885 1087 L886 1087 L887 1087 L888 1088 L889 1088 L890 1088 L891 1089 L892 1089 L893 1089 L894 1089 L895 1090 L896 1090 L897 1090 L898 1091 L899 1091 L900 1091 L901 1091 L902 1092 L903 1092 L904 1092 L905 1093 L906 1093 L907 1093 L908 1093 L909 1093 L910 1094 L911 1094 L912 1094 L913 1094 L914 1094 L915 1094 L916 1095 L917 1095 L918 1095 L919 1095 L920 1095 L921 1095 L922 1095 L923 1095 L924 1095 L925 1095 L926 1095 L927 1095 L928 1095 L929 1095 L930 1095 L931 1094 L932 1094 L933 1094 L934 1094 L935 1093 L936 1093 L937 1092 L938 1092 L939 1091 L940 1091 L941 1090 L942 1089 L943 1088 L944 1087 L945 1086 L946 1085 L947 1084 L948 1083 L949 1082 L949 1081 L950 1080 L951 1079 L951 1078 L952 1077 L952 1076 L953 1075 L953 1074 L953 1073 L954 1072 L954 1071 L954 1070 L953 1069 L953 1068 L953 1067 L952 1066 L952 1065 L951 1064 L951 1063 L950 1062 L949 1061 L948 1060 L947 1059 L946 1059 L945 1058 L944 1057 L943 1057 L942 1056 L941 1056 L940 1055 L939 1055 L938 1054 L937 1054 L936 1053 L935 1053 L934 1053 L933 1053 L932 1052 L931 1052 L930 1052 L929 1051 L928 1051 L927 1051 L926 1051 L925 1050 L924 1050 L923 1050 L922 1050 L921 1049 L920 1049 L919 1049 L918 1049 L917 1049 L916 1048 L915 1048 L914 1048 L913 1048 L912 1048 L911 1047 L910 1047 L909 1047 L908 1047 L907 1047 L906 1047 L905 1046 L904 1046 L903 1046 L902 1046 L901 1045 L900 1045 L899 1045 L898 1045 L897 1044 L896 1044 L895 1044 L894 1044 L893 1043 L892 1043 L891 1043 L890 1042 L889 1042 L888 1042 L887 1041 L886 1041 L885 1041 L884 1040 L883 1040 L882 1040 L881 1039 L880 1039 L879 1039 L878 1038 L877 1038 L876 1037 L875 1037 L874 1037 L873 1036 L872 1036 L871 1035 L870 1035 L869 1034 L868 1034 L867 1033 L866 1033 L865 1033 L864 1032 L863 1032 L862 1031 L861 1031 L860 1030 L859 1030 L858 1030 L857 1029 L856 1029 L855 1029 L854 1028 L853 1028 L852 1027 L851 1027 L850 1027 L849 1026 L848 1026 L847 1025 L846 1025 L845 1025 L844 1024 L843 1024 L842 1023 L841 1023 L840 1022 L839 1022 L838 1022 L837 1021 L836 1021 L835 1020 L834 1020 L833 1019 L832 1019 L831 1018 L830 1018 L829 1017 L828 1016 L827 1016 L826 1015 L825 1014 L824 1014 L823 1013 L822 1012 L821 1011 L820 1010 L819 1010 L818 1009 L817 1008 L816 1007 L815 1007 L814 1006 L813 1005 L812 1004 L811 1003 L810 1002 L809 1001 L808 1000 L807 1000 L806 999 L805 998 L804 997 L803 996 L802 995 L801 994 L800 993 L799 992 L798 991 L797 990 L796 989 L795 988 L794 987 L793 986 L792 985 L791 984 L790 983 L789 982 L789 981 L788 980 L787 979 L786 978 L786 977 L785 976 L784 975 L783 974 L783 973 L782 972 L781 971 L781 970 L780 969 L780 968 L779 967 L778 966 L778 965 L777 964 L776 963 L776 962 L775 961 L775 960 L774 959 L773 958 L773 957 L772 956 L772 955 L771 954 L770 953 L770 952 L769 951 L768 950 L768 949 L767 948 L767 947 L766 946 L765 945 L765 944 L764 943 L764 942 L763 941 L763 940 L762 939 L762 938 L761 937 L761 936 L760 935 L760 934 L759 933 L759 932 L759 931 L758 930 L758 929 L758 928 L757 927 L757 926 L757 925 L756 924 L756 923 L756 922 L755 921 L755 920 L755 919 L755 918 L754 917 L754 916 L754 915 L754 914 L753 913 L753 912 L753 911 L753 910 L752 909 L752 908 L752 907 L752 906 L752 905 L751 904 L751 903 L751 902 L751 901 L750 900 L750 899 L750 898 L750 897 L750 896 L750 895 L749 894 L749 893 L749 892 L749 891 L749 890 L749 889 L749 888 L748 887 L748 886 L748 885 L748 884 L748 883 L748 882 L748 881 L748 880 L747 879 L747 878 L747 877 L747 876 L747 875 L747 874 L747 873 L747 872 L746 871 L746 870 L746 869 L746 868 L746 867 L746 866 L746 865 L746 864 L746 863 L746 862 L746 861 L745 860 L745 859 L745 858 L745 857 L745 856 L745 855 L745 854 L745 853 L745 852 L745 851 L745 850 L745 849 L745 848 L745 847 L745 846 L745 845 L745 844 L745 843 L745 842 L745 841 L745 840 L745 839 L745 838 L745 837 L746 836 L746 835 L746 834 L746 833 L746 832 L746 831 L746 830 L746 829 L746 828 L746 827 L747 826 L747 825 L747 824 L747 823 L747 822 L747 821 L748 820 L748 819 L748 818 L748 817 L748 816 L749 815 L749 814 L749 813 L749 812 L749 811 L750 810 L750 809 L750 808 L750 807 L751 806 L751 805 L751 804 L752 803 L752 802 L752 801 L752 800 L753 799 L753 798 L753 797 L753 796 L754 795 L754 794 L754 793 L755 792 L755 791 L755 790 L755 789 L756 788 L756 787 L756 786 L757 785 L757 784 L757 783 L758 782 L758 781 L758 780 L759 779 L759 778 L759 777 L760 776 L760 775 L760 774 L761 773 L761 772 L762 771 L762 770 L762 769 L763 768 L763 767 L764 766 L764 765 L765 764 L765 763 L766 762 L767 761 L767 760 L768 759 L768 758 L769 757 L770 756 L770 755 L771 754 L771 753 L772 752 L773 751 L773 750 L774 749 L775 748 L775 747 L776 746 L777 745 L777 744 L778 743 L779 742 L779 741 L780 740 L781 739 L782 738 L782 737 L783 736 L784 735 L785 734 L785 733 L786 732 L787 731 L788 730 L789 729 L789 728 L790 727 L791 726 L792 725 L793 724 L794 723 L795 722 L795 721 L796 720 L797 719 L798 718 L799 717 L800 716 L801 715 L802 714 L803 713 L804 712 L805 711 L806 710 L807 710 L808 709 L809 708 L810 707 L811 706 L812 706 L813 705 L814 704 L815 704 L816 703 L817 702 L818 701 L819 701 L820 700 L821 699 L822 699 L823 698 L824 697 L825 697 L826 696 L827 695 L828 694 L829 694 L830 693 L831 692 L832 691 L833 691 L834 690 L835 689 L836 688 L837 687 L838 687 L839 686 L840 685 L841 685 L842 684 L843 683 L844 683 L845 682 L846 681 L847 681 L848 680 L849 680 L850 679 L851 679 L852 678 L853 678 L854 678 L855 677 L856 677 L857 677 L858 676 L859 676 L860 676 L861 675 L862 675 L863 674 L864 674 L865 674 L866 673 L867 673 L868 673 L869 672 L870 672 L871 672 L872 671 L873 671 L874 671 L875 670 L876 670 L877 670 L878 669 L879 669 L880 669 L881 668 L882 668 L883 667 L884 667 L885 667 L886 666 L887 666 L888 666 L889 665 L890 665 L891 664 L892 664 L893 664 L894 663 L895 663 L896 663 L897 662 L898 662 L899 662 L900 661 L901 661 L902 661 L903 660 L904 660 L905 660 L906 659 L907 659 L908 659 L909 658 L910 658 L911 658 L912 658 L913 657 L914 657 L915 657 L916 657 L917 656 L918 656 L919 656 L920 656 L921 655 L922 655 L923 655 L924 654 L925 654 L926 654 L927 654 L928 653 L929 653 L930 653 L931 652 L932 652 L933 651 L934 651 L935 650 L936 650 L937 649 L938 649 L939 648 L940 648 L941 647 L942 646 L943 645 L944 645 L945 644 L946 643 L947 642 L947 641 L948 640 L949 639 L949 638 L950 637 L950 636 L951 635 L951 634 L951 633 L951 632 L950 631 L950 630 L950 629 L949 628 L949 627 L948 626 L948 625 L947 624 L946 623 L945 622 L944 621 L943 620 L942 620 L941 619 L940 618 L939 618 L938 617 L937 617 L936 616 L935 616 L934 615 L933 615 L932 615 L931 615 L930 614 L929 614 L928 614 L927 614 L926 614 L925 614 L924 614 L923 614 L922 614 L921 614 L920 614 L919 614 L918 614 L917 614 L916 614 L915 614 L914 614 L913 614 L912 614 Z
M934 382 L933 383 L932 383 L931 383 L930 384 L929 384 L928 384 L927 385 L926 386 L925 386 L924 387 L923 388 L923 389 L922 390 L921 391 L921 392 L920 393 L920 394 L920 395 L919 396 L919 397 L919 398 L919 399 L919 400 L918 401 L918 402 L918 403 L918 404 L918 405 L918 406 L918 407 L918 408 L918 409 L918 410 L918 411 L918 412 L918 413 L918 414 L918 415 L918 416 L918 417 L918 418 L918 419 L918 420 L918 421 L918 422 L918 423 L918 424 L918 425 L918 426 L918 427 L918 428 L918 429 L918 430 L918 431 L918 432 L918 433 L918 434 L918 435 L918 436 L918 437 L918 438 L918 439 L918 440 L918 441 L918 442 L918 443 L918 444 L918 445 L918 446 L918 447 L918 448 L918 449 L918 450 L918 451 L918 452 L918 453 L918 454 L918 455 L918 456 L918 457 L918 458 L918 459 L918 460 L918 461 L918 462 L918 463 L918 464 L918 465 L918 466 L918 467 L918 468 L918 469 L918 470 L918 471 L918 472 L918 473 L918 474 L918 475 L918 476 L918 477 L918 478 L918 479 L918 480 L918 481 L918 482 L918 483 L918 484 L918 485 L918 486 L918 487 L918 488 L918 489 L918 490 L918 491 L918 492 L918 493 L918 494 L918 495 L918 496 L918 497 L918 498 L918 499 L918 500 L919 501 L919 502 L919 503 L919 504 L920 505 L920 506 L920 507 L921 508 L921 509 L922 510 L922 511 L923 512 L923 513 L924 514 L924 515 L925 516 L925 517 L926 518 L927 519 L928 520 L929 521 L930 522 L931 522 L932 523 L933 524 L934 524 L935 524 L936 525 L937 525 L938 525 L939 525 L940 525 L941 525 L942 525 L943 525 L944 524 L945 524 L946 524 L947 523 L948 523 L949 522 L950 522 L951 521 L952 520 L953 519 L954 518 L955 517 L956 516 L957 515 L958 514 L958 513 L959 512 L959 511 L960 510 L960 509 L961 508 L961 507 L961 506 L962 505 L962 504 L962 503 L962 502 L962 501 L963 500 L963 499 L963 498 L963 497 L963 496 L963 495 L963 494 L963 493 L963 492 L963 491 L962 490 L962 489 L962 488 L962 487 L962 486 L962 485 L962 484 L962 483 L962 482 L962 481 L962 480 L962 479 L962 478 L962 477 L962 476 L962 475 L962 474 L962 473 L962 472 L962 471 L962 470 L962 469 L962 468 L962 467 L962 466 L962 465 L962 464 L962 463 L962 462 L962 461 L962 460 L962 459 L962 458 L962 457 L962 456 L962 455 L962 454 L962 453 L962 452 L962 451 L962 450 L962 449 L962 448 L962 447 L962 446 L962 445 L962 444 L962 443 L962 442 L962 441 L961 440 L961 439 L961 438 L961 437 L961 436 L961 435 L961 434 L961 433 L961 432 L961 431 L961 430 L961 429 L961 428 L961 427 L961 426 L961 425 L961 424 L961 423 L961 422 L961 421 L961 420 L961 419 L961 418 L961 417 L961 416 L961 415 L961 414 L961 413 L961 412 L961 411 L961 410 L961 409 L961 408 L961 407 L961 406 L961 405 L961 404 L961 403 L961 402 L961 401 L960 400 L960 399 L960 398 L960 397 L959 396 L959 395 L958 394 L957 393 L957 392 L956 391 L955 390 L954 389 L953 388 L952 387 L951 387 L950 386 L949 385 L948 385 L947 384 L946 384 L945 384 L944 383 L943 383 L942 383 L941 383 L940 382 L939 382 L938 382 L937 382 L936 382 L935 382 Z
M934 1184 L933 1185 L932 1185 L931 1185 L930 1186 L929 1187 L928 1187 L927 1188 L926 1189 L925 1190 L925 1191 L924 1192 L923 1193 L923 1194 L922 1195 L922 1196 L921 1197 L921 1198 L920 1199 L920 1200 L920 1201 L919 1202 L919 1203 L919 1204 L919 1205 L919 1206 L919 1207 L918 1208 L918 1209 L918 1210 L918 1211 L918 1212 L918 1213 L918 1214 L918 1215 L918 1216 L918 1217 L918 1218 L918 1219 L918 1220 L918 1221 L918 1222 L918 1223 L918 1224 L918 1225 L918 1226 L918 1227 L918 1228 L918 1229 L917 1230 L917 1231 L917 1232 L917 1233 L917 1234 L917 1235 L917 1236 L917 1237 L917 1238 L917 1239 L917 1240 L917 1241 L917 1242 L917 1243 L917 1244 L917 1245 L917 1246 L917 1247 L917 1248 L917 1249 L917 1250 L917 1251 L917 1252 L917 1253 L917 1254 L917 1255 L917 1256 L917 1257 L917 1258 L917 1259 L917 1260 L917 1261 L917 1262 L917 1263 L917 1264 L918 1265 L918 1266 L918 1267 L918 1268 L918 1269 L918 1270 L918 1271 L918 1272 L918 1273 L918 1274 L918 1275 L918 1276 L918 1277 L918 1278 L918 1279 L918 1280 L918 1281 L918 1282 L918 1283 L918 1284 L918 1285 L918 1286 L918 1287 L918 1288 L918 1289 L918 1290 L918 1291 L918 1292 L918 1293 L918 1294 L918 1295 L918 1296 L918 1297 L918 1298 L919 1299 L919 1300 L919 1301 L919 1302 L919 1303 L919 1304 L919 1305 L919 1306 L920 1307 L920 1308 L920 1309 L921 1310 L921 1311 L922 1312 L922 1313 L923 1314 L923 1315 L924 1316 L925 1317 L926 1318 L927 1319 L928 1320 L929 1320 L930 1321 L931 1321 L932 1321 L933 1322 L934 1322 L935 1322 L936 1322 L937 1322 L938 1322 L939 1322 L940 1322 L941 1322 L942 1321 L943 1321 L944 1321 L945 1320 L946 1320 L947 1320 L948 1319 L949 1318 L950 1318 L951 1317 L952 1316 L953 1316 L954 1315 L955 1314 L956 1313 L957 1312 L957 1311 L958 1310 L959 1309 L959 1308 L960 1307 L960 1306 L960 1305 L961 1304 L961 1303 L961 1302 L962 1301 L962 1300 L962 1299 L962 1298 L962 1297 L962 1296 L962 1295 L962 1294 L962 1293 L962 1292 L963 1291 L963 1290 L963 1289 L963 1288 L963 1287 L963 1286 L963 1285 L963 1284 L963 1283 L963 1282 L963 1281 L963 1280 L963 1279 L963 1278 L963 1277 L963 1276 L963 1275 L963 1274 L963 1273 L963 1272 L963 1271 L963 1270 L963 1269 L963 1268 L963 1267 L963 1266 L963 1265 L963 1264 L963 1263 L963 1262 L963 1261 L963 1260 L963 1259 L963 1258 L963 1257 L963 1256 L963 1255 L963 1254 L963 1253 L963 1252 L963 1251 L963 1250 L963 1249 L963 1248 L962 1247 L962 1246 L962 1245 L962 1244 L962 1243 L962 1242 L962 1241 L962 1240 L962 1239 L962 1238 L962 1237 L962 1236 L962 1235 L962 1234 L962 1233 L962 1232 L962 1231 L962 1230 L962 1229 L962 1228 L962 1227 L962 1226 L962 1225 L962 1224 L962 1223 L962 1222 L962 1221 L962 1220 L962 1219 L962 1218 L962 1217 L962 1216 L962 1215 L962 1214 L962 1213 L962 1212 L962 1211 L962 1210 L962 1209 L961 1208 L961 1207 L961 1206 L961 1205 L961 1204 L961 1203 L961 1202 L961 1201 L960 1200 L960 1199 L959 1198 L959 1197 L958 1196 L957 1195 L957 1194 L956 1193 L955 1192 L954 1191 L953 1190 L952 1189 L951 1189 L950 1188 L949 1187 L948 1187 L947 1186 L946 1186 L945 1185 L944 1185 L943 1185 L942 1184 L941 1184 L940 1184 L939 1184 L938 1184 L937 1184 L936 1184 L935 1184 Z
M631 514 L630 515 L629 515 L628 515 L627 516 L626 516 L625 517 L624 517 L623 517 L622 518 L621 519 L620 519 L619 520 L618 521 L618 522 L617 523 L616 524 L616 525 L615 526 L615 527 L615 528 L615 529 L614 530 L614 531 L614 532 L614 533 L614 534 L615 535 L615 536 L615 537 L615 538 L616 539 L616 540 L616 541 L617 542 L617 543 L618 544 L618 545 L619 546 L619 547 L619 548 L620 549 L620 550 L621 551 L621 552 L622 553 L623 554 L623 555 L624 556 L624 557 L625 558 L626 559 L627 560 L628 561 L629 562 L630 563 L631 564 L632 565 L633 566 L633 567 L634 568 L635 569 L636 570 L637 571 L638 572 L639 573 L640 574 L641 575 L642 576 L643 577 L644 578 L645 579 L646 580 L647 581 L648 582 L649 583 L650 584 L651 585 L652 586 L653 587 L654 588 L655 589 L656 590 L657 591 L658 592 L659 593 L660 594 L661 595 L662 596 L663 597 L664 598 L665 599 L666 600 L667 601 L668 602 L669 603 L670 604 L671 605 L672 606 L673 606 L674 607 L675 608 L676 609 L677 610 L678 611 L679 612 L680 613 L681 614 L682 615 L683 616 L684 617 L685 618 L686 618 L687 619 L688 620 L689 620 L690 621 L691 621 L692 621 L693 622 L694 622 L695 622 L696 622 L697 623 L698 623 L699 623 L700 623 L701 623 L702 623 L703 623 L704 623 L705 623 L706 623 L707 623 L708 623 L709 623 L710 623 L711 623 L712 623 L713 623 L714 623 L715 623 L716 623 L717 622 L718 621 L719 621 L720 620 L720 619 L721 618 L722 617 L723 616 L723 615 L724 614 L724 613 L724 612 L725 611 L725 610 L725 609 L725 608 L725 607 L725 606 L725 605 L724 604 L724 603 L724 602 L723 601 L723 600 L723 599 L722 598 L721 597 L721 596 L720 595 L720 594 L719 593 L718 592 L717 591 L717 590 L716 589 L715 588 L714 587 L713 586 L713 585 L712 584 L711 583 L710 582 L709 581 L709 580 L708 579 L707 578 L706 577 L705 576 L704 575 L703 574 L702 573 L701 572 L700 571 L699 570 L698 569 L697 568 L696 567 L695 566 L694 565 L693 564 L692 564 L691 563 L690 562 L689 561 L688 560 L687 559 L686 558 L685 557 L684 556 L683 555 L682 554 L681 553 L680 552 L679 551 L678 550 L677 549 L676 548 L675 547 L674 546 L674 545 L673 544 L672 543 L671 542 L670 541 L669 540 L668 539 L667 538 L666 537 L665 536 L664 536 L663 535 L662 534 L661 533 L660 532 L659 531 L658 530 L657 529 L656 528 L655 527 L654 526 L653 526 L652 525 L651 524 L650 523 L649 522 L648 521 L647 520 L646 519 L645 519 L644 518 L643 517 L642 517 L641 516 L640 516 L639 516 L638 515 L637 515 L636 515 L635 514 L634 514 L633 514 L632 514 Z
M702 1082 L701 1083 L700 1083 L699 1083 L698 1083 L697 1083 L696 1083 L695 1084 L694 1084 L693 1084 L692 1085 L691 1085 L690 1085 L689 1086 L688 1086 L687 1087 L686 1088 L685 1089 L684 1090 L683 1091 L682 1091 L681 1092 L680 1093 L679 1094 L679 1095 L678 1096 L677 1096 L676 1097 L675 1098 L675 1099 L674 1100 L673 1101 L672 1102 L671 1103 L670 1104 L669 1105 L668 1106 L667 1107 L666 1108 L665 1109 L664 1110 L663 1111 L662 1112 L661 1113 L660 1114 L659 1115 L658 1116 L657 1117 L656 1118 L655 1119 L654 1120 L653 1121 L652 1122 L651 1123 L650 1124 L649 1125 L649 1126 L648 1127 L647 1128 L646 1129 L645 1130 L644 1131 L643 1132 L642 1133 L641 1134 L640 1135 L639 1136 L638 1137 L638 1138 L637 1139 L636 1140 L635 1141 L634 1142 L633 1143 L632 1144 L631 1145 L631 1146 L630 1147 L629 1148 L628 1149 L627 1150 L627 1151 L626 1152 L625 1153 L624 1154 L624 1155 L623 1156 L622 1157 L622 1158 L621 1159 L621 1160 L620 1161 L620 1162 L620 1163 L619 1164 L619 1165 L619 1166 L618 1167 L618 1168 L618 1169 L618 1170 L617 1171 L617 1172 L617 1173 L617 1174 L617 1175 L618 1176 L618 1177 L619 1178 L619 1179 L620 1180 L620 1181 L621 1182 L622 1183 L623 1184 L624 1185 L625 1186 L626 1187 L627 1187 L628 1188 L629 1189 L630 1189 L631 1189 L632 1190 L633 1190 L634 1190 L635 1190 L636 1190 L637 1190 L638 1190 L639 1190 L640 1189 L641 1189 L642 1189 L643 1188 L644 1188 L645 1188 L646 1187 L647 1187 L648 1186 L649 1185 L650 1185 L651 1184 L652 1183 L653 1182 L654 1181 L655 1181 L656 1180 L657 1179 L658 1178 L659 1177 L660 1176 L661 1175 L662 1174 L663 1173 L664 1172 L665 1171 L666 1170 L667 1169 L668 1169 L669 1168 L670 1167 L671 1166 L671 1165 L672 1164 L673 1163 L674 1163 L675 1162 L676 1161 L677 1160 L678 1159 L679 1158 L680 1157 L681 1156 L682 1155 L683 1154 L684 1153 L685 1152 L686 1151 L687 1150 L688 1149 L689 1148 L690 1147 L691 1146 L692 1145 L693 1144 L694 1143 L695 1143 L696 1142 L697 1141 L698 1140 L699 1139 L700 1138 L701 1137 L702 1136 L703 1136 L704 1135 L704 1134 L705 1133 L706 1132 L707 1131 L708 1130 L709 1129 L710 1128 L710 1127 L711 1126 L712 1125 L713 1124 L713 1123 L714 1122 L715 1121 L715 1120 L716 1119 L717 1118 L717 1117 L718 1116 L719 1115 L719 1114 L720 1113 L720 1112 L721 1111 L721 1110 L722 1109 L722 1108 L723 1107 L723 1106 L724 1105 L724 1104 L724 1103 L725 1102 L725 1101 L725 1100 L725 1099 L725 1098 L725 1097 L725 1096 L725 1095 L725 1094 L725 1093 L724 1092 L724 1091 L724 1090 L723 1089 L722 1088 L721 1087 L720 1086 L719 1085 L718 1085 L717 1084 L716 1084 L715 1083 L714 1083 L713 1083 L712 1082 L711 1082 L710 1082 L709 1082 L708 1082 L707 1082 L706 1082 L705 1082 L704 1082 L703 1082 Z
M523 835 L522 836 L521 836 L520 836 L519 836 L518 836 L517 836 L516 836 L515 836 L514 836 L513 836 L512 837 L511 837 L510 837 L509 837 L508 837 L507 837 L506 837 L505 837 L504 838 L503 838 L502 838 L501 839 L500 839 L499 839 L498 840 L497 840 L496 841 L495 841 L494 842 L493 843 L492 843 L491 844 L490 845 L490 846 L489 847 L488 848 L488 849 L488 850 L487 851 L487 852 L487 853 L487 854 L488 855 L488 856 L488 857 L489 858 L489 859 L490 860 L491 861 L491 862 L492 863 L493 864 L494 865 L495 865 L496 866 L497 867 L498 867 L499 868 L500 868 L501 868 L502 869 L503 869 L504 870 L505 870 L506 870 L507 870 L508 870 L509 871 L510 871 L511 871 L512 871 L513 871 L514 871 L515 872 L516 872 L517 872 L518 872 L519 872 L520 872 L521 872 L522 872 L523 873 L524 872 L525 873 L526 873 L527 873 L528 873 L529 873 L530 873 L531 873 L532 873 L533 873 L534 874 L535 874 L536 874 L537 874 L538 874 L539 874 L540 874 L541 874 L542 874 L543 875 L544 875 L545 875 L546 875 L547 875 L548 875 L549 875 L550 875 L551 875 L552 875 L553 875 L554 875 L555 875 L556 875 L557 875 L558 875 L559 875 L560 875 L561 875 L562 875 L563 875 L564 875 L565 875 L566 875 L567 875 L568 875 L569 875 L570 875 L571 875 L572 875 L573 875 L574 875 L575 875 L576 875 L577 875 L578 875 L579 875 L580 875 L581 874 L582 874 L583 874 L584 874 L585 874 L586 874 L587 874 L588 874 L589 874 L590 874 L591 874 L592 874 L593 874 L594 873 L595 873 L596 873 L597 873 L598 873 L599 873 L600 873 L601 873 L602 873 L603 873 L604 872 L605 872 L606 872 L607 872 L608 871 L609 871 L610 870 L611 870 L612 869 L613 868 L614 868 L615 867 L616 866 L617 866 L618 865 L619 864 L620 863 L620 862 L621 861 L622 860 L622 859 L623 858 L623 857 L623 856 L624 855 L624 854 L624 853 L624 852 L624 851 L623 850 L623 849 L623 848 L622 847 L622 846 L621 845 L620 844 L619 843 L618 842 L617 841 L616 841 L615 840 L614 839 L613 839 L612 839 L611 838 L610 838 L609 837 L608 837 L607 837 L606 836 L605 836 L604 836 L603 836 L602 836 L601 836 L600 836 L599 835 L598 835 L597 835 L596 835 L595 835 L594 835 L593 835 L592 835 L591 835 L590 835 L589 835 L588 835 L587 835 L586 835 L585 835 L584 835 L583 835 L582 835 L581 835 L580 835 L579 835 L578 835 L577 835 L576 835 L575 835 L574 835 L573 835 L572 835 L571 835 L570 835 L569 835 L568 835 L567 835 L566 835 L565 835 L564 835 L563 835 L562 835 L561 835 L560 835 L559 835 L558 835 L557 835 L556 835 L555 835 L554 835 L553 835 L552 835 L551 835 L550 835 L549 835 L548 835 L547 835 L546 835 L545 835 L544 835 L543 835 L542 835 L541 835 L540 835 L539 835 L538 835 L537 835 L536 835 L535 835 L534 835 L533 835 L532 835 L531 835 L530 835 L529 835 L528 835 L527 835 L526 835 L525 835 L524 835 Z" fill="#000000" fill-rule="evenodd"/>
</svg>
