<?xml version="1.0" encoding="UTF-8"?>
<svg xmlns="http://www.w3.org/2000/svg" width="2000" height="1705" viewBox="0 0 2000 1705" role="img" aria-label="06_respiration_air">
  <path d="M610 537 L609 538 L608 538 L607 538 L606 538 L605 538 L604 538 L603 538 L602 538 L601 538 L600 538 L599 538 L598 538 L597 539 L596 539 L595 539 L594 539 L593 539 L592 539 L591 539 L590 539 L589 539 L588 539 L587 539 L586 539 L585 539 L584 540 L583 540 L582 540 L581 540 L580 540 L579 540 L578 540 L577 540 L576 540 L575 540 L574 540 L573 540 L572 540 L571 541 L570 541 L569 541 L568 541 L567 541 L566 541 L565 541 L564 541 L563 541 L562 541 L561 541 L560 542 L559 542 L558 542 L557 542 L556 542 L555 542 L554 542 L553 543 L552 543 L551 543 L550 543 L549 544 L548 544 L547 544 L546 545 L545 545 L544 546 L543 546 L542 547 L541 547 L540 548 L539 548 L538 549 L537 550 L536 550 L535 551 L534 552 L533 553 L532 554 L531 555 L530 556 L529 557 L528 558 L527 559 L526 560 L525 561 L525 562 L524 563 L524 564 L523 565 L522 566 L522 567 L521 568 L521 569 L520 570 L520 571 L519 572 L519 573 L519 574 L518 575 L518 576 L518 577 L518 578 L517 579 L517 580 L517 581 L517 582 L516 583 L516 584 L516 585 L516 586 L515 587 L515 588 L515 589 L515 590 L515 591 L514 592 L514 593 L514 594 L514 595 L514 596 L513 597 L513 598 L513 599 L513 600 L512 601 L512 602 L512 603 L511 604 L511 605 L511 606 L511 607 L510 608 L510 609 L510 610 L509 611 L509 612 L509 613 L508 614 L508 615 L508 616 L507 617 L507 618 L507 619 L506 620 L506 621 L506 622 L505 623 L505 624 L505 625 L504 626 L504 627 L504 628 L503 629 L503 630 L503 631 L503 632 L502 633 L502 634 L502 635 L502 636 L501 637 L501 638 L501 639 L501 640 L500 641 L500 642 L500 643 L500 644 L500 645 L499 646 L499 647 L499 648 L499 649 L498 650 L498 651 L498 652 L498 653 L498 654 L497 655 L497 656 L497 657 L497 658 L497 659 L496 660 L496 661 L496 662 L496 663 L495 664 L495 665 L495 666 L495 667 L495 668 L494 669 L494 670 L494 671 L494 672 L494 673 L493 674 L493 675 L493 676 L493 677 L493 678 L492 679 L492 680 L492 681 L492 682 L492 683 L491 684 L491 685 L491 686 L491 687 L491 688 L490 689 L490 690 L490 691 L490 692 L490 693 L489 694 L489 695 L489 696 L489 697 L489 698 L489 699 L488 700 L488 701 L488 702 L488 703 L488 704 L487 705 L487 706 L487 707 L487 708 L487 709 L486 710 L486 711 L486 712 L486 713 L486 714 L485 715 L485 716 L485 717 L485 718 L485 719 L484 720 L484 721 L484 722 L484 723 L484 724 L483 725 L483 726 L483 727 L483 728 L483 729 L482 730 L482 731 L482 732 L482 733 L482 734 L481 735 L481 736 L481 737 L481 738 L481 739 L480 740 L480 741 L480 742 L480 743 L480 744 L479 745 L479 746 L479 747 L479 748 L479 749 L478 750 L478 751 L478 752 L478 753 L477 754 L477 755 L477 756 L477 757 L477 758 L476 759 L476 760 L476 761 L476 762 L475 763 L475 764 L475 765 L475 766 L474 767 L474 768 L474 769 L474 770 L473 771 L473 772 L473 773 L473 774 L472 775 L472 776 L472 777 L472 778 L472 779 L471 780 L471 781 L471 782 L470 783 L470 784 L470 785 L470 786 L469 787 L469 788 L469 789 L469 790 L468 791 L468 792 L468 793 L468 794 L467 795 L467 796 L467 797 L467 798 L466 799 L466 800 L466 801 L465 802 L465 803 L465 804 L465 805 L465 806 L464 807 L464 808 L464 809 L464 810 L463 811 L463 812 L463 813 L463 814 L463 815 L462 816 L462 817 L462 818 L462 819 L462 820 L461 821 L461 822 L461 823 L461 824 L461 825 L461 826 L460 827 L460 828 L460 829 L460 830 L460 831 L459 832 L459 833 L459 834 L459 835 L459 836 L459 837 L458 838 L458 839 L458 840 L458 841 L458 842 L458 843 L457 844 L457 845 L457 846 L457 847 L457 848 L457 849 L456 850 L456 851 L456 852 L456 853 L456 854 L456 855 L455 856 L455 857 L455 858 L455 859 L455 860 L455 861 L454 862 L454 863 L454 864 L454 865 L454 866 L453 867 L453 868 L453 869 L453 870 L453 871 L453 872 L452 873 L452 874 L452 875 L452 876 L452 877 L452 878 L451 879 L451 880 L451 881 L451 882 L451 883 L450 884 L450 885 L450 886 L450 887 L449 888 L449 889 L449 890 L449 891 L448 892 L448 893 L448 894 L447 895 L447 896 L447 897 L447 898 L446 899 L446 900 L446 901 L446 902 L445 903 L445 904 L445 905 L444 906 L444 907 L444 908 L444 909 L443 910 L443 911 L443 912 L442 913 L442 914 L442 915 L441 916 L441 917 L441 918 L441 919 L440 920 L440 921 L440 922 L439 923 L439 924 L439 925 L439 926 L438 927 L438 928 L438 929 L438 930 L437 931 L437 932 L437 933 L437 934 L437 935 L436 936 L436 937 L436 938 L436 939 L435 940 L435 941 L435 942 L435 943 L434 944 L434 945 L434 946 L434 947 L433 948 L433 949 L433 950 L433 951 L432 952 L432 953 L432 954 L432 955 L432 956 L431 957 L431 958 L431 959 L431 960 L431 961 L430 962 L430 963 L430 964 L430 965 L430 966 L430 967 L429 968 L429 969 L429 970 L429 971 L429 972 L429 973 L428 974 L428 975 L428 976 L428 977 L428 978 L428 979 L428 980 L428 981 L428 982 L428 983 L427 984 L427 985 L427 986 L427 987 L427 988 L427 989 L427 990 L427 991 L427 992 L427 993 L427 994 L427 995 L427 996 L427 997 L427 998 L427 999 L427 1000 L427 1001 L427 1002 L427 1003 L427 1004 L427 1005 L427 1006 L427 1007 L427 1008 L427 1009 L427 1010 L427 1011 L427 1012 L427 1013 L427 1014 L427 1015 L427 1016 L427 1017 L427 1018 L428 1019 L428 1020 L428 1021 L428 1022 L428 1023 L429 1024 L429 1025 L429 1026 L430 1027 L430 1028 L430 1029 L431 1030 L431 1031 L432 1032 L432 1033 L433 1034 L434 1035 L435 1036 L435 1037 L436 1038 L437 1038 L438 1039 L439 1040 L440 1041 L441 1041 L442 1042 L443 1042 L444 1043 L445 1043 L446 1043 L447 1044 L448 1044 L449 1044 L450 1045 L451 1045 L452 1045 L453 1045 L454 1045 L455 1045 L456 1046 L457 1046 L458 1046 L459 1046 L460 1046 L461 1046 L462 1046 L463 1046 L464 1046 L465 1046 L466 1046 L467 1047 L468 1047 L469 1047 L470 1047 L471 1047 L472 1047 L473 1047 L474 1047 L475 1047 L476 1047 L477 1047 L478 1047 L479 1047 L480 1047 L481 1047 L482 1047 L483 1047 L484 1047 L485 1047 L486 1047 L487 1047 L488 1047 L489 1047 L490 1047 L491 1047 L492 1047 L493 1048 L494 1048 L495 1048 L496 1048 L497 1048 L498 1048 L499 1048 L500 1048 L501 1048 L502 1048 L503 1048 L504 1048 L505 1048 L506 1048 L507 1048 L508 1048 L509 1048 L510 1048 L511 1048 L512 1048 L513 1048 L514 1048 L515 1048 L516 1048 L517 1048 L518 1048 L519 1048 L520 1048 L521 1048 L522 1048 L523 1048 L524 1048 L525 1048 L526 1048 L527 1048 L528 1048 L529 1048 L530 1048 L531 1048 L532 1048 L533 1048 L534 1048 L535 1048 L536 1048 L537 1048 L538 1048 L539 1048 L540 1048 L541 1048 L542 1048 L543 1048 L544 1048 L545 1048 L546 1048 L547 1048 L548 1048 L549 1048 L550 1048 L551 1048 L552 1048 L553 1048 L554 1048 L555 1048 L556 1048 L557 1048 L558 1048 L559 1048 L560 1048 L561 1048 L562 1048 L563 1048 L564 1048 L565 1048 L566 1048 L567 1048 L568 1048 L569 1048 L570 1048 L571 1048 L572 1048 L573 1048 L574 1048 L575 1048 L576 1048 L577 1048 L578 1048 L579 1048 L580 1048 L581 1048 L582 1048 L583 1048 L584 1048 L585 1048 L586 1048 L587 1048 L588 1048 L589 1048 L590 1048 L591 1048 L592 1048 L593 1048 L594 1048 L595 1048 L596 1048 L597 1048 L598 1048 L599 1048 L600 1048 L601 1048 L602 1048 L603 1048 L604 1048 L605 1048 L606 1048 L607 1048 L608 1048 L609 1048 L610 1048 L611 1048 L612 1048 L613 1048 L614 1048 L615 1048 L616 1048 L617 1048 L618 1048 L619 1048 L620 1048 L621 1048 L622 1048 L623 1048 L624 1048 L625 1048 L626 1048 L627 1048 L628 1048 L629 1048 L630 1048 L631 1048 L632 1048 L633 1048 L634 1048 L635 1048 L636 1048 L637 1048 L638 1048 L639 1048 L640 1048 L641 1048 L642 1048 L643 1048 L644 1048 L645 1048 L646 1048 L647 1048 L648 1048 L649 1048 L650 1048 L651 1048 L652 1048 L653 1048 L654 1048 L655 1048 L656 1048 L657 1048 L658 1048 L659 1048 L660 1048 L661 1048 L662 1048 L663 1048 L664 1048 L665 1048 L666 1048 L667 1048 L668 1048 L669 1048 L670 1048 L671 1048 L672 1048 L673 1048 L674 1048 L675 1048 L676 1048 L677 1048 L678 1048 L679 1048 L680 1048 L681 1048 L682 1048 L683 1048 L684 1048 L685 1048 L686 1048 L687 1048 L688 1048 L689 1048 L690 1048 L691 1048 L692 1048 L693 1048 L694 1048 L695 1048 L696 1048 L697 1048 L698 1048 L699 1048 L700 1048 L701 1048 L702 1048 L703 1048 L704 1048 L705 1048 L706 1048 L707 1048 L708 1048 L709 1048 L710 1048 L711 1048 L712 1048 L713 1048 L714 1048 L715 1048 L716 1048 L717 1048 L718 1048 L719 1048 L720 1048 L721 1048 L722 1048 L723 1048 L724 1048 L725 1048 L726 1048 L727 1048 L728 1048 L729 1048 L730 1048 L731 1048 L732 1048 L733 1048 L734 1048 L735 1048 L736 1048 L737 1048 L738 1048 L739 1048 L740 1048 L741 1048 L742 1048 L743 1048 L744 1048 L745 1048 L746 1048 L747 1048 L748 1048 L749 1048 L750 1048 L751 1048 L752 1048 L753 1048 L754 1048 L755 1048 L756 1048 L757 1048 L758 1048 L759 1048 L760 1048 L761 1048 L762 1048 L763 1048 L764 1048 L765 1048 L766 1048 L767 1048 L768 1048 L769 1048 L770 1048 L771 1048 L772 1048 L773 1048 L774 1048 L775 1048 L776 1048 L777 1048 L778 1048 L779 1048 L780 1048 L781 1048 L782 1048 L783 1048 L784 1048 L785 1048 L786 1048 L787 1048 L788 1048 L789 1048 L790 1048 L791 1048 L792 1048 L793 1048 L794 1048 L795 1048 L796 1048 L797 1048 L798 1048 L799 1048 L800 1048 L801 1048 L802 1048 L803 1048 L804 1048 L805 1048 L806 1048 L807 1048 L808 1048 L809 1048 L810 1048 L811 1048 L812 1048 L813 1048 L814 1048 L815 1048 L816 1048 L817 1048 L818 1048 L819 1048 L820 1048 L821 1048 L822 1048 L823 1048 L824 1048 L825 1048 L826 1048 L827 1048 L828 1048 L829 1048 L830 1048 L831 1048 L832 1048 L833 1048 L834 1048 L835 1048 L836 1048 L837 1048 L838 1048 L839 1048 L840 1048 L841 1048 L842 1048 L843 1048 L844 1048 L845 1048 L846 1048 L847 1048 L848 1048 L849 1048 L850 1048 L851 1048 L852 1048 L853 1048 L854 1048 L855 1048 L856 1048 L857 1048 L858 1048 L859 1048 L860 1048 L861 1048 L862 1048 L863 1048 L864 1048 L865 1048 L866 1048 L867 1048 L868 1048 L869 1048 L870 1048 L871 1048 L872 1048 L873 1048 L874 1048 L875 1048 L876 1048 L877 1048 L878 1048 L879 1048 L880 1048 L881 1048 L882 1048 L883 1048 L884 1048 L885 1048 L886 1048 L887 1048 L888 1048 L889 1048 L890 1048 L891 1048 L892 1048 L893 1048 L894 1048 L895 1048 L896 1048 L897 1048 L898 1048 L899 1048 L900 1048 L901 1048 L902 1048 L903 1048 L904 1048 L905 1048 L906 1048 L907 1048 L908 1048 L909 1048 L910 1048 L911 1048 L912 1048 L913 1048 L914 1048 L915 1048 L916 1048 L917 1048 L918 1048 L919 1048 L920 1048 L921 1048 L922 1048 L923 1048 L924 1048 L925 1048 L926 1048 L927 1048 L928 1048 L929 1048 L930 1048 L931 1048 L932 1048 L933 1048 L934 1048 L935 1048 L936 1048 L937 1048 L938 1048 L939 1048 L940 1048 L941 1048 L942 1048 L943 1048 L944 1048 L945 1048 L946 1048 L947 1048 L948 1048 L949 1048 L950 1048 L951 1048 L952 1048 L953 1048 L954 1048 L955 1048 L956 1048 L957 1048 L958 1048 L959 1048 L960 1048 L961 1048 L962 1048 L963 1048 L964 1048 L965 1048 L966 1048 L967 1048 L968 1048 L969 1048 L970 1048 L971 1048 L972 1048 L973 1048 L974 1048 L975 1048 L976 1048 L977 1048 L978 1048 L979 1048 L980 1048 L981 1048 L982 1048 L983 1048 L984 1048 L985 1048 L986 1048 L987 1048 L988 1048 L989 1048 L990 1048 L991 1048 L992 1048 L993 1048 L994 1048 L995 1048 L996 1048 L997 1048 L998 1048 L999 1048 L1000 1048 L1001 1048 L1002 1048 L1003 1048 L1004 1048 L1005 1048 L1006 1048 L1007 1048 L1008 1048 L1009 1048 L1010 1048 L1011 1048 L1012 1048 L1013 1048 L1014 1048 L1015 1048 L1016 1048 L1017 1048 L1018 1048 L1019 1048 L1020 1048 L1021 1048 L1022 1048 L1023 1048 L1024 1048 L1025 1048 L1026 1048 L1027 1048 L1028 1048 L1029 1048 L1030 1048 L1031 1048 L1032 1048 L1033 1048 L1034 1048 L1035 1048 L1036 1048 L1037 1048 L1038 1048 L1039 1048 L1040 1048 L1041 1048 L1042 1048 L1043 1048 L1044 1048 L1045 1048 L1046 1048 L1047 1048 L1048 1048 L1049 1048 L1050 1048 L1051 1048 L1052 1048 L1053 1048 L1054 1048 L1055 1048 L1056 1048 L1057 1048 L1058 1048 L1059 1048 L1060 1048 L1061 1048 L1062 1048 L1063 1048 L1064 1048 L1065 1048 L1066 1048 L1067 1048 L1068 1048 L1069 1048 L1070 1048 L1071 1048 L1072 1048 L1073 1048 L1074 1048 L1075 1048 L1076 1048 L1077 1048 L1078 1048 L1079 1048 L1080 1048 L1081 1048 L1082 1048 L1083 1048 L1084 1048 L1085 1048 L1086 1048 L1087 1048 L1088 1048 L1089 1048 L1090 1048 L1091 1048 L1092 1048 L1093 1048 L1094 1048 L1095 1048 L1096 1048 L1097 1048 L1098 1048 L1099 1048 L1100 1048 L1101 1048 L1102 1048 L1103 1048 L1104 1048 L1105 1048 L1106 1048 L1107 1048 L1108 1048 L1109 1048 L1110 1048 L1111 1048 L1112 1048 L1113 1048 L1114 1048 L1115 1048 L1116 1048 L1117 1048 L1118 1048 L1119 1048 L1120 1048 L1121 1048 L1122 1048 L1123 1048 L1124 1048 L1125 1048 L1126 1048 L1127 1048 L1128 1048 L1129 1048 L1130 1048 L1131 1048 L1132 1048 L1133 1048 L1134 1048 L1135 1048 L1136 1048 L1137 1048 L1138 1048 L1139 1048 L1140 1048 L1141 1048 L1142 1048 L1143 1048 L1144 1048 L1145 1048 L1146 1048 L1147 1048 L1148 1048 L1149 1048 L1150 1048 L1151 1048 L1152 1048 L1153 1048 L1154 1048 L1155 1048 L1156 1048 L1157 1048 L1158 1048 L1159 1048 L1160 1048 L1161 1048 L1162 1048 L1163 1048 L1164 1048 L1165 1048 L1166 1048 L1167 1048 L1168 1048 L1169 1048 L1170 1048 L1171 1048 L1172 1048 L1173 1048 L1174 1048 L1175 1048 L1176 1048 L1177 1048 L1178 1048 L1179 1048 L1180 1048 L1181 1048 L1182 1048 L1183 1048 L1184 1048 L1185 1048 L1186 1048 L1187 1048 L1188 1048 L1189 1048 L1190 1048 L1191 1048 L1192 1048 L1193 1048 L1194 1048 L1195 1048 L1196 1048 L1197 1048 L1198 1048 L1199 1048 L1200 1048 L1201 1048 L1202 1048 L1203 1048 L1204 1048 L1205 1048 L1206 1048 L1207 1048 L1208 1048 L1209 1048 L1210 1048 L1211 1048 L1212 1048 L1213 1048 L1214 1048 L1215 1048 L1216 1048 L1217 1048 L1218 1048 L1219 1048 L1220 1048 L1221 1048 L1222 1048 L1223 1048 L1224 1048 L1225 1048 L1226 1048 L1227 1048 L1228 1048 L1229 1048 L1230 1048 L1231 1048 L1232 1048 L1233 1048 L1234 1048 L1235 1048 L1236 1048 L1237 1048 L1238 1048 L1239 1048 L1240 1048 L1241 1048 L1242 1048 L1243 1048 L1244 1048 L1245 1048 L1246 1048 L1247 1048 L1248 1048 L1249 1048 L1250 1048 L1251 1048 L1252 1048 L1253 1048 L1254 1048 L1255 1048 L1256 1048 L1257 1048 L1258 1048 L1259 1048 L1260 1048 L1261 1048 L1262 1048 L1263 1048 L1264 1048 L1265 1048 L1266 1048 L1267 1048 L1268 1048 L1269 1048 L1270 1048 L1271 1048 L1272 1048 L1273 1048 L1274 1048 L1275 1048 L1276 1048 L1277 1048 L1278 1048 L1279 1048 L1280 1048 L1281 1048 L1282 1048 L1283 1048 L1284 1048 L1285 1048 L1286 1048 L1287 1048 L1288 1048 L1289 1048 L1290 1048 L1291 1048 L1292 1048 L1293 1048 L1294 1048 L1295 1048 L1296 1048 L1297 1048 L1298 1048 L1299 1048 L1300 1048 L1301 1048 L1302 1048 L1303 1048 L1304 1048 L1305 1048 L1306 1048 L1307 1048 L1308 1048 L1309 1048 L1310 1048 L1311 1048 L1312 1048 L1313 1048 L1314 1048 L1315 1048 L1316 1048 L1317 1048 L1318 1048 L1319 1048 L1320 1048 L1321 1048 L1322 1048 L1323 1048 L1324 1048 L1325 1048 L1326 1048 L1327 1048 L1328 1048 L1329 1048 L1330 1048 L1331 1048 L1332 1048 L1333 1048 L1334 1048 L1335 1048 L1336 1048 L1337 1048 L1338 1048 L1339 1048 L1340 1048 L1341 1048 L1342 1048 L1343 1048 L1344 1048 L1345 1048 L1346 1048 L1347 1048 L1348 1048 L1349 1048 L1350 1048 L1351 1048 L1352 1048 L1353 1048 L1354 1048 L1355 1048 L1356 1048 L1357 1048 L1358 1048 L1359 1048 L1360 1048 L1361 1048 L1362 1048 L1363 1048 L1364 1048 L1365 1048 L1366 1048 L1367 1048 L1368 1048 L1369 1048 L1370 1048 L1371 1048 L1372 1048 L1373 1048 L1374 1048 L1375 1048 L1376 1048 L1377 1048 L1378 1048 L1379 1048 L1380 1048 L1381 1048 L1382 1048 L1383 1048 L1384 1048 L1385 1048 L1386 1048 L1387 1048 L1388 1048 L1389 1048 L1390 1048 L1391 1048 L1392 1048 L1393 1048 L1394 1048 L1395 1048 L1396 1048 L1397 1048 L1398 1048 L1399 1048 L1400 1048 L1401 1048 L1402 1048 L1403 1048 L1404 1048 L1405 1048 L1406 1048 L1407 1048 L1408 1048 L1409 1048 L1410 1048 L1411 1048 L1412 1048 L1413 1048 L1414 1048 L1415 1048 L1416 1048 L1417 1048 L1418 1048 L1419 1048 L1420 1048 L1421 1048 L1422 1048 L1423 1048 L1424 1048 L1425 1048 L1426 1048 L1427 1048 L1428 1048 L1429 1048 L1430 1048 L1431 1048 L1432 1048 L1433 1048 L1434 1048 L1435 1048 L1436 1048 L1437 1048 L1438 1048 L1439 1048 L1440 1048 L1441 1048 L1442 1048 L1443 1048 L1444 1048 L1445 1048 L1446 1048 L1447 1048 L1448 1048 L1449 1048 L1450 1048 L1451 1048 L1452 1048 L1453 1048 L1454 1048 L1455 1048 L1456 1048 L1457 1048 L1458 1048 L1459 1048 L1460 1048 L1461 1048 L1462 1048 L1463 1048 L1464 1048 L1465 1048 L1466 1048 L1467 1048 L1468 1048 L1469 1048 L1470 1048 L1471 1048 L1472 1048 L1473 1048 L1474 1048 L1475 1048 L1476 1048 L1477 1048 L1478 1048 L1479 1048 L1480 1048 L1481 1048 L1482 1048 L1483 1048 L1484 1048 L1485 1048 L1486 1048 L1487 1048 L1488 1048 L1489 1048 L1490 1048 L1491 1048 L1492 1048 L1493 1048 L1494 1048 L1495 1048 L1496 1048 L1497 1048 L1498 1048 L1499 1048 L1500 1048 L1501 1048 L1502 1048 L1503 1048 L1504 1048 L1505 1048 L1506 1048 L1507 1048 L1508 1048 L1509 1048 L1510 1048 L1511 1048 L1512 1048 L1513 1048 L1514 1048 L1515 1048 L1516 1048 L1517 1048 L1518 1048 L1519 1048 L1520 1048 L1521 1048 L1522 1048 L1523 1048 L1524 1048 L1525 1048 L1526 1048 L1527 1048 L1528 1049 L1529 1049 L1530 1049 L1531 1049 L1532 1049 L1533 1049 L1534 1049 L1535 1049 L1536 1049 L1537 1049 L1538 1049 L1539 1049 L1540 1049 L1541 1049 L1542 1049 L1543 1049 L1544 1049 L1545 1049 L1546 1049 L1547 1049 L1548 1049 L1549 1049 L1550 1049 L1551 1049 L1552 1049 L1553 1049 L1554 1049 L1555 1049 L1556 1049 L1557 1049 L1558 1049 L1559 1049 L1560 1049 L1561 1049 L1562 1050 L1563 1050 L1564 1050 L1565 1050 L1566 1050 L1567 1049 L1568 1049 L1569 1049 L1570 1049 L1571 1049 L1572 1049 L1573 1049 L1574 1049 L1575 1049 L1576 1049 L1577 1049 L1578 1049 L1579 1049 L1580 1049 L1581 1049 L1582 1049 L1583 1048 L1584 1048 L1585 1048 L1586 1048 L1587 1048 L1588 1048 L1589 1048 L1590 1048 L1591 1047 L1592 1047 L1593 1047 L1594 1047 L1595 1047 L1596 1046 L1597 1046 L1598 1046 L1599 1046 L1600 1045 L1601 1045 L1602 1045 L1603 1044 L1604 1044 L1605 1043 L1606 1042 L1607 1042 L1608 1041 L1609 1040 L1610 1040 L1611 1039 L1612 1038 L1613 1037 L1614 1036 L1615 1035 L1616 1034 L1616 1033 L1617 1032 L1618 1031 L1618 1030 L1619 1029 L1620 1028 L1620 1027 L1621 1026 L1621 1025 L1621 1024 L1622 1023 L1622 1022 L1622 1021 L1623 1020 L1623 1019 L1623 1018 L1623 1017 L1624 1016 L1624 1015 L1624 1014 L1624 1013 L1624 1012 L1624 1011 L1624 1010 L1624 1009 L1624 1008 L1624 1007 L1624 1006 L1624 1005 L1624 1004 L1624 1003 L1624 1002 L1624 1001 L1624 1000 L1624 999 L1624 998 L1624 997 L1624 996 L1624 995 L1624 994 L1624 993 L1624 992 L1624 991 L1624 990 L1624 989 L1624 988 L1624 987 L1623 986 L1623 985 L1623 984 L1623 983 L1623 982 L1623 981 L1623 980 L1623 979 L1623 978 L1623 977 L1623 976 L1623 975 L1623 974 L1623 973 L1623 972 L1623 971 L1622 970 L1622 969 L1622 968 L1622 967 L1622 966 L1622 965 L1622 964 L1621 963 L1621 962 L1621 961 L1621 960 L1621 959 L1620 958 L1620 957 L1620 956 L1620 955 L1619 954 L1619 953 L1619 952 L1619 951 L1618 950 L1618 949 L1618 948 L1617 947 L1617 946 L1617 945 L1617 944 L1616 943 L1616 942 L1616 941 L1616 940 L1615 939 L1615 938 L1615 937 L1615 936 L1614 935 L1614 934 L1614 933 L1614 932 L1613 931 L1613 930 L1613 929 L1613 928 L1612 927 L1612 926 L1612 925 L1611 924 L1611 923 L1611 922 L1611 921 L1610 920 L1610 919 L1610 918 L1610 917 L1609 916 L1609 915 L1609 914 L1609 913 L1608 912 L1608 911 L1608 910 L1608 909 L1607 908 L1607 907 L1607 906 L1606 905 L1606 904 L1606 903 L1606 902 L1605 901 L1605 900 L1605 899 L1605 898 L1604 897 L1604 896 L1604 895 L1604 894 L1603 893 L1603 892 L1603 891 L1603 890 L1602 889 L1602 888 L1602 887 L1602 886 L1601 885 L1601 884 L1601 883 L1601 882 L1601 881 L1600 880 L1600 879 L1600 878 L1600 877 L1599 876 L1599 875 L1599 874 L1599 873 L1599 872 L1599 871 L1598 870 L1598 869 L1598 868 L1598 867 L1598 866 L1597 865 L1597 864 L1597 863 L1597 862 L1597 861 L1597 860 L1596 859 L1596 858 L1596 857 L1596 856 L1596 855 L1596 854 L1595 853 L1595 852 L1595 851 L1595 850 L1595 849 L1595 848 L1595 847 L1594 846 L1594 845 L1594 844 L1594 843 L1594 842 L1594 841 L1593 840 L1593 839 L1593 838 L1593 837 L1593 836 L1593 835 L1592 834 L1592 833 L1592 832 L1592 831 L1592 830 L1592 829 L1591 828 L1591 827 L1591 826 L1591 825 L1591 824 L1590 823 L1590 822 L1590 821 L1590 820 L1589 819 L1589 818 L1589 817 L1589 816 L1588 815 L1588 814 L1588 813 L1588 812 L1587 811 L1587 810 L1587 809 L1586 808 L1586 807 L1586 806 L1585 805 L1585 804 L1585 803 L1584 802 L1584 801 L1584 800 L1583 799 L1583 798 L1583 797 L1582 796 L1582 795 L1581 794 L1581 793 L1580 792 L1580 791 L1580 790 L1579 789 L1579 788 L1578 787 L1578 786 L1578 785 L1577 784 L1577 783 L1577 782 L1576 781 L1576 780 L1576 779 L1575 778 L1575 777 L1575 776 L1575 775 L1574 774 L1574 773 L1574 772 L1573 771 L1573 770 L1573 769 L1573 768 L1572 767 L1572 766 L1572 765 L1572 764 L1572 763 L1571 762 L1571 761 L1571 760 L1571 759 L1571 758 L1570 757 L1570 756 L1570 755 L1570 754 L1570 753 L1570 752 L1570 751 L1569 750 L1569 749 L1569 748 L1569 747 L1569 746 L1569 745 L1569 744 L1569 743 L1568 742 L1568 741 L1568 740 L1568 739 L1568 738 L1568 737 L1568 736 L1568 735 L1567 734 L1567 733 L1567 732 L1567 731 L1567 730 L1567 729 L1567 728 L1567 727 L1567 726 L1566 725 L1566 724 L1566 723 L1566 722 L1566 721 L1566 720 L1566 719 L1566 718 L1565 717 L1565 716 L1565 715 L1565 714 L1565 713 L1565 712 L1565 711 L1565 710 L1564 709 L1564 708 L1564 707 L1564 706 L1564 705 L1564 704 L1563 703 L1563 702 L1563 701 L1563 700 L1563 699 L1563 698 L1562 697 L1562 696 L1562 695 L1562 694 L1561 693 L1561 692 L1561 691 L1560 690 L1560 689 L1560 688 L1560 687 L1559 686 L1559 685 L1559 684 L1558 683 L1558 682 L1558 681 L1557 680 L1557 679 L1557 678 L1556 677 L1556 676 L1556 675 L1555 674 L1555 673 L1555 672 L1554 671 L1554 670 L1554 669 L1553 668 L1553 667 L1552 666 L1552 665 L1552 664 L1551 663 L1551 662 L1551 661 L1550 660 L1550 659 L1550 658 L1549 657 L1549 656 L1549 655 L1548 654 L1548 653 L1548 652 L1548 651 L1547 650 L1547 649 L1547 648 L1546 647 L1546 646 L1546 645 L1546 644 L1545 643 L1545 642 L1545 641 L1545 640 L1545 639 L1544 638 L1544 637 L1544 636 L1544 635 L1544 634 L1543 633 L1543 632 L1543 631 L1543 630 L1543 629 L1542 628 L1542 627 L1542 626 L1542 625 L1542 624 L1542 623 L1541 622 L1541 621 L1541 620 L1541 619 L1541 618 L1540 617 L1540 616 L1540 615 L1540 614 L1540 613 L1540 612 L1539 611 L1539 610 L1539 609 L1539 608 L1539 607 L1539 606 L1538 605 L1538 604 L1538 603 L1538 602 L1538 601 L1538 600 L1538 599 L1537 598 L1537 597 L1537 596 L1537 595 L1537 594 L1537 593 L1536 592 L1536 591 L1536 590 L1536 589 L1536 588 L1536 587 L1535 586 L1535 585 L1535 584 L1535 583 L1535 582 L1534 581 L1534 580 L1534 579 L1534 578 L1533 577 L1533 576 L1533 575 L1533 574 L1532 573 L1532 572 L1531 571 L1531 570 L1531 569 L1530 568 L1530 567 L1529 566 L1529 565 L1528 564 L1527 563 L1526 562 L1525 561 L1525 560 L1524 559 L1523 558 L1522 557 L1521 556 L1520 555 L1519 554 L1518 553 L1517 553 L1516 552 L1515 551 L1514 550 L1513 549 L1512 549 L1511 548 L1510 547 L1509 547 L1508 546 L1507 546 L1506 545 L1505 545 L1504 545 L1503 544 L1502 544 L1501 544 L1500 543 L1499 543 L1498 543 L1497 542 L1496 542 L1495 542 L1494 541 L1493 541 L1492 541 L1491 541 L1490 540 L1489 540 L1488 540 L1487 540 L1486 539 L1485 539 L1484 539 L1483 539 L1482 539 L1481 538 L1480 538 L1479 538 L1478 538 L1477 538 L1476 538 L1475 538 L1474 537 L1473 537 L1472 537 L1471 537 L1470 537 L1469 537 L1468 537 L1467 537 L1466 537 L1465 537 L1464 537 L1463 537 L1462 537 L1461 537 L1460 537 L1459 537 L1458 537 L1457 537 L1456 538 L1455 538 L1454 538 L1453 538 L1452 538 L1451 538 L1450 538 L1449 538 L1448 538 L1447 538 L1446 538 L1445 538 L1444 538 L1443 538 L1442 538 L1441 538 L1440 538 L1439 538 L1438 538 L1437 538 L1436 538 L1435 538 L1434 538 L1433 538 L1432 538 L1431 538 L1430 538 L1429 539 L1428 539 L1427 539 L1426 539 L1425 539 L1424 539 L1423 539 L1422 539 L1421 539 L1420 539 L1419 539 L1418 539 L1417 539 L1416 539 L1415 539 L1414 539 L1413 539 L1412 539 L1411 539 L1410 539 L1409 539 L1408 539 L1407 539 L1406 539 L1405 539 L1404 539 L1403 539 L1402 539 L1401 539 L1400 539 L1399 539 L1398 539 L1397 539 L1396 539 L1395 539 L1394 539 L1393 539 L1392 539 L1391 539 L1390 539 L1389 539 L1388 539 L1387 539 L1386 539 L1385 539 L1384 539 L1383 539 L1382 539 L1381 539 L1380 539 L1379 539 L1378 539 L1377 539 L1376 539 L1375 539 L1374 539 L1373 539 L1372 539 L1371 539 L1370 539 L1369 539 L1368 539 L1367 539 L1366 539 L1365 539 L1364 539 L1363 539 L1362 539 L1361 539 L1360 539 L1359 539 L1358 539 L1357 539 L1356 539 L1355 539 L1354 539 L1353 539 L1352 539 L1351 539 L1350 539 L1349 539 L1348 539 L1347 539 L1346 539 L1345 539 L1344 539 L1343 539 L1342 539 L1341 539 L1340 539 L1339 539 L1338 539 L1337 539 L1336 539 L1335 539 L1334 539 L1333 539 L1332 539 L1331 539 L1330 539 L1329 539 L1328 539 L1327 539 L1326 539 L1325 540 L1324 540 L1323 540 L1322 540 L1321 540 L1320 540 L1319 540 L1318 540 L1317 540 L1316 540 L1315 540 L1314 540 L1313 540 L1312 540 L1311 541 L1310 541 L1309 541 L1308 541 L1307 542 L1306 542 L1305 543 L1304 543 L1303 544 L1302 544 L1301 545 L1300 545 L1299 546 L1298 547 L1297 548 L1296 548 L1295 549 L1294 550 L1293 551 L1292 552 L1291 553 L1290 554 L1290 555 L1289 556 L1288 557 L1287 558 L1287 559 L1287 560 L1286 561 L1286 562 L1286 563 L1285 564 L1285 565 L1285 566 L1285 567 L1285 568 L1285 569 L1285 570 L1285 571 L1285 572 L1286 573 L1286 574 L1286 575 L1287 576 L1287 577 L1288 578 L1288 579 L1289 580 L1290 581 L1291 582 L1292 583 L1293 584 L1294 585 L1295 586 L1296 586 L1297 587 L1298 587 L1299 588 L1300 589 L1301 589 L1302 590 L1303 590 L1304 591 L1305 591 L1306 591 L1307 592 L1308 592 L1309 592 L1310 592 L1311 592 L1312 593 L1313 593 L1314 593 L1315 593 L1316 593 L1317 593 L1318 594 L1319 594 L1320 594 L1321 594 L1322 594 L1323 594 L1324 594 L1325 594 L1326 595 L1327 595 L1328 595 L1329 595 L1330 595 L1331 595 L1332 595 L1333 595 L1334 595 L1335 595 L1336 595 L1337 595 L1338 595 L1339 595 L1340 595 L1341 595 L1342 595 L1343 595 L1344 595 L1345 595 L1346 595 L1347 595 L1348 595 L1349 595 L1350 595 L1351 595 L1352 595 L1353 595 L1354 595 L1355 595 L1356 595 L1357 595 L1358 595 L1359 595 L1360 595 L1361 595 L1362 595 L1363 595 L1364 595 L1365 595 L1366 595 L1367 595 L1368 595 L1369 595 L1370 595 L1371 595 L1372 595 L1373 595 L1374 595 L1375 596 L1376 596 L1377 596 L1378 596 L1379 596 L1380 596 L1381 596 L1382 596 L1383 596 L1384 596 L1385 596 L1386 596 L1387 596 L1388 596 L1389 596 L1390 596 L1391 596 L1392 596 L1393 596 L1394 596 L1395 596 L1396 596 L1397 596 L1398 596 L1399 596 L1400 596 L1401 596 L1402 596 L1403 596 L1404 596 L1405 596 L1406 596 L1407 596 L1408 596 L1409 596 L1410 596 L1411 596 L1412 596 L1413 596 L1414 596 L1415 596 L1416 596 L1417 596 L1418 596 L1419 596 L1420 596 L1421 596 L1422 596 L1423 596 L1424 596 L1425 596 L1426 596 L1427 596 L1428 596 L1429 597 L1430 597 L1431 597 L1432 597 L1433 597 L1434 597 L1435 597 L1436 597 L1437 597 L1438 597 L1439 597 L1440 597 L1441 597 L1442 597 L1443 597 L1444 597 L1445 597 L1446 597 L1447 597 L1448 597 L1449 597 L1450 597 L1451 597 L1452 597 L1453 597 L1454 597 L1455 597 L1456 597 L1457 597 L1458 598 L1459 598 L1460 599 L1461 599 L1462 600 L1463 600 L1464 601 L1465 601 L1466 602 L1467 603 L1468 603 L1469 604 L1470 605 L1471 606 L1471 607 L1472 608 L1473 609 L1474 610 L1474 611 L1475 612 L1475 613 L1476 614 L1477 615 L1477 616 L1478 617 L1478 618 L1478 619 L1479 620 L1479 621 L1480 622 L1480 623 L1480 624 L1481 625 L1481 626 L1481 627 L1481 628 L1482 629 L1482 630 L1482 631 L1483 632 L1483 633 L1483 634 L1483 635 L1484 636 L1484 637 L1484 638 L1484 639 L1485 640 L1485 641 L1485 642 L1485 643 L1486 644 L1486 645 L1486 646 L1486 647 L1487 648 L1487 649 L1487 650 L1488 651 L1488 652 L1488 653 L1488 654 L1489 655 L1489 656 L1489 657 L1489 658 L1490 659 L1490 660 L1490 661 L1491 662 L1491 663 L1491 664 L1491 665 L1492 666 L1492 667 L1492 668 L1493 669 L1493 670 L1493 671 L1494 672 L1494 673 L1494 674 L1494 675 L1495 676 L1495 677 L1495 678 L1496 679 L1496 680 L1496 681 L1496 682 L1497 683 L1497 684 L1497 685 L1498 686 L1498 687 L1498 688 L1498 689 L1499 690 L1499 691 L1499 692 L1499 693 L1500 694 L1500 695 L1500 696 L1500 697 L1501 698 L1501 699 L1501 700 L1501 701 L1501 702 L1502 703 L1502 704 L1502 705 L1502 706 L1503 707 L1503 708 L1503 709 L1503 710 L1503 711 L1504 712 L1504 713 L1504 714 L1504 715 L1505 716 L1505 717 L1505 718 L1505 719 L1505 720 L1506 721 L1506 722 L1506 723 L1506 724 L1506 725 L1506 726 L1507 727 L1507 728 L1507 729 L1507 730 L1507 731 L1508 732 L1508 733 L1508 734 L1508 735 L1508 736 L1509 737 L1509 738 L1509 739 L1509 740 L1509 741 L1509 742 L1510 743 L1510 744 L1510 745 L1510 746 L1510 747 L1511 748 L1511 749 L1511 750 L1511 751 L1511 752 L1511 753 L1512 754 L1512 755 L1512 756 L1512 757 L1512 758 L1513 759 L1513 760 L1513 761 L1513 762 L1513 763 L1514 764 L1514 765 L1514 766 L1514 767 L1514 768 L1515 769 L1515 770 L1515 771 L1516 772 L1516 773 L1516 774 L1516 775 L1517 776 L1517 777 L1517 778 L1517 779 L1518 780 L1518 781 L1518 782 L1518 783 L1519 784 L1519 785 L1519 786 L1520 787 L1520 788 L1520 789 L1521 790 L1521 791 L1521 792 L1521 793 L1522 794 L1522 795 L1522 796 L1523 797 L1523 798 L1523 799 L1523 800 L1524 801 L1524 802 L1524 803 L1525 804 L1525 805 L1525 806 L1525 807 L1526 808 L1526 809 L1526 810 L1526 811 L1527 812 L1527 813 L1527 814 L1527 815 L1528 816 L1528 817 L1528 818 L1528 819 L1529 820 L1529 821 L1529 822 L1529 823 L1530 824 L1530 825 L1530 826 L1530 827 L1530 828 L1531 829 L1531 830 L1531 831 L1531 832 L1531 833 L1531 834 L1532 835 L1532 836 L1532 837 L1532 838 L1532 839 L1532 840 L1533 841 L1533 842 L1533 843 L1533 844 L1533 845 L1533 846 L1533 847 L1533 848 L1534 849 L1534 850 L1534 851 L1534 852 L1534 853 L1534 854 L1535 855 L1535 856 L1535 857 L1535 858 L1535 859 L1535 860 L1536 861 L1536 862 L1536 863 L1536 864 L1536 865 L1537 866 L1537 867 L1537 868 L1537 869 L1537 870 L1538 871 L1538 872 L1538 873 L1538 874 L1538 875 L1539 876 L1539 877 L1539 878 L1539 879 L1540 880 L1540 881 L1540 882 L1540 883 L1541 884 L1541 885 L1541 886 L1541 887 L1542 888 L1542 889 L1542 890 L1543 891 L1543 892 L1543 893 L1543 894 L1544 895 L1544 896 L1544 897 L1544 898 L1545 899 L1545 900 L1545 901 L1545 902 L1546 903 L1546 904 L1546 905 L1546 906 L1547 907 L1547 908 L1547 909 L1547 910 L1548 911 L1548 912 L1548 913 L1548 914 L1548 915 L1549 916 L1549 917 L1549 918 L1549 919 L1550 920 L1550 921 L1550 922 L1550 923 L1550 924 L1551 925 L1551 926 L1551 927 L1551 928 L1551 929 L1552 930 L1552 931 L1552 932 L1552 933 L1553 934 L1553 935 L1553 936 L1553 937 L1554 938 L1554 939 L1554 940 L1555 941 L1555 942 L1555 943 L1556 944 L1556 945 L1556 946 L1557 947 L1557 948 L1558 949 L1558 950 L1558 951 L1559 952 L1559 953 L1559 954 L1560 955 L1560 956 L1560 957 L1561 958 L1561 959 L1561 960 L1561 961 L1562 962 L1562 963 L1562 964 L1562 965 L1562 966 L1561 967 L1561 968 L1561 969 L1561 970 L1560 971 L1560 972 L1559 973 L1559 974 L1558 975 L1558 976 L1557 977 L1556 978 L1555 979 L1554 980 L1553 981 L1552 982 L1551 983 L1550 983 L1549 984 L1548 984 L1547 985 L1546 985 L1545 986 L1544 986 L1543 986 L1542 987 L1541 987 L1540 987 L1539 987 L1538 987 L1537 988 L1536 988 L1535 988 L1534 988 L1533 988 L1532 988 L1531 989 L1530 989 L1529 989 L1528 989 L1527 989 L1526 989 L1525 989 L1524 989 L1523 989 L1522 989 L1521 989 L1520 989 L1519 989 L1518 989 L1517 989 L1516 989 L1515 989 L1514 989 L1513 989 L1512 989 L1511 989 L1510 989 L1509 989 L1508 989 L1507 989 L1506 989 L1505 989 L1504 989 L1503 989 L1502 989 L1501 989 L1500 989 L1499 989 L1498 990 L1497 990 L1496 990 L1495 990 L1494 990 L1493 990 L1492 990 L1491 990 L1490 990 L1489 990 L1488 990 L1487 990 L1486 990 L1485 990 L1484 990 L1483 990 L1482 990 L1481 990 L1480 990 L1479 990 L1478 990 L1477 990 L1476 990 L1475 990 L1474 990 L1473 990 L1472 990 L1471 990 L1470 990 L1469 990 L1468 990 L1467 990 L1466 990 L1465 990 L1464 990 L1463 990 L1462 990 L1461 990 L1460 990 L1459 990 L1458 990 L1457 990 L1456 990 L1455 990 L1454 990 L1453 990 L1452 990 L1451 990 L1450 990 L1449 990 L1448 990 L1447 990 L1446 990 L1445 990 L1444 990 L1443 990 L1442 990 L1441 990 L1440 990 L1439 990 L1438 990 L1437 990 L1436 990 L1435 990 L1434 990 L1433 990 L1432 990 L1431 990 L1430 990 L1429 990 L1428 990 L1427 990 L1426 990 L1425 990 L1424 990 L1423 990 L1422 990 L1421 990 L1420 990 L1419 990 L1418 990 L1417 991 L1416 991 L1415 991 L1414 991 L1413 991 L1412 991 L1411 991 L1410 991 L1409 991 L1408 991 L1407 991 L1406 991 L1405 991 L1404 991 L1403 991 L1402 991 L1401 991 L1400 991 L1399 991 L1398 991 L1397 991 L1396 991 L1395 991 L1394 991 L1393 991 L1392 991 L1391 991 L1390 991 L1389 991 L1388 991 L1387 991 L1386 991 L1385 991 L1384 991 L1383 990 L1382 990 L1381 990 L1380 991 L1379 991 L1378 991 L1377 991 L1376 991 L1375 991 L1374 991 L1373 991 L1372 991 L1371 991 L1370 991 L1369 991 L1368 991 L1367 991 L1366 991 L1365 991 L1364 991 L1363 991 L1362 991 L1361 991 L1360 991 L1359 991 L1358 991 L1357 991 L1356 991 L1355 991 L1354 991 L1353 991 L1352 991 L1351 991 L1350 991 L1349 991 L1348 991 L1347 991 L1346 991 L1345 991 L1344 991 L1343 990 L1342 990 L1341 990 L1340 990 L1339 990 L1338 990 L1337 990 L1336 990 L1335 990 L1334 990 L1333 990 L1332 990 L1331 990 L1330 990 L1329 990 L1328 989 L1327 989 L1326 989 L1325 989 L1324 989 L1323 989 L1322 989 L1321 989 L1320 989 L1319 989 L1318 989 L1317 989 L1316 988 L1315 988 L1314 988 L1313 988 L1312 988 L1311 988 L1310 988 L1309 988 L1308 988 L1307 988 L1306 988 L1305 988 L1304 988 L1303 988 L1302 988 L1301 988 L1300 988 L1299 988 L1298 988 L1297 988 L1296 988 L1295 988 L1294 988 L1293 988 L1292 988 L1291 988 L1290 988 L1289 989 L1288 989 L1287 989 L1286 989 L1285 989 L1284 989 L1283 989 L1282 989 L1281 989 L1280 989 L1279 989 L1278 989 L1277 989 L1276 989 L1275 989 L1274 989 L1273 989 L1272 989 L1271 989 L1270 989 L1269 989 L1268 989 L1267 989 L1266 989 L1265 989 L1264 989 L1263 989 L1262 989 L1261 989 L1260 989 L1259 989 L1258 989 L1257 989 L1256 989 L1255 989 L1254 989 L1253 989 L1252 989 L1251 989 L1250 988 L1249 988 L1248 988 L1247 988 L1246 988 L1245 988 L1244 988 L1243 988 L1242 988 L1241 988 L1240 988 L1239 988 L1238 988 L1237 988 L1236 988 L1235 988 L1234 988 L1233 988 L1232 988 L1231 988 L1230 988 L1229 988 L1228 988 L1227 988 L1226 988 L1225 988 L1224 988 L1223 988 L1222 988 L1221 988 L1220 988 L1219 988 L1218 988 L1217 988 L1216 988 L1215 988 L1214 988 L1213 988 L1212 988 L1211 988 L1210 988 L1209 988 L1208 988 L1207 988 L1206 988 L1205 988 L1204 988 L1203 988 L1202 989 L1201 989 L1200 989 L1199 989 L1198 989 L1197 989 L1196 989 L1195 989 L1194 989 L1193 989 L1192 989 L1191 989 L1190 989 L1189 989 L1188 989 L1187 989 L1186 989 L1185 988 L1184 989 L1183 989 L1182 989 L1181 989 L1180 989 L1179 989 L1178 989 L1177 989 L1176 989 L1175 989 L1174 989 L1173 989 L1172 989 L1171 989 L1170 989 L1169 989 L1168 989 L1167 988 L1166 989 L1165 989 L1164 989 L1163 989 L1162 989 L1161 989 L1160 989 L1159 989 L1158 989 L1157 989 L1156 989 L1155 989 L1154 989 L1153 989 L1152 989 L1151 989 L1150 989 L1149 989 L1148 989 L1147 989 L1146 989 L1145 989 L1144 989 L1143 989 L1142 989 L1141 989 L1140 989 L1139 989 L1138 989 L1137 989 L1136 989 L1135 989 L1134 989 L1133 989 L1132 989 L1131 989 L1130 989 L1129 989 L1128 989 L1127 989 L1126 989 L1125 989 L1124 989 L1123 989 L1122 989 L1121 989 L1120 989 L1119 989 L1118 989 L1117 989 L1116 989 L1115 989 L1114 989 L1113 989 L1112 989 L1111 989 L1110 989 L1109 989 L1108 989 L1107 989 L1106 989 L1105 989 L1104 989 L1103 989 L1102 989 L1101 989 L1100 989 L1099 989 L1098 989 L1097 989 L1096 989 L1095 989 L1094 989 L1093 989 L1092 989 L1091 989 L1090 989 L1089 989 L1088 989 L1087 989 L1086 989 L1085 989 L1084 989 L1083 989 L1082 989 L1081 989 L1080 989 L1079 989 L1078 989 L1077 989 L1076 989 L1075 989 L1074 989 L1073 989 L1072 989 L1071 989 L1070 989 L1069 989 L1068 989 L1067 989 L1066 989 L1065 989 L1064 989 L1063 989 L1062 989 L1061 989 L1060 989 L1059 989 L1058 989 L1057 989 L1056 989 L1055 989 L1054 989 L1053 989 L1052 989 L1051 989 L1050 989 L1049 989 L1048 989 L1047 989 L1046 989 L1045 989 L1044 989 L1043 989 L1042 989 L1041 989 L1040 989 L1039 990 L1038 990 L1037 990 L1036 990 L1035 990 L1034 990 L1033 990 L1032 990 L1031 990 L1030 990 L1029 990 L1028 990 L1027 990 L1026 990 L1025 990 L1024 990 L1023 990 L1022 990 L1021 990 L1020 990 L1019 990 L1018 990 L1017 990 L1016 990 L1015 990 L1014 990 L1013 990 L1012 990 L1011 990 L1010 989 L1009 989 L1008 989 L1007 990 L1006 990 L1005 990 L1004 990 L1003 990 L1002 990 L1001 990 L1000 990 L999 990 L998 990 L997 990 L996 990 L995 990 L994 990 L993 990 L992 990 L991 990 L990 990 L989 990 L988 990 L987 990 L986 990 L985 990 L984 990 L983 990 L982 990 L981 990 L980 990 L979 990 L978 990 L977 990 L976 990 L975 990 L974 990 L973 990 L972 990 L971 990 L970 990 L969 990 L968 990 L967 990 L966 990 L965 990 L964 990 L963 990 L962 990 L961 990 L960 990 L959 990 L958 990 L957 990 L956 990 L955 990 L954 990 L953 990 L952 990 L951 990 L950 990 L949 990 L948 990 L947 990 L946 990 L945 990 L944 990 L943 990 L942 990 L941 990 L940 990 L939 990 L938 990 L937 990 L936 990 L935 990 L934 990 L933 990 L932 990 L931 990 L930 990 L929 990 L928 990 L927 990 L926 990 L925 990 L924 990 L923 990 L922 990 L921 990 L920 990 L919 990 L918 990 L917 990 L916 990 L915 990 L914 990 L913 990 L912 990 L911 990 L910 990 L909 990 L908 990 L907 990 L906 990 L905 990 L904 990 L903 990 L902 990 L901 990 L900 990 L899 990 L898 990 L897 990 L896 990 L895 990 L894 990 L893 990 L892 990 L891 990 L890 990 L889 990 L888 990 L887 990 L886 990 L885 990 L884 990 L883 990 L882 990 L881 990 L880 990 L879 990 L878 990 L877 990 L876 990 L875 990 L874 990 L873 990 L872 990 L871 990 L870 990 L869 990 L868 990 L867 990 L866 990 L865 990 L864 990 L863 990 L862 990 L861 990 L860 990 L859 990 L858 990 L857 990 L856 990 L855 990 L854 990 L853 990 L852 990 L851 990 L850 990 L849 990 L848 990 L847 990 L846 990 L845 990 L844 990 L843 990 L842 990 L841 990 L840 990 L839 990 L838 990 L837 990 L836 990 L835 990 L834 990 L833 990 L832 990 L831 990 L830 990 L829 990 L828 990 L827 990 L826 990 L825 990 L824 990 L823 990 L822 990 L821 990 L820 990 L819 990 L818 990 L817 990 L816 990 L815 990 L814 990 L813 990 L812 990 L811 990 L810 990 L809 990 L808 990 L807 990 L806 990 L805 990 L804 990 L803 990 L802 990 L801 990 L800 990 L799 990 L798 990 L797 990 L796 990 L795 990 L794 990 L793 990 L792 990 L791 990 L790 990 L789 990 L788 990 L787 990 L786 990 L785 990 L784 990 L783 990 L782 990 L781 990 L780 990 L779 990 L778 990 L777 990 L776 990 L775 990 L774 990 L773 990 L772 990 L771 990 L770 990 L769 990 L768 990 L767 990 L766 990 L765 990 L764 990 L763 990 L762 990 L761 990 L760 990 L759 990 L758 990 L757 990 L756 990 L755 990 L754 990 L753 990 L752 990 L751 990 L750 990 L749 990 L748 990 L747 990 L746 990 L745 990 L744 990 L743 990 L742 990 L741 991 L740 991 L739 991 L738 991 L737 991 L736 991 L735 990 L734 991 L733 991 L732 991 L731 991 L730 991 L729 991 L728 991 L727 991 L726 991 L725 991 L724 991 L723 991 L722 990 L721 991 L720 991 L719 991 L718 991 L717 991 L716 991 L715 991 L714 991 L713 991 L712 991 L711 991 L710 991 L709 991 L708 991 L707 991 L706 991 L705 991 L704 991 L703 991 L702 991 L701 991 L700 991 L699 991 L698 991 L697 991 L696 991 L695 991 L694 991 L693 991 L692 991 L691 991 L690 991 L689 991 L688 991 L687 991 L686 991 L685 991 L684 991 L683 991 L682 991 L681 991 L680 991 L679 991 L678 991 L677 991 L676 991 L675 991 L674 991 L673 991 L672 991 L671 991 L670 991 L669 991 L668 991 L667 991 L666 991 L665 991 L664 991 L663 991 L662 991 L661 991 L660 991 L659 991 L658 991 L657 991 L656 991 L655 991 L654 991 L653 991 L652 991 L651 991 L650 991 L649 991 L648 991 L647 991 L646 991 L645 991 L644 991 L643 991 L642 991 L641 991 L640 991 L639 991 L638 991 L637 991 L636 991 L635 991 L634 991 L633 991 L632 991 L631 991 L630 991 L629 991 L628 991 L627 991 L626 991 L625 991 L624 991 L623 991 L622 991 L621 991 L620 991 L619 991 L618 991 L617 991 L616 991 L615 991 L614 991 L613 991 L612 991 L611 991 L610 991 L609 991 L608 991 L607 991 L606 991 L605 991 L604 991 L603 991 L602 991 L601 991 L600 991 L599 991 L598 991 L597 991 L596 991 L595 991 L594 991 L593 991 L592 991 L591 991 L590 991 L589 991 L588 991 L587 991 L586 991 L585 991 L584 991 L583 991 L582 991 L581 991 L580 991 L579 991 L578 991 L577 991 L576 991 L575 991 L574 991 L573 991 L572 991 L571 991 L570 991 L569 991 L568 991 L567 991 L566 991 L565 991 L564 991 L563 991 L562 991 L561 991 L560 991 L559 991 L558 991 L557 991 L556 991 L555 991 L554 991 L553 991 L552 991 L551 991 L550 991 L549 991 L548 991 L547 991 L546 991 L545 991 L544 991 L543 991 L542 991 L541 991 L540 991 L539 991 L538 991 L537 991 L536 991 L535 991 L534 991 L533 991 L532 991 L531 991 L530 991 L529 991 L528 991 L527 991 L526 991 L525 991 L524 991 L523 991 L522 991 L521 991 L520 991 L519 991 L518 991 L517 991 L516 991 L515 991 L514 991 L513 991 L512 991 L511 991 L510 990 L509 989 L508 989 L507 988 L506 987 L505 987 L504 986 L503 985 L502 984 L501 984 L500 983 L499 982 L499 981 L498 980 L497 979 L497 978 L496 977 L495 976 L495 975 L494 974 L494 973 L493 972 L493 971 L493 970 L492 969 L492 968 L492 967 L492 966 L492 965 L492 964 L492 963 L492 962 L492 961 L492 960 L492 959 L492 958 L492 957 L492 956 L492 955 L492 954 L492 953 L493 952 L493 951 L493 950 L493 949 L493 948 L493 947 L493 946 L494 945 L494 944 L494 943 L494 942 L494 941 L494 940 L495 939 L495 938 L495 937 L495 936 L495 935 L496 934 L496 933 L496 932 L496 931 L496 930 L496 929 L497 928 L497 927 L497 926 L497 925 L497 924 L498 923 L498 922 L498 921 L498 920 L498 919 L499 918 L499 917 L499 916 L499 915 L500 914 L500 913 L500 912 L500 911 L501 910 L501 909 L501 908 L501 907 L502 906 L502 905 L502 904 L502 903 L503 902 L503 901 L503 900 L504 899 L504 898 L504 897 L504 896 L505 895 L505 894 L505 893 L505 892 L506 891 L506 890 L506 889 L507 888 L507 887 L507 886 L507 885 L508 884 L508 883 L508 882 L508 881 L509 880 L509 879 L509 878 L509 877 L510 876 L510 875 L510 874 L510 873 L511 872 L511 871 L511 870 L511 869 L511 868 L512 867 L512 866 L512 865 L512 864 L513 863 L513 862 L513 861 L513 860 L514 859 L514 858 L514 857 L514 856 L514 855 L515 854 L515 853 L515 852 L515 851 L515 850 L516 849 L516 848 L516 847 L516 846 L516 845 L517 844 L517 843 L517 842 L517 841 L517 840 L518 839 L518 838 L518 837 L518 836 L518 835 L519 834 L519 833 L519 832 L519 831 L519 830 L520 829 L520 828 L520 827 L520 826 L520 825 L521 824 L521 823 L521 822 L521 821 L521 820 L522 819 L522 818 L522 817 L522 816 L522 815 L523 814 L523 813 L523 812 L523 811 L523 810 L523 809 L524 808 L524 807 L524 806 L524 805 L525 804 L525 803 L525 802 L525 801 L525 800 L526 799 L526 798 L526 797 L526 796 L527 795 L527 794 L527 793 L527 792 L528 791 L528 790 L528 789 L528 788 L529 787 L529 786 L529 785 L529 784 L530 783 L530 782 L530 781 L530 780 L531 779 L531 778 L531 777 L531 776 L532 775 L532 774 L532 773 L532 772 L533 771 L533 770 L533 769 L533 768 L534 767 L534 766 L534 765 L534 764 L535 763 L535 762 L535 761 L535 760 L536 759 L536 758 L536 757 L536 756 L536 755 L537 754 L537 753 L537 752 L537 751 L537 750 L538 749 L538 748 L538 747 L538 746 L538 745 L538 744 L539 743 L539 742 L539 741 L539 740 L539 739 L540 738 L540 737 L540 736 L540 735 L540 734 L540 733 L541 732 L541 731 L541 730 L541 729 L541 728 L541 727 L542 726 L542 725 L542 724 L542 723 L542 722 L542 721 L543 720 L543 719 L543 718 L543 717 L543 716 L544 715 L544 714 L544 713 L544 712 L544 711 L544 710 L545 709 L545 708 L545 707 L545 706 L545 705 L545 704 L546 703 L546 702 L546 701 L546 700 L546 699 L547 698 L547 697 L547 696 L547 695 L547 694 L547 693 L548 692 L548 691 L548 690 L548 689 L548 688 L549 687 L549 686 L549 685 L549 684 L549 683 L550 682 L550 681 L550 680 L550 679 L551 678 L551 677 L551 676 L551 675 L552 674 L552 673 L552 672 L553 671 L553 670 L553 669 L554 668 L554 667 L554 666 L555 665 L555 664 L555 663 L556 662 L556 661 L556 660 L557 659 L557 658 L557 657 L558 656 L558 655 L559 654 L559 653 L559 652 L560 651 L560 650 L560 649 L560 648 L561 647 L561 646 L561 645 L562 644 L562 643 L562 642 L563 641 L563 640 L563 639 L563 638 L564 637 L564 636 L564 635 L564 634 L565 633 L565 632 L565 631 L566 630 L566 629 L566 628 L567 627 L567 626 L568 625 L568 624 L568 623 L569 622 L569 621 L570 620 L570 619 L571 618 L572 617 L572 616 L573 615 L574 614 L575 613 L575 612 L576 611 L577 610 L578 609 L579 608 L580 607 L581 606 L582 606 L583 605 L584 604 L585 603 L586 603 L587 602 L588 601 L589 601 L590 601 L591 600 L592 600 L593 599 L594 599 L595 599 L596 599 L597 599 L598 598 L599 598 L600 598 L601 598 L602 598 L603 598 L604 598 L605 598 L606 598 L607 598 L608 598 L609 598 L610 597 L611 597 L612 597 L613 597 L614 597 L615 597 L616 597 L617 597 L618 597 L619 597 L620 597 L621 597 L622 597 L623 597 L624 597 L625 596 L626 596 L627 596 L628 596 L629 596 L630 596 L631 596 L632 596 L633 596 L634 596 L635 595 L636 595 L637 595 L638 595 L639 595 L640 595 L641 594 L642 594 L643 594 L644 593 L645 593 L646 593 L647 592 L648 592 L649 591 L650 591 L651 590 L652 590 L653 589 L654 588 L655 587 L656 587 L657 586 L658 585 L659 584 L660 583 L660 582 L661 581 L662 580 L662 579 L663 578 L663 577 L663 576 L663 575 L664 574 L664 573 L664 572 L664 571 L664 570 L664 569 L664 568 L664 567 L663 566 L663 565 L663 564 L663 563 L662 562 L662 561 L662 560 L661 559 L661 558 L661 557 L660 556 L660 555 L659 554 L658 553 L658 552 L657 551 L656 550 L655 549 L654 548 L654 547 L653 547 L652 546 L651 545 L650 544 L649 543 L648 543 L647 542 L646 541 L645 541 L644 541 L643 540 L642 540 L641 539 L640 539 L639 539 L638 539 L637 538 L636 538 L635 538 L634 538 L633 538 L632 538 L631 538 L630 538 L629 538 L628 537 L627 537 L626 537 L625 537 L624 537 L623 537 L622 537 L621 537 L620 537 L619 537 L618 537 L617 537 L616 537 L615 537 L614 537 L613 537 L612 537 L611 537 Z
M822 244 L821 245 L820 245 L819 245 L818 245 L817 245 L816 245 L815 245 L814 246 L813 246 L812 246 L811 246 L810 247 L809 247 L808 247 L807 247 L806 248 L805 248 L804 248 L803 249 L802 249 L801 249 L800 250 L799 250 L798 251 L797 251 L796 251 L795 252 L794 253 L793 253 L792 254 L791 254 L790 255 L789 255 L788 256 L787 256 L786 257 L785 258 L784 258 L783 259 L782 259 L781 260 L780 261 L779 261 L778 262 L777 263 L776 263 L775 264 L774 264 L773 265 L772 266 L771 266 L770 266 L769 267 L768 267 L767 268 L766 268 L765 269 L764 269 L763 269 L762 270 L761 270 L760 270 L759 271 L758 271 L757 271 L756 271 L755 271 L754 272 L753 272 L752 272 L751 272 L750 272 L749 272 L748 273 L747 273 L746 273 L745 273 L744 273 L743 273 L742 273 L741 274 L740 274 L739 274 L738 274 L737 274 L736 275 L735 275 L734 275 L733 275 L732 275 L731 276 L730 276 L729 276 L728 276 L727 277 L726 277 L725 277 L724 277 L723 277 L722 278 L721 278 L720 278 L719 279 L718 279 L717 279 L716 280 L715 280 L714 281 L713 281 L712 282 L711 282 L710 283 L709 283 L708 284 L707 284 L706 285 L705 286 L704 286 L703 287 L702 287 L701 288 L700 288 L699 289 L698 290 L697 290 L696 291 L695 292 L694 293 L693 293 L692 294 L691 295 L690 296 L689 297 L688 297 L687 298 L686 299 L685 300 L684 301 L684 302 L683 303 L682 304 L681 305 L680 306 L680 307 L680 308 L679 309 L679 310 L679 311 L679 312 L679 313 L679 314 L679 315 L679 316 L679 317 L679 318 L679 319 L680 320 L680 321 L680 322 L681 323 L681 324 L682 325 L683 326 L683 327 L684 328 L685 329 L686 330 L687 331 L688 332 L689 332 L690 333 L691 333 L692 334 L693 335 L694 335 L695 336 L696 336 L697 336 L698 337 L699 337 L700 337 L701 338 L702 338 L703 338 L704 338 L705 338 L706 338 L707 338 L708 338 L709 338 L710 338 L711 338 L712 338 L713 338 L714 338 L715 338 L716 338 L717 338 L718 338 L719 338 L720 338 L721 338 L722 338 L723 338 L724 338 L725 338 L726 338 L727 338 L728 337 L729 337 L730 337 L731 337 L732 337 L733 337 L734 337 L735 336 L736 336 L737 336 L738 336 L739 336 L740 336 L741 336 L742 335 L743 335 L744 335 L745 335 L746 335 L747 335 L748 335 L749 335 L750 335 L751 335 L752 335 L753 335 L754 335 L755 335 L756 336 L757 336 L758 336 L759 337 L760 337 L761 338 L762 339 L763 340 L764 341 L764 342 L765 343 L765 344 L766 345 L766 346 L766 347 L766 348 L767 349 L767 350 L767 351 L767 352 L767 353 L767 354 L767 355 L767 356 L766 357 L766 358 L766 359 L766 360 L766 361 L765 362 L765 363 L765 364 L764 365 L764 366 L764 367 L763 368 L763 369 L762 370 L762 371 L761 372 L761 373 L760 374 L760 375 L759 376 L759 377 L758 378 L758 379 L757 380 L757 381 L756 382 L755 383 L755 384 L754 385 L754 386 L753 387 L753 388 L752 389 L752 390 L751 391 L751 392 L751 393 L750 394 L750 395 L750 396 L749 397 L749 398 L749 399 L749 400 L748 401 L748 402 L748 403 L748 404 L747 405 L747 406 L747 407 L747 408 L747 409 L746 410 L746 411 L746 412 L746 413 L746 414 L745 415 L745 416 L745 417 L745 418 L745 419 L744 420 L744 421 L744 422 L744 423 L744 424 L743 425 L743 426 L743 427 L743 428 L742 429 L742 430 L742 431 L742 432 L742 433 L741 434 L741 435 L741 436 L741 437 L740 438 L740 439 L740 440 L740 441 L739 442 L739 443 L739 444 L738 445 L738 446 L738 447 L738 448 L737 449 L737 450 L737 451 L737 452 L736 453 L736 454 L736 455 L735 456 L735 457 L735 458 L734 459 L734 460 L734 461 L733 462 L733 463 L733 464 L732 465 L732 466 L732 467 L731 468 L731 469 L731 470 L731 471 L730 472 L730 473 L730 474 L729 475 L729 476 L729 477 L728 478 L728 479 L728 480 L728 481 L727 482 L727 483 L727 484 L726 485 L726 486 L726 487 L726 488 L725 489 L725 490 L725 491 L725 492 L724 493 L724 494 L724 495 L724 496 L723 497 L723 498 L723 499 L723 500 L723 501 L722 502 L722 503 L722 504 L722 505 L722 506 L722 507 L721 508 L721 509 L721 510 L721 511 L721 512 L721 513 L721 514 L720 515 L720 516 L720 517 L720 518 L720 519 L720 520 L720 521 L720 522 L720 523 L720 524 L720 525 L720 526 L719 527 L719 528 L719 529 L719 530 L719 531 L719 532 L719 533 L719 534 L719 535 L719 536 L719 537 L718 538 L718 539 L718 540 L718 541 L718 542 L718 543 L718 544 L718 545 L718 546 L717 547 L717 548 L717 549 L717 550 L717 551 L717 552 L717 553 L717 554 L716 555 L716 556 L716 557 L716 558 L716 559 L716 560 L716 561 L716 562 L715 563 L715 564 L715 565 L715 566 L715 567 L715 568 L715 569 L715 570 L715 571 L715 572 L715 573 L715 574 L715 575 L715 576 L715 577 L715 578 L715 579 L715 580 L715 581 L715 582 L716 583 L716 584 L716 585 L716 586 L716 587 L716 588 L716 589 L716 590 L717 591 L717 592 L717 593 L717 594 L717 595 L717 596 L717 597 L717 598 L717 599 L717 600 L717 601 L718 602 L718 603 L718 604 L718 605 L718 606 L718 607 L718 608 L718 609 L718 610 L718 611 L718 612 L718 613 L718 614 L718 615 L718 616 L718 617 L718 618 L718 619 L718 620 L718 621 L718 622 L718 623 L718 624 L718 625 L718 626 L718 627 L718 628 L719 629 L719 630 L719 631 L719 632 L719 633 L719 634 L719 635 L719 636 L720 637 L720 638 L720 639 L720 640 L720 641 L721 642 L721 643 L721 644 L721 645 L722 646 L722 647 L722 648 L722 649 L723 650 L723 651 L723 652 L724 653 L724 654 L724 655 L724 656 L725 657 L725 658 L725 659 L726 660 L726 661 L726 662 L727 663 L727 664 L727 665 L728 666 L728 667 L728 668 L729 669 L729 670 L729 671 L730 672 L730 673 L730 674 L730 675 L731 676 L731 677 L731 678 L732 679 L732 680 L732 681 L733 682 L733 683 L733 684 L734 685 L734 686 L734 687 L734 688 L735 689 L735 690 L735 691 L736 692 L736 693 L736 694 L736 695 L737 696 L737 697 L737 698 L737 699 L738 700 L738 701 L738 702 L738 703 L738 704 L739 705 L739 706 L739 707 L739 708 L740 709 L740 710 L740 711 L740 712 L740 713 L741 714 L741 715 L741 716 L741 717 L742 718 L742 719 L742 720 L742 721 L743 722 L743 723 L743 724 L743 725 L744 726 L744 727 L744 728 L744 729 L745 730 L745 731 L745 732 L745 733 L745 734 L746 735 L746 736 L746 737 L747 738 L747 739 L747 740 L747 741 L748 742 L748 743 L748 744 L749 745 L749 746 L749 747 L749 748 L750 749 L750 750 L750 751 L751 752 L751 753 L751 754 L752 755 L752 756 L753 757 L753 758 L754 759 L754 760 L754 761 L755 762 L755 763 L756 764 L756 765 L757 766 L757 767 L758 768 L758 769 L759 770 L759 771 L760 772 L760 773 L761 774 L761 775 L762 776 L762 777 L763 778 L763 779 L763 780 L764 781 L764 782 L765 783 L765 784 L765 785 L766 786 L766 787 L767 788 L767 789 L767 790 L768 791 L768 792 L769 793 L769 794 L769 795 L770 796 L770 797 L770 798 L771 799 L771 800 L772 801 L772 802 L772 803 L773 804 L773 805 L773 806 L774 807 L774 808 L775 809 L775 810 L775 811 L776 812 L776 813 L777 814 L777 815 L778 816 L779 817 L779 818 L780 819 L781 820 L781 821 L782 822 L783 823 L784 824 L785 825 L786 826 L786 827 L787 827 L788 828 L789 829 L790 830 L791 831 L792 831 L793 832 L794 832 L795 833 L796 834 L797 834 L798 834 L799 835 L800 835 L801 835 L802 836 L803 836 L804 836 L805 836 L806 836 L807 836 L808 836 L809 836 L810 836 L811 836 L812 836 L813 836 L814 835 L815 835 L816 835 L817 835 L818 834 L819 834 L820 834 L821 833 L822 833 L823 832 L824 831 L825 831 L826 830 L827 829 L828 828 L829 827 L829 826 L830 825 L830 824 L831 823 L831 822 L832 821 L832 820 L832 819 L833 818 L833 817 L833 816 L833 815 L833 814 L833 813 L833 812 L833 811 L833 810 L833 809 L833 808 L833 807 L833 806 L833 805 L833 804 L833 803 L832 802 L832 801 L832 800 L832 799 L832 798 L832 797 L832 796 L832 795 L832 794 L832 793 L831 792 L831 791 L831 790 L831 789 L830 788 L830 787 L830 786 L830 785 L829 784 L829 783 L829 782 L828 781 L828 780 L827 779 L827 778 L827 777 L826 776 L826 775 L826 774 L825 773 L825 772 L824 771 L824 770 L824 769 L823 768 L823 767 L822 766 L822 765 L821 764 L821 763 L821 762 L820 761 L820 760 L819 759 L819 758 L818 757 L818 756 L817 755 L817 754 L817 753 L816 752 L816 751 L815 750 L815 749 L814 748 L814 747 L813 746 L813 745 L812 744 L812 743 L812 742 L811 741 L811 740 L810 739 L810 738 L809 737 L809 736 L808 735 L808 734 L807 733 L807 732 L806 731 L806 730 L805 729 L805 728 L804 727 L804 726 L803 725 L803 724 L802 723 L802 722 L802 721 L801 720 L801 719 L800 718 L800 717 L799 716 L799 715 L799 714 L798 713 L798 712 L798 711 L798 710 L797 709 L797 708 L797 707 L797 706 L796 705 L796 704 L796 703 L796 702 L796 701 L795 700 L795 699 L795 698 L795 697 L794 696 L794 695 L794 694 L794 693 L794 692 L793 691 L793 690 L793 689 L793 688 L792 687 L792 686 L792 685 L791 684 L791 683 L791 682 L791 681 L790 680 L790 679 L790 678 L789 677 L789 676 L789 675 L788 674 L788 673 L788 672 L787 671 L787 670 L787 669 L786 668 L786 667 L786 666 L785 665 L785 664 L785 663 L784 662 L784 661 L784 660 L783 659 L783 658 L783 657 L782 656 L782 655 L782 654 L782 653 L781 652 L781 651 L781 650 L781 649 L781 648 L781 647 L780 646 L780 645 L780 644 L780 643 L780 642 L780 641 L780 640 L780 639 L780 638 L780 637 L780 636 L780 635 L780 634 L779 633 L779 632 L779 631 L779 630 L779 629 L779 628 L779 627 L779 626 L779 625 L779 624 L779 623 L779 622 L779 621 L779 620 L779 619 L779 618 L779 617 L779 616 L779 615 L778 614 L778 613 L778 612 L778 611 L778 610 L778 609 L778 608 L778 607 L778 606 L778 605 L778 604 L778 603 L778 602 L778 601 L778 600 L778 599 L777 598 L777 597 L777 596 L777 595 L777 594 L777 593 L777 592 L777 591 L777 590 L776 589 L776 588 L776 587 L776 586 L776 585 L776 584 L776 583 L776 582 L776 581 L776 580 L776 579 L775 578 L775 577 L775 576 L775 575 L775 574 L775 573 L775 572 L775 571 L775 570 L775 569 L775 568 L775 567 L775 566 L775 565 L775 564 L775 563 L775 562 L775 561 L775 560 L775 559 L775 558 L775 557 L775 556 L775 555 L775 554 L775 553 L775 552 L775 551 L775 550 L775 549 L775 548 L775 547 L775 546 L775 545 L775 544 L775 543 L775 542 L776 541 L776 540 L776 539 L776 538 L776 537 L776 536 L776 535 L776 534 L776 533 L776 532 L776 531 L776 530 L777 529 L777 528 L777 527 L777 526 L777 525 L777 524 L777 523 L777 522 L777 521 L778 520 L778 519 L778 518 L778 517 L778 516 L778 515 L778 514 L779 513 L779 512 L779 511 L779 510 L779 509 L780 508 L780 507 L780 506 L780 505 L780 504 L781 503 L781 502 L781 501 L781 500 L782 499 L782 498 L782 497 L782 496 L783 495 L783 494 L783 493 L783 492 L784 491 L784 490 L784 489 L784 488 L785 487 L785 486 L785 485 L786 484 L786 483 L786 482 L786 481 L787 480 L787 479 L787 478 L788 477 L788 476 L788 475 L788 474 L789 473 L789 472 L789 471 L790 470 L790 469 L790 468 L791 467 L791 466 L791 465 L791 464 L792 463 L792 462 L792 461 L793 460 L793 459 L793 458 L794 457 L794 456 L794 455 L794 454 L795 453 L795 452 L795 451 L796 450 L796 449 L796 448 L796 447 L797 446 L797 445 L797 444 L798 443 L798 442 L798 441 L798 440 L799 439 L799 438 L799 437 L800 436 L800 435 L800 434 L800 433 L801 432 L801 431 L801 430 L802 429 L802 428 L802 427 L803 426 L803 425 L803 424 L804 423 L804 422 L804 421 L804 420 L805 419 L805 418 L806 417 L806 416 L806 415 L807 414 L807 413 L808 412 L808 411 L809 410 L809 409 L810 408 L810 407 L811 406 L811 405 L812 404 L813 403 L813 402 L814 401 L815 400 L816 399 L817 398 L818 397 L819 396 L820 395 L821 394 L822 394 L823 393 L824 393 L825 393 L826 393 L827 393 L828 393 L829 393 L830 393 L831 393 L832 394 L833 394 L834 395 L835 396 L836 397 L837 398 L838 399 L838 400 L839 401 L839 402 L840 403 L841 404 L841 405 L842 406 L842 407 L842 408 L843 409 L843 410 L843 411 L844 412 L844 413 L844 414 L845 415 L845 416 L845 417 L846 418 L846 419 L847 420 L847 421 L848 422 L849 423 L849 424 L850 425 L851 426 L852 427 L853 428 L854 429 L855 430 L856 431 L857 432 L858 433 L859 434 L860 435 L861 435 L862 436 L863 437 L864 437 L865 438 L866 438 L867 439 L868 439 L869 440 L870 440 L871 440 L872 440 L873 440 L874 440 L875 439 L876 439 L877 439 L878 439 L879 438 L880 438 L881 437 L882 436 L883 436 L884 435 L885 434 L886 433 L887 432 L888 431 L888 430 L889 429 L890 428 L891 427 L891 426 L892 425 L892 424 L893 423 L893 422 L894 421 L894 420 L894 419 L895 418 L895 417 L896 416 L896 415 L896 414 L896 413 L897 412 L897 411 L897 410 L897 409 L897 408 L898 407 L898 406 L898 405 L898 404 L898 403 L898 402 L898 401 L898 400 L898 399 L898 398 L898 397 L898 396 L898 395 L898 394 L898 393 L898 392 L898 391 L898 390 L897 389 L897 388 L897 387 L897 386 L897 385 L896 384 L896 383 L896 382 L896 381 L896 380 L895 379 L895 378 L895 377 L895 376 L895 375 L895 374 L894 373 L894 372 L894 371 L894 370 L894 369 L894 368 L893 367 L893 366 L893 365 L893 364 L893 363 L893 362 L893 361 L892 360 L892 359 L892 358 L892 357 L892 356 L892 355 L892 354 L892 353 L891 352 L891 351 L891 350 L891 349 L891 348 L891 347 L891 346 L891 345 L891 344 L890 343 L890 342 L890 341 L890 340 L890 339 L890 338 L890 337 L890 336 L889 335 L889 334 L889 333 L889 332 L889 331 L889 330 L889 329 L889 328 L888 327 L888 326 L888 325 L888 324 L888 323 L888 322 L888 321 L888 320 L887 319 L887 318 L887 317 L887 316 L887 315 L887 314 L887 313 L886 312 L886 311 L886 310 L886 309 L886 308 L886 307 L886 306 L885 305 L885 304 L885 303 L885 302 L885 301 L885 300 L885 299 L884 298 L884 297 L884 296 L884 295 L884 294 L884 293 L884 292 L883 291 L883 290 L883 289 L883 288 L883 287 L883 286 L883 285 L882 284 L882 283 L882 282 L882 281 L882 280 L881 279 L881 278 L881 277 L881 276 L881 275 L880 274 L880 273 L880 272 L880 271 L879 270 L879 269 L879 268 L878 267 L878 266 L878 265 L877 264 L877 263 L876 262 L875 261 L875 260 L874 259 L873 258 L873 257 L872 256 L871 255 L870 255 L869 254 L868 253 L867 252 L866 252 L865 251 L864 250 L863 250 L862 249 L861 249 L860 248 L859 248 L858 247 L857 247 L856 247 L855 246 L854 246 L853 246 L852 246 L851 246 L850 246 L849 245 L848 245 L847 245 L846 245 L845 245 L844 245 L843 245 L842 245 L841 245 L840 245 L839 244 L838 244 L837 244 L836 244 L835 244 L834 244 L833 244 L832 244 L831 244 L830 244 L829 244 L828 244 L827 244 L826 244 L825 244 L824 244 L823 244 Z
M1297 1103 L1296 1104 L1295 1104 L1294 1104 L1293 1105 L1292 1105 L1291 1106 L1290 1107 L1289 1107 L1288 1108 L1287 1109 L1286 1109 L1285 1110 L1284 1111 L1283 1112 L1282 1113 L1281 1114 L1281 1115 L1280 1116 L1279 1117 L1279 1118 L1278 1119 L1277 1120 L1277 1121 L1276 1122 L1276 1123 L1275 1124 L1275 1125 L1275 1126 L1274 1127 L1274 1128 L1274 1129 L1274 1130 L1273 1131 L1273 1132 L1273 1133 L1273 1134 L1272 1135 L1272 1136 L1272 1137 L1272 1138 L1272 1139 L1271 1140 L1271 1141 L1271 1142 L1271 1143 L1271 1144 L1271 1145 L1271 1146 L1270 1147 L1270 1148 L1270 1149 L1270 1150 L1270 1151 L1270 1152 L1270 1153 L1270 1154 L1269 1155 L1269 1156 L1269 1157 L1269 1158 L1269 1159 L1269 1160 L1269 1161 L1269 1162 L1269 1163 L1268 1164 L1268 1165 L1268 1166 L1268 1167 L1268 1168 L1268 1169 L1268 1170 L1267 1171 L1267 1172 L1267 1173 L1267 1174 L1267 1175 L1266 1176 L1266 1177 L1266 1178 L1266 1179 L1265 1180 L1265 1181 L1265 1182 L1265 1183 L1264 1184 L1264 1185 L1264 1186 L1264 1187 L1263 1188 L1263 1189 L1263 1190 L1263 1191 L1262 1192 L1262 1193 L1262 1194 L1262 1195 L1261 1196 L1261 1197 L1261 1198 L1261 1199 L1260 1200 L1260 1201 L1260 1202 L1260 1203 L1259 1204 L1259 1205 L1259 1206 L1259 1207 L1259 1208 L1258 1209 L1258 1210 L1258 1211 L1258 1212 L1258 1213 L1257 1214 L1257 1215 L1257 1216 L1257 1217 L1257 1218 L1256 1219 L1256 1220 L1256 1221 L1256 1222 L1256 1223 L1255 1224 L1255 1225 L1255 1226 L1255 1227 L1255 1228 L1254 1229 L1254 1230 L1254 1231 L1254 1232 L1254 1233 L1253 1234 L1253 1235 L1253 1236 L1253 1237 L1253 1238 L1252 1239 L1252 1240 L1252 1241 L1252 1242 L1252 1243 L1251 1244 L1251 1245 L1251 1246 L1251 1247 L1251 1248 L1250 1249 L1250 1250 L1250 1251 L1250 1252 L1250 1253 L1250 1254 L1249 1255 L1249 1256 L1249 1257 L1249 1258 L1249 1259 L1248 1260 L1248 1261 L1248 1262 L1248 1263 L1247 1264 L1247 1265 L1247 1266 L1247 1267 L1247 1268 L1246 1269 L1246 1270 L1246 1271 L1246 1272 L1245 1273 L1245 1274 L1245 1275 L1245 1276 L1244 1277 L1244 1278 L1244 1279 L1243 1280 L1243 1281 L1242 1282 L1242 1283 L1241 1284 L1241 1285 L1240 1286 L1239 1287 L1239 1288 L1238 1289 L1237 1290 L1236 1291 L1235 1292 L1235 1293 L1234 1294 L1233 1295 L1232 1296 L1231 1297 L1230 1298 L1229 1299 L1228 1300 L1227 1301 L1226 1302 L1225 1303 L1224 1303 L1223 1304 L1222 1305 L1221 1306 L1220 1307 L1219 1307 L1218 1307 L1217 1307 L1216 1307 L1215 1307 L1214 1307 L1213 1306 L1212 1306 L1211 1305 L1210 1304 L1209 1303 L1209 1302 L1208 1301 L1208 1300 L1207 1299 L1206 1298 L1206 1297 L1205 1296 L1205 1295 L1205 1294 L1204 1293 L1204 1292 L1204 1291 L1203 1290 L1203 1289 L1203 1288 L1202 1287 L1202 1286 L1202 1285 L1202 1284 L1201 1283 L1201 1282 L1201 1281 L1201 1280 L1200 1279 L1200 1278 L1200 1277 L1200 1276 L1199 1275 L1199 1274 L1199 1273 L1199 1272 L1198 1271 L1198 1270 L1198 1269 L1197 1268 L1197 1267 L1197 1266 L1196 1265 L1196 1264 L1196 1263 L1195 1262 L1194 1261 L1194 1260 L1193 1259 L1192 1258 L1192 1257 L1191 1257 L1190 1256 L1189 1255 L1188 1254 L1187 1254 L1186 1253 L1185 1253 L1184 1252 L1183 1252 L1182 1252 L1181 1252 L1180 1251 L1179 1251 L1178 1251 L1177 1251 L1176 1251 L1175 1251 L1174 1251 L1173 1251 L1172 1252 L1171 1252 L1170 1252 L1169 1252 L1168 1253 L1167 1253 L1166 1254 L1165 1255 L1164 1255 L1163 1256 L1162 1257 L1161 1258 L1160 1259 L1159 1260 L1158 1261 L1158 1262 L1157 1263 L1156 1264 L1156 1265 L1155 1266 L1155 1267 L1154 1268 L1153 1269 L1153 1270 L1153 1271 L1152 1272 L1152 1273 L1151 1274 L1151 1275 L1151 1276 L1151 1277 L1151 1278 L1150 1279 L1150 1280 L1150 1281 L1150 1282 L1150 1283 L1150 1284 L1150 1285 L1150 1286 L1150 1287 L1150 1288 L1150 1289 L1150 1290 L1150 1291 L1150 1292 L1151 1293 L1151 1294 L1151 1295 L1151 1296 L1151 1297 L1151 1298 L1151 1299 L1152 1300 L1152 1301 L1152 1302 L1152 1303 L1152 1304 L1153 1305 L1153 1306 L1153 1307 L1153 1308 L1153 1309 L1153 1310 L1154 1311 L1154 1312 L1154 1313 L1154 1314 L1154 1315 L1154 1316 L1155 1317 L1155 1318 L1155 1319 L1155 1320 L1155 1321 L1155 1322 L1155 1323 L1155 1324 L1156 1325 L1156 1326 L1156 1327 L1156 1328 L1156 1329 L1156 1330 L1156 1331 L1156 1332 L1156 1333 L1156 1334 L1156 1335 L1157 1336 L1157 1337 L1157 1338 L1157 1339 L1157 1340 L1157 1341 L1157 1342 L1157 1343 L1157 1344 L1157 1345 L1158 1346 L1158 1347 L1158 1348 L1158 1349 L1158 1350 L1158 1351 L1158 1352 L1158 1353 L1159 1354 L1159 1355 L1159 1356 L1159 1357 L1159 1358 L1159 1359 L1159 1360 L1160 1361 L1160 1362 L1160 1363 L1160 1364 L1160 1365 L1160 1366 L1161 1367 L1161 1368 L1161 1369 L1161 1370 L1161 1371 L1161 1372 L1162 1373 L1162 1374 L1162 1375 L1162 1376 L1162 1377 L1162 1378 L1163 1379 L1163 1380 L1163 1381 L1163 1382 L1163 1383 L1164 1384 L1164 1385 L1164 1386 L1164 1387 L1164 1388 L1165 1389 L1165 1390 L1165 1391 L1165 1392 L1165 1393 L1166 1394 L1166 1395 L1166 1396 L1166 1397 L1166 1398 L1167 1399 L1167 1400 L1167 1401 L1167 1402 L1168 1403 L1168 1404 L1168 1405 L1168 1406 L1168 1407 L1169 1408 L1169 1409 L1169 1410 L1169 1411 L1170 1412 L1170 1413 L1170 1414 L1170 1415 L1171 1416 L1171 1417 L1171 1418 L1172 1419 L1172 1420 L1173 1421 L1173 1422 L1174 1423 L1174 1424 L1175 1425 L1176 1426 L1176 1427 L1177 1428 L1178 1429 L1179 1430 L1180 1431 L1180 1432 L1181 1433 L1182 1434 L1183 1435 L1184 1435 L1185 1436 L1186 1437 L1187 1438 L1188 1438 L1189 1439 L1190 1440 L1191 1440 L1192 1441 L1193 1441 L1194 1442 L1195 1442 L1196 1443 L1197 1443 L1198 1444 L1199 1444 L1200 1444 L1201 1445 L1202 1445 L1203 1445 L1204 1445 L1205 1445 L1206 1446 L1207 1446 L1208 1446 L1209 1446 L1210 1446 L1211 1446 L1212 1446 L1213 1446 L1214 1446 L1215 1446 L1216 1446 L1217 1445 L1218 1445 L1219 1445 L1220 1445 L1221 1445 L1222 1444 L1223 1444 L1224 1444 L1225 1443 L1226 1443 L1227 1443 L1228 1442 L1229 1442 L1230 1442 L1231 1441 L1232 1441 L1233 1441 L1234 1441 L1235 1440 L1236 1440 L1237 1440 L1238 1439 L1239 1439 L1240 1439 L1241 1439 L1242 1438 L1243 1438 L1244 1438 L1245 1437 L1246 1437 L1247 1437 L1248 1437 L1249 1436 L1250 1436 L1251 1436 L1252 1436 L1253 1435 L1254 1435 L1255 1435 L1256 1435 L1257 1434 L1258 1434 L1259 1434 L1260 1433 L1261 1433 L1262 1433 L1263 1433 L1264 1432 L1265 1432 L1266 1431 L1267 1431 L1268 1431 L1269 1430 L1270 1430 L1271 1430 L1272 1429 L1273 1429 L1274 1429 L1275 1428 L1276 1428 L1277 1427 L1278 1427 L1279 1426 L1280 1426 L1281 1426 L1282 1425 L1283 1425 L1284 1424 L1285 1424 L1286 1423 L1287 1423 L1288 1422 L1289 1422 L1290 1421 L1291 1421 L1292 1420 L1293 1420 L1294 1419 L1295 1419 L1296 1419 L1297 1418 L1298 1418 L1299 1417 L1300 1417 L1301 1417 L1302 1416 L1303 1416 L1304 1415 L1305 1415 L1306 1415 L1307 1415 L1308 1414 L1309 1414 L1310 1414 L1311 1413 L1312 1413 L1313 1413 L1314 1413 L1315 1412 L1316 1412 L1317 1412 L1318 1412 L1319 1411 L1320 1411 L1321 1411 L1322 1411 L1323 1411 L1324 1410 L1325 1410 L1326 1410 L1327 1410 L1328 1409 L1329 1409 L1330 1409 L1331 1409 L1332 1408 L1333 1408 L1334 1408 L1335 1408 L1336 1408 L1337 1408 L1338 1407 L1339 1407 L1340 1407 L1341 1407 L1342 1406 L1343 1406 L1344 1406 L1345 1405 L1346 1405 L1347 1405 L1348 1405 L1349 1404 L1350 1404 L1351 1404 L1352 1403 L1353 1403 L1354 1402 L1355 1402 L1356 1401 L1357 1400 L1358 1400 L1359 1399 L1360 1398 L1361 1397 L1362 1396 L1363 1395 L1364 1394 L1364 1393 L1365 1392 L1366 1391 L1366 1390 L1367 1389 L1367 1388 L1368 1387 L1368 1386 L1369 1385 L1369 1384 L1370 1383 L1370 1382 L1370 1381 L1370 1380 L1371 1379 L1371 1378 L1371 1377 L1371 1376 L1371 1375 L1371 1374 L1371 1373 L1371 1372 L1371 1371 L1371 1370 L1371 1369 L1371 1368 L1370 1367 L1370 1366 L1369 1365 L1369 1364 L1368 1363 L1368 1362 L1367 1361 L1367 1360 L1366 1359 L1365 1358 L1364 1357 L1363 1356 L1362 1355 L1361 1354 L1360 1353 L1359 1352 L1358 1351 L1357 1351 L1356 1350 L1355 1349 L1354 1349 L1353 1348 L1352 1348 L1351 1348 L1350 1348 L1349 1348 L1348 1348 L1347 1348 L1346 1348 L1345 1348 L1344 1348 L1343 1348 L1342 1348 L1341 1348 L1340 1349 L1339 1349 L1338 1349 L1337 1349 L1336 1349 L1335 1349 L1334 1349 L1333 1350 L1332 1350 L1331 1350 L1330 1350 L1329 1350 L1328 1351 L1327 1351 L1326 1351 L1325 1351 L1324 1351 L1323 1351 L1322 1352 L1321 1352 L1320 1352 L1319 1352 L1318 1352 L1317 1352 L1316 1352 L1315 1353 L1314 1353 L1313 1353 L1312 1353 L1311 1353 L1310 1353 L1309 1353 L1308 1353 L1307 1352 L1306 1352 L1305 1352 L1304 1352 L1303 1352 L1302 1351 L1301 1351 L1300 1350 L1299 1350 L1298 1349 L1297 1349 L1296 1348 L1295 1347 L1294 1346 L1293 1345 L1292 1344 L1291 1343 L1291 1342 L1290 1341 L1290 1340 L1289 1339 L1289 1338 L1288 1337 L1288 1336 L1288 1335 L1287 1334 L1287 1333 L1287 1332 L1287 1331 L1287 1330 L1287 1329 L1287 1328 L1287 1327 L1287 1326 L1287 1325 L1288 1324 L1288 1323 L1288 1322 L1288 1321 L1289 1320 L1289 1319 L1289 1318 L1290 1317 L1290 1316 L1290 1315 L1291 1314 L1291 1313 L1291 1312 L1292 1311 L1292 1310 L1292 1309 L1293 1308 L1293 1307 L1294 1306 L1294 1305 L1294 1304 L1295 1303 L1295 1302 L1295 1301 L1296 1300 L1296 1299 L1297 1298 L1297 1297 L1298 1296 L1298 1295 L1298 1294 L1299 1293 L1299 1292 L1300 1291 L1300 1290 L1300 1289 L1301 1288 L1301 1287 L1302 1286 L1302 1285 L1302 1284 L1303 1283 L1303 1282 L1304 1281 L1304 1280 L1304 1279 L1305 1278 L1305 1277 L1305 1276 L1306 1275 L1306 1274 L1306 1273 L1306 1272 L1307 1271 L1307 1270 L1307 1269 L1307 1268 L1308 1267 L1308 1266 L1308 1265 L1308 1264 L1308 1263 L1309 1262 L1309 1261 L1309 1260 L1309 1259 L1309 1258 L1310 1257 L1310 1256 L1310 1255 L1310 1254 L1311 1253 L1311 1252 L1311 1251 L1311 1250 L1311 1249 L1312 1248 L1312 1247 L1312 1246 L1312 1245 L1312 1244 L1312 1243 L1313 1242 L1313 1241 L1313 1240 L1313 1239 L1313 1238 L1314 1237 L1314 1236 L1314 1235 L1314 1234 L1314 1233 L1314 1232 L1315 1231 L1315 1230 L1315 1229 L1315 1228 L1315 1227 L1316 1226 L1316 1225 L1316 1224 L1316 1223 L1316 1222 L1316 1221 L1317 1220 L1317 1219 L1317 1218 L1317 1217 L1317 1216 L1317 1215 L1318 1214 L1318 1213 L1318 1212 L1318 1211 L1318 1210 L1318 1209 L1318 1208 L1319 1207 L1319 1206 L1319 1205 L1319 1204 L1319 1203 L1319 1202 L1320 1201 L1320 1200 L1320 1199 L1320 1198 L1320 1197 L1320 1196 L1320 1195 L1321 1194 L1321 1193 L1321 1192 L1321 1191 L1321 1190 L1321 1189 L1322 1188 L1322 1187 L1322 1186 L1322 1185 L1322 1184 L1322 1183 L1322 1182 L1322 1181 L1323 1180 L1323 1179 L1323 1178 L1323 1177 L1323 1176 L1323 1175 L1323 1174 L1323 1173 L1324 1172 L1324 1171 L1324 1170 L1324 1169 L1324 1168 L1324 1167 L1324 1166 L1325 1165 L1325 1164 L1325 1163 L1325 1162 L1325 1161 L1325 1160 L1325 1159 L1325 1158 L1326 1157 L1326 1156 L1326 1155 L1326 1154 L1326 1153 L1326 1152 L1326 1151 L1326 1150 L1326 1149 L1326 1148 L1327 1147 L1327 1146 L1327 1145 L1327 1144 L1327 1143 L1327 1142 L1327 1141 L1326 1140 L1326 1139 L1326 1138 L1326 1137 L1326 1136 L1326 1135 L1326 1134 L1325 1133 L1325 1132 L1325 1131 L1325 1130 L1325 1129 L1325 1128 L1324 1127 L1324 1126 L1324 1125 L1323 1124 L1323 1123 L1323 1122 L1322 1121 L1322 1120 L1321 1119 L1321 1118 L1320 1117 L1319 1116 L1319 1115 L1318 1114 L1317 1113 L1317 1112 L1316 1111 L1315 1110 L1314 1109 L1313 1108 L1312 1107 L1311 1106 L1310 1106 L1309 1105 L1308 1105 L1307 1104 L1306 1104 L1305 1103 L1304 1103 L1303 1103 L1302 1103 L1301 1103 L1300 1103 L1299 1103 L1298 1103 Z
M1224 246 L1223 247 L1222 247 L1221 247 L1220 248 L1219 248 L1218 249 L1217 249 L1216 249 L1215 250 L1214 250 L1213 251 L1212 252 L1211 253 L1210 253 L1209 254 L1208 255 L1207 256 L1206 257 L1206 258 L1205 259 L1204 260 L1204 261 L1203 262 L1202 263 L1202 264 L1201 265 L1200 266 L1200 267 L1199 268 L1199 269 L1198 270 L1198 271 L1197 272 L1196 273 L1196 274 L1195 275 L1195 276 L1195 277 L1194 278 L1194 279 L1193 280 L1193 281 L1192 282 L1192 283 L1191 284 L1191 285 L1190 286 L1190 287 L1189 288 L1189 289 L1188 290 L1188 291 L1188 292 L1187 293 L1187 294 L1186 295 L1186 296 L1185 297 L1185 298 L1185 299 L1184 300 L1184 301 L1183 302 L1183 303 L1182 304 L1182 305 L1181 306 L1181 307 L1180 308 L1180 309 L1179 310 L1179 311 L1179 312 L1178 313 L1178 314 L1177 315 L1177 316 L1176 317 L1176 318 L1175 319 L1175 320 L1174 321 L1174 322 L1174 323 L1173 324 L1173 325 L1172 326 L1172 327 L1171 328 L1171 329 L1170 330 L1170 331 L1169 332 L1169 333 L1169 334 L1168 335 L1168 336 L1167 337 L1167 338 L1166 339 L1166 340 L1166 341 L1165 342 L1165 343 L1164 344 L1164 345 L1164 346 L1163 347 L1163 348 L1163 349 L1162 350 L1162 351 L1162 352 L1161 353 L1161 354 L1161 355 L1160 356 L1160 357 L1160 358 L1159 359 L1159 360 L1159 361 L1158 362 L1158 363 L1158 364 L1157 365 L1157 366 L1157 367 L1156 368 L1156 369 L1156 370 L1155 371 L1155 372 L1155 373 L1154 374 L1154 375 L1153 376 L1153 377 L1153 378 L1152 379 L1152 380 L1152 381 L1151 382 L1151 383 L1151 384 L1150 385 L1150 386 L1150 387 L1149 388 L1149 389 L1149 390 L1148 391 L1148 392 L1148 393 L1147 394 L1147 395 L1147 396 L1147 397 L1146 398 L1146 399 L1146 400 L1146 401 L1145 402 L1145 403 L1145 404 L1145 405 L1145 406 L1144 407 L1144 408 L1144 409 L1144 410 L1143 411 L1143 412 L1143 413 L1143 414 L1143 415 L1142 416 L1142 417 L1142 418 L1142 419 L1142 420 L1142 421 L1141 422 L1141 423 L1141 424 L1141 425 L1141 426 L1141 427 L1140 428 L1140 429 L1140 430 L1140 431 L1140 432 L1139 433 L1139 434 L1139 435 L1139 436 L1139 437 L1139 438 L1138 439 L1138 440 L1138 441 L1138 442 L1138 443 L1137 444 L1137 445 L1137 446 L1137 447 L1137 448 L1137 449 L1136 450 L1136 451 L1136 452 L1136 453 L1136 454 L1135 455 L1135 456 L1135 457 L1135 458 L1135 459 L1134 460 L1134 461 L1134 462 L1134 463 L1134 464 L1133 465 L1133 466 L1133 467 L1133 468 L1133 469 L1132 470 L1132 471 L1132 472 L1132 473 L1132 474 L1132 475 L1131 476 L1131 477 L1131 478 L1131 479 L1131 480 L1131 481 L1130 482 L1130 483 L1130 484 L1130 485 L1130 486 L1130 487 L1129 488 L1129 489 L1129 490 L1129 491 L1129 492 L1129 493 L1129 494 L1129 495 L1128 496 L1128 497 L1128 498 L1128 499 L1128 500 L1128 501 L1128 502 L1127 503 L1127 504 L1127 505 L1127 506 L1127 507 L1127 508 L1127 509 L1127 510 L1126 511 L1126 512 L1126 513 L1126 514 L1126 515 L1125 516 L1125 517 L1125 518 L1125 519 L1125 520 L1125 521 L1124 522 L1124 523 L1124 524 L1124 525 L1124 526 L1123 527 L1123 528 L1123 529 L1123 530 L1123 531 L1123 532 L1122 533 L1122 534 L1122 535 L1122 536 L1122 537 L1121 538 L1121 539 L1121 540 L1121 541 L1121 542 L1121 543 L1120 544 L1120 545 L1120 546 L1120 547 L1120 548 L1120 549 L1119 550 L1119 551 L1119 552 L1119 553 L1119 554 L1119 555 L1119 556 L1118 557 L1118 558 L1118 559 L1118 560 L1118 561 L1118 562 L1118 563 L1118 564 L1118 565 L1117 566 L1117 567 L1117 568 L1117 569 L1117 570 L1117 571 L1117 572 L1117 573 L1117 574 L1117 575 L1117 576 L1117 577 L1117 578 L1117 579 L1118 580 L1118 581 L1118 582 L1118 583 L1118 584 L1118 585 L1118 586 L1118 587 L1118 588 L1118 589 L1118 590 L1119 591 L1119 592 L1119 593 L1119 594 L1119 595 L1119 596 L1119 597 L1119 598 L1120 599 L1120 600 L1120 601 L1120 602 L1120 603 L1120 604 L1120 605 L1121 606 L1121 607 L1121 608 L1121 609 L1121 610 L1121 611 L1122 612 L1122 613 L1122 614 L1122 615 L1122 616 L1122 617 L1123 618 L1123 619 L1123 620 L1123 621 L1123 622 L1123 623 L1124 624 L1124 625 L1124 626 L1124 627 L1124 628 L1125 629 L1125 630 L1125 631 L1125 632 L1125 633 L1126 634 L1126 635 L1126 636 L1126 637 L1127 638 L1127 639 L1127 640 L1127 641 L1128 642 L1128 643 L1128 644 L1128 645 L1128 646 L1129 647 L1129 648 L1129 649 L1129 650 L1129 651 L1129 652 L1130 653 L1130 654 L1130 655 L1130 656 L1130 657 L1131 658 L1131 659 L1131 660 L1131 661 L1131 662 L1131 663 L1132 664 L1132 665 L1132 666 L1132 667 L1132 668 L1132 669 L1132 670 L1133 671 L1133 672 L1133 673 L1133 674 L1133 675 L1133 676 L1134 677 L1134 678 L1134 679 L1134 680 L1134 681 L1134 682 L1134 683 L1135 684 L1135 685 L1135 686 L1135 687 L1135 688 L1135 689 L1136 690 L1136 691 L1136 692 L1136 693 L1136 694 L1136 695 L1137 696 L1137 697 L1137 698 L1137 699 L1137 700 L1138 701 L1138 702 L1138 703 L1138 704 L1138 705 L1139 706 L1139 707 L1139 708 L1139 709 L1140 710 L1140 711 L1140 712 L1141 713 L1141 714 L1141 715 L1141 716 L1142 717 L1142 718 L1142 719 L1143 720 L1143 721 L1143 722 L1144 723 L1144 724 L1145 725 L1145 726 L1145 727 L1146 728 L1146 729 L1146 730 L1147 731 L1147 732 L1147 733 L1148 734 L1148 735 L1148 736 L1149 737 L1149 738 L1150 739 L1150 740 L1150 741 L1151 742 L1151 743 L1151 744 L1152 745 L1152 746 L1152 747 L1153 748 L1153 749 L1153 750 L1153 751 L1154 752 L1154 753 L1154 754 L1155 755 L1155 756 L1155 757 L1156 758 L1156 759 L1156 760 L1157 761 L1157 762 L1157 763 L1158 764 L1158 765 L1158 766 L1159 767 L1159 768 L1159 769 L1160 770 L1160 771 L1160 772 L1161 773 L1161 774 L1161 775 L1162 776 L1162 777 L1163 778 L1163 779 L1163 780 L1164 781 L1164 782 L1165 783 L1165 784 L1165 785 L1166 786 L1166 787 L1167 788 L1167 789 L1167 790 L1168 791 L1168 792 L1169 793 L1169 794 L1169 795 L1170 796 L1170 797 L1171 798 L1171 799 L1172 800 L1172 801 L1172 802 L1173 803 L1173 804 L1174 805 L1174 806 L1175 807 L1175 808 L1176 809 L1176 810 L1177 811 L1177 812 L1178 813 L1178 814 L1179 815 L1179 816 L1180 817 L1180 818 L1181 819 L1181 820 L1182 821 L1183 822 L1183 823 L1184 824 L1185 825 L1185 826 L1186 827 L1187 828 L1188 829 L1189 830 L1190 831 L1191 832 L1192 832 L1193 833 L1194 834 L1195 834 L1196 835 L1197 835 L1198 836 L1199 837 L1200 837 L1201 838 L1202 838 L1203 839 L1204 839 L1205 840 L1206 840 L1207 840 L1208 840 L1209 840 L1210 841 L1211 841 L1212 841 L1213 841 L1214 841 L1215 841 L1216 841 L1217 840 L1218 840 L1219 840 L1220 839 L1221 839 L1222 838 L1223 837 L1224 837 L1225 836 L1226 835 L1227 834 L1228 833 L1229 832 L1229 831 L1230 830 L1231 829 L1231 828 L1232 827 L1232 826 L1233 825 L1233 824 L1233 823 L1234 822 L1234 821 L1234 820 L1234 819 L1234 818 L1234 817 L1234 816 L1234 815 L1234 814 L1234 813 L1234 812 L1234 811 L1234 810 L1234 809 L1234 808 L1234 807 L1234 806 L1234 805 L1234 804 L1233 803 L1233 802 L1233 801 L1233 800 L1233 799 L1232 798 L1232 797 L1232 796 L1231 795 L1231 794 L1231 793 L1230 792 L1230 791 L1230 790 L1229 789 L1229 788 L1229 787 L1228 786 L1228 785 L1228 784 L1227 783 L1227 782 L1226 781 L1226 780 L1226 779 L1225 778 L1225 777 L1224 776 L1224 775 L1224 774 L1223 773 L1223 772 L1222 771 L1222 770 L1222 769 L1221 768 L1221 767 L1220 766 L1220 765 L1219 764 L1219 763 L1219 762 L1218 761 L1218 760 L1217 759 L1217 758 L1216 757 L1216 756 L1216 755 L1215 754 L1215 753 L1214 752 L1214 751 L1214 750 L1213 749 L1213 748 L1213 747 L1212 746 L1212 745 L1211 744 L1211 743 L1211 742 L1210 741 L1210 740 L1210 739 L1209 738 L1209 737 L1209 736 L1208 735 L1208 734 L1207 733 L1207 732 L1207 731 L1206 730 L1206 729 L1206 728 L1205 727 L1205 726 L1205 725 L1204 724 L1204 723 L1203 722 L1203 721 L1203 720 L1202 719 L1202 718 L1202 717 L1201 716 L1201 715 L1201 714 L1201 713 L1201 712 L1200 711 L1200 710 L1200 709 L1200 708 L1200 707 L1199 706 L1199 705 L1199 704 L1199 703 L1199 702 L1199 701 L1198 700 L1198 699 L1198 698 L1198 697 L1198 696 L1198 695 L1197 694 L1197 693 L1197 692 L1197 691 L1197 690 L1197 689 L1196 688 L1196 687 L1196 686 L1196 685 L1195 684 L1195 683 L1195 682 L1195 681 L1195 680 L1194 679 L1194 678 L1194 677 L1194 676 L1193 675 L1193 674 L1193 673 L1193 672 L1192 671 L1192 670 L1192 669 L1191 668 L1191 667 L1191 666 L1190 665 L1190 664 L1190 663 L1190 662 L1189 661 L1189 660 L1189 659 L1188 658 L1188 657 L1188 656 L1188 655 L1187 654 L1187 653 L1187 652 L1187 651 L1186 650 L1186 649 L1186 648 L1186 647 L1186 646 L1185 645 L1185 644 L1185 643 L1185 642 L1185 641 L1185 640 L1184 639 L1184 638 L1184 637 L1184 636 L1184 635 L1184 634 L1184 633 L1183 632 L1183 631 L1183 630 L1183 629 L1183 628 L1183 627 L1183 626 L1183 625 L1182 624 L1182 623 L1182 622 L1182 621 L1182 620 L1182 619 L1182 618 L1181 617 L1181 616 L1181 615 L1181 614 L1181 613 L1181 612 L1180 611 L1180 610 L1180 609 L1180 608 L1180 607 L1180 606 L1180 605 L1180 604 L1179 603 L1179 602 L1179 601 L1179 600 L1179 599 L1179 598 L1179 597 L1179 596 L1179 595 L1179 594 L1179 593 L1179 592 L1179 591 L1179 590 L1179 589 L1179 588 L1179 587 L1179 586 L1179 585 L1179 584 L1179 583 L1179 582 L1179 581 L1179 580 L1179 579 L1179 578 L1179 577 L1179 576 L1179 575 L1179 574 L1179 573 L1179 572 L1179 571 L1179 570 L1179 569 L1179 568 L1179 567 L1179 566 L1179 565 L1179 564 L1179 563 L1179 562 L1179 561 L1179 560 L1179 559 L1179 558 L1179 557 L1180 556 L1180 555 L1180 554 L1180 553 L1180 552 L1180 551 L1180 550 L1180 549 L1180 548 L1180 547 L1180 546 L1180 545 L1180 544 L1181 543 L1181 542 L1181 541 L1181 540 L1181 539 L1181 538 L1181 537 L1181 536 L1181 535 L1181 534 L1182 533 L1182 532 L1182 531 L1182 530 L1182 529 L1182 528 L1182 527 L1182 526 L1182 525 L1182 524 L1183 523 L1183 522 L1183 521 L1183 520 L1183 519 L1183 518 L1183 517 L1183 516 L1183 515 L1184 514 L1184 513 L1184 512 L1184 511 L1184 510 L1184 509 L1184 508 L1184 507 L1185 506 L1185 505 L1185 504 L1185 503 L1185 502 L1185 501 L1185 500 L1186 499 L1186 498 L1186 497 L1186 496 L1186 495 L1186 494 L1187 493 L1187 492 L1187 491 L1187 490 L1187 489 L1187 488 L1188 487 L1188 486 L1188 485 L1188 484 L1188 483 L1189 482 L1189 481 L1189 480 L1189 479 L1190 478 L1190 477 L1190 476 L1190 475 L1190 474 L1191 473 L1191 472 L1191 471 L1191 470 L1191 469 L1192 468 L1192 467 L1192 466 L1192 465 L1193 464 L1193 463 L1193 462 L1193 461 L1194 460 L1194 459 L1194 458 L1194 457 L1194 456 L1195 455 L1195 454 L1195 453 L1195 452 L1196 451 L1196 450 L1196 449 L1196 448 L1196 447 L1197 446 L1197 445 L1197 444 L1197 443 L1197 442 L1198 441 L1198 440 L1198 439 L1198 438 L1199 437 L1199 436 L1199 435 L1199 434 L1199 433 L1200 432 L1200 431 L1200 430 L1200 429 L1200 428 L1201 427 L1201 426 L1201 425 L1201 424 L1201 423 L1201 422 L1202 421 L1202 420 L1202 419 L1202 418 L1202 417 L1203 416 L1203 415 L1203 414 L1203 413 L1203 412 L1204 411 L1204 410 L1204 409 L1204 408 L1205 407 L1205 406 L1205 405 L1205 404 L1205 403 L1206 402 L1206 401 L1206 400 L1207 399 L1207 398 L1207 397 L1208 396 L1208 395 L1208 394 L1209 393 L1209 392 L1210 391 L1210 390 L1211 389 L1211 388 L1212 387 L1212 386 L1213 385 L1213 384 L1214 383 L1214 382 L1215 381 L1215 380 L1216 379 L1216 378 L1217 377 L1217 376 L1218 375 L1218 374 L1219 373 L1219 372 L1219 371 L1219 370 L1220 369 L1220 368 L1220 367 L1221 366 L1221 365 L1221 364 L1221 363 L1222 362 L1222 361 L1222 360 L1222 359 L1223 358 L1223 357 L1223 356 L1223 355 L1224 354 L1224 353 L1224 352 L1224 351 L1224 350 L1225 349 L1225 348 L1225 347 L1226 346 L1226 345 L1226 344 L1226 343 L1227 342 L1227 341 L1227 340 L1227 339 L1228 338 L1228 337 L1228 336 L1229 335 L1229 334 L1229 333 L1230 332 L1230 331 L1231 330 L1231 329 L1231 328 L1232 327 L1232 326 L1233 325 L1233 324 L1234 323 L1234 322 L1235 321 L1236 320 L1236 319 L1237 318 L1237 317 L1238 316 L1239 315 L1239 314 L1240 313 L1241 312 L1241 311 L1242 310 L1243 309 L1243 308 L1244 307 L1244 306 L1245 305 L1246 304 L1246 303 L1247 302 L1247 301 L1248 300 L1248 299 L1249 298 L1249 297 L1249 296 L1250 295 L1250 294 L1250 293 L1251 292 L1251 291 L1251 290 L1252 289 L1252 288 L1252 287 L1252 286 L1252 285 L1252 284 L1253 283 L1253 282 L1253 281 L1253 280 L1253 279 L1253 278 L1253 277 L1253 276 L1253 275 L1253 274 L1253 273 L1253 272 L1253 271 L1253 270 L1253 269 L1252 268 L1252 267 L1252 266 L1252 265 L1252 264 L1251 263 L1251 262 L1251 261 L1250 260 L1250 259 L1249 258 L1248 257 L1248 256 L1247 255 L1246 254 L1246 253 L1245 252 L1244 251 L1243 251 L1242 250 L1241 249 L1240 249 L1239 248 L1238 248 L1237 247 L1236 247 L1235 247 L1234 247 L1233 246 L1232 246 L1231 246 L1230 246 L1229 246 L1228 246 L1227 246 L1226 246 L1225 246 Z
M894 1096 L893 1097 L892 1097 L891 1098 L890 1098 L889 1099 L888 1099 L887 1100 L886 1101 L885 1102 L885 1103 L884 1104 L883 1105 L883 1106 L882 1107 L881 1108 L881 1109 L880 1110 L880 1111 L879 1112 L879 1113 L878 1114 L878 1115 L877 1116 L877 1117 L876 1118 L876 1119 L876 1120 L875 1121 L875 1122 L875 1123 L874 1124 L874 1125 L874 1126 L873 1127 L873 1128 L873 1129 L873 1130 L872 1131 L872 1132 L872 1133 L872 1134 L871 1135 L871 1136 L871 1137 L871 1138 L870 1139 L870 1140 L870 1141 L870 1142 L869 1143 L869 1144 L869 1145 L869 1146 L869 1147 L869 1148 L868 1149 L868 1150 L868 1151 L868 1152 L868 1153 L867 1154 L867 1155 L867 1156 L867 1157 L867 1158 L867 1159 L867 1160 L866 1161 L866 1162 L866 1163 L866 1164 L866 1165 L866 1166 L866 1167 L865 1168 L865 1169 L865 1170 L865 1171 L865 1172 L865 1173 L865 1174 L864 1175 L864 1176 L864 1177 L864 1178 L864 1179 L864 1180 L864 1181 L864 1182 L863 1183 L863 1184 L863 1185 L863 1186 L863 1187 L863 1188 L863 1189 L863 1190 L863 1191 L862 1192 L862 1193 L862 1194 L862 1195 L862 1196 L862 1197 L862 1198 L862 1199 L862 1200 L861 1201 L861 1202 L861 1203 L861 1204 L861 1205 L861 1206 L861 1207 L861 1208 L860 1209 L860 1210 L860 1211 L860 1212 L860 1213 L860 1214 L860 1215 L860 1216 L860 1217 L859 1218 L859 1219 L859 1220 L859 1221 L859 1222 L859 1223 L859 1224 L859 1225 L858 1226 L858 1227 L858 1228 L858 1229 L858 1230 L858 1231 L857 1232 L857 1233 L857 1234 L857 1235 L857 1236 L857 1237 L856 1238 L856 1239 L856 1240 L856 1241 L856 1242 L855 1243 L855 1244 L855 1245 L855 1246 L855 1247 L854 1248 L854 1249 L854 1250 L854 1251 L854 1252 L853 1253 L853 1254 L853 1255 L853 1256 L852 1257 L852 1258 L852 1259 L852 1260 L852 1261 L851 1262 L851 1263 L851 1264 L851 1265 L850 1266 L850 1267 L850 1268 L850 1269 L849 1270 L849 1271 L849 1272 L849 1273 L848 1274 L848 1275 L848 1276 L847 1277 L847 1278 L847 1279 L846 1280 L846 1281 L846 1282 L845 1283 L845 1284 L845 1285 L844 1286 L844 1287 L844 1288 L843 1289 L843 1290 L842 1291 L842 1292 L842 1293 L841 1294 L841 1295 L841 1296 L840 1297 L840 1298 L839 1299 L839 1300 L839 1301 L838 1302 L838 1303 L837 1304 L837 1305 L837 1306 L836 1307 L836 1308 L836 1309 L835 1310 L835 1311 L835 1312 L834 1313 L834 1314 L834 1315 L834 1316 L833 1317 L833 1318 L833 1319 L832 1320 L832 1321 L832 1322 L831 1323 L831 1324 L831 1325 L830 1326 L830 1327 L830 1328 L829 1329 L829 1330 L829 1331 L828 1332 L828 1333 L827 1334 L827 1335 L826 1336 L826 1337 L826 1338 L825 1339 L825 1340 L824 1341 L824 1342 L823 1343 L823 1344 L822 1345 L822 1346 L821 1347 L821 1348 L820 1349 L820 1350 L819 1351 L819 1352 L818 1353 L818 1354 L817 1355 L817 1356 L816 1357 L816 1358 L815 1359 L815 1360 L814 1361 L814 1362 L813 1363 L813 1364 L812 1365 L812 1366 L811 1367 L811 1368 L810 1369 L810 1370 L809 1371 L809 1372 L808 1373 L808 1374 L807 1375 L807 1376 L806 1377 L806 1378 L805 1379 L805 1380 L804 1381 L804 1382 L803 1383 L803 1384 L802 1385 L802 1386 L801 1387 L801 1388 L800 1389 L800 1390 L799 1391 L799 1392 L799 1393 L798 1394 L798 1395 L797 1396 L797 1397 L797 1398 L796 1399 L796 1400 L795 1401 L795 1402 L795 1403 L794 1404 L794 1405 L794 1406 L793 1407 L793 1408 L793 1409 L792 1410 L792 1411 L792 1412 L792 1413 L792 1414 L791 1415 L791 1416 L791 1417 L791 1418 L791 1419 L791 1420 L791 1421 L791 1422 L791 1423 L791 1424 L791 1425 L792 1426 L792 1427 L793 1428 L793 1429 L794 1430 L794 1431 L795 1432 L796 1433 L796 1434 L797 1435 L798 1436 L799 1437 L800 1438 L801 1439 L802 1440 L803 1440 L804 1441 L805 1441 L806 1442 L807 1442 L808 1442 L809 1443 L810 1443 L811 1443 L812 1443 L813 1443 L814 1443 L815 1443 L816 1443 L817 1443 L818 1443 L819 1443 L820 1443 L821 1442 L822 1442 L823 1442 L824 1442 L825 1441 L826 1441 L827 1441 L828 1440 L829 1440 L830 1440 L831 1439 L832 1438 L833 1438 L834 1437 L835 1437 L836 1436 L837 1435 L838 1434 L839 1434 L840 1433 L841 1432 L842 1431 L843 1430 L844 1429 L845 1428 L845 1427 L846 1426 L847 1425 L848 1424 L849 1423 L850 1422 L850 1421 L851 1420 L852 1419 L852 1418 L853 1417 L854 1416 L854 1415 L855 1414 L855 1413 L856 1412 L856 1411 L857 1410 L857 1409 L857 1408 L858 1407 L858 1406 L859 1405 L859 1404 L859 1403 L860 1402 L860 1401 L861 1400 L861 1399 L861 1398 L862 1397 L862 1396 L862 1395 L863 1394 L863 1393 L864 1392 L864 1391 L864 1390 L865 1389 L865 1388 L866 1387 L866 1386 L867 1385 L867 1384 L868 1383 L868 1382 L869 1381 L869 1380 L870 1379 L870 1378 L871 1377 L871 1376 L872 1375 L872 1374 L873 1373 L873 1372 L874 1371 L874 1370 L875 1369 L875 1368 L876 1367 L876 1366 L877 1365 L877 1364 L878 1363 L878 1362 L879 1361 L879 1360 L880 1359 L880 1358 L881 1357 L881 1356 L882 1355 L882 1354 L883 1353 L883 1352 L883 1351 L884 1350 L884 1349 L885 1348 L885 1347 L885 1346 L886 1345 L886 1344 L886 1343 L886 1342 L887 1341 L887 1340 L887 1339 L888 1338 L888 1337 L888 1336 L888 1335 L889 1334 L889 1333 L889 1332 L890 1331 L890 1330 L890 1329 L890 1328 L891 1327 L891 1326 L891 1325 L891 1324 L892 1323 L892 1322 L892 1321 L892 1320 L893 1319 L893 1318 L893 1317 L893 1316 L894 1315 L894 1314 L894 1313 L895 1312 L895 1311 L895 1310 L896 1309 L896 1308 L896 1307 L897 1306 L897 1305 L898 1304 L898 1303 L898 1302 L899 1301 L899 1300 L900 1299 L900 1298 L901 1297 L901 1296 L902 1295 L902 1294 L902 1293 L903 1292 L903 1291 L904 1290 L904 1289 L905 1288 L905 1287 L905 1286 L906 1285 L906 1284 L906 1283 L907 1282 L907 1281 L907 1280 L907 1279 L908 1278 L908 1277 L908 1276 L908 1275 L909 1274 L909 1273 L909 1272 L909 1271 L909 1270 L910 1269 L910 1268 L910 1267 L910 1266 L910 1265 L910 1264 L911 1263 L911 1262 L911 1261 L911 1260 L911 1259 L911 1258 L912 1257 L912 1256 L912 1255 L912 1254 L912 1253 L912 1252 L913 1251 L913 1250 L913 1249 L913 1248 L913 1247 L913 1246 L913 1245 L914 1244 L914 1243 L914 1242 L914 1241 L914 1240 L914 1239 L915 1238 L915 1237 L915 1236 L915 1235 L915 1234 L915 1233 L915 1232 L915 1231 L916 1230 L916 1229 L916 1228 L916 1227 L916 1226 L916 1225 L916 1224 L916 1223 L917 1222 L917 1221 L917 1220 L917 1219 L917 1218 L917 1217 L917 1216 L917 1215 L917 1214 L918 1213 L918 1212 L918 1211 L918 1210 L918 1209 L918 1208 L918 1207 L918 1206 L918 1205 L918 1204 L919 1203 L919 1202 L919 1201 L919 1200 L919 1199 L919 1198 L919 1197 L919 1196 L919 1195 L920 1194 L920 1193 L920 1192 L920 1191 L920 1190 L920 1189 L920 1188 L920 1187 L920 1186 L921 1185 L921 1184 L921 1183 L921 1182 L921 1181 L921 1180 L921 1179 L922 1178 L922 1177 L922 1176 L922 1175 L922 1174 L922 1173 L922 1172 L923 1171 L923 1170 L923 1169 L923 1168 L923 1167 L923 1166 L923 1165 L923 1164 L924 1163 L924 1162 L924 1161 L924 1160 L924 1159 L924 1158 L924 1157 L925 1156 L925 1155 L925 1154 L925 1153 L925 1152 L925 1151 L925 1150 L925 1149 L925 1148 L925 1147 L925 1146 L925 1145 L925 1144 L925 1143 L925 1142 L925 1141 L925 1140 L925 1139 L925 1138 L925 1137 L925 1136 L924 1135 L924 1134 L924 1133 L924 1132 L924 1131 L924 1130 L923 1129 L923 1128 L923 1127 L923 1126 L922 1125 L922 1124 L922 1123 L922 1122 L921 1121 L921 1120 L920 1119 L920 1118 L920 1117 L919 1116 L919 1115 L918 1114 L918 1113 L917 1112 L916 1111 L915 1110 L915 1109 L914 1108 L913 1107 L912 1106 L911 1105 L911 1104 L910 1103 L909 1102 L908 1101 L907 1100 L906 1099 L905 1099 L904 1098 L903 1097 L902 1097 L901 1097 L900 1096 L899 1096 L898 1096 L897 1096 L896 1096 L895 1096 Z
M1003 538 L1002 539 L1001 539 L1000 539 L999 539 L998 539 L997 539 L996 539 L995 539 L994 539 L993 540 L992 540 L991 540 L990 540 L989 540 L988 540 L987 540 L986 540 L985 540 L984 540 L983 540 L982 540 L981 540 L980 540 L979 540 L978 540 L977 540 L976 540 L975 540 L974 540 L973 540 L972 540 L971 540 L970 540 L969 540 L968 540 L967 540 L966 540 L965 540 L964 540 L963 540 L962 540 L961 540 L960 540 L959 540 L958 540 L957 540 L956 540 L955 540 L954 540 L953 540 L952 540 L951 540 L950 540 L949 540 L948 539 L947 539 L946 539 L945 539 L944 539 L943 539 L942 539 L941 539 L940 539 L939 539 L938 539 L937 539 L936 539 L935 539 L934 539 L933 539 L932 539 L931 539 L930 539 L929 539 L928 539 L927 539 L926 539 L925 539 L924 539 L923 539 L922 539 L921 539 L920 539 L919 539 L918 539 L917 539 L916 539 L915 539 L914 540 L913 540 L912 540 L911 540 L910 540 L909 540 L908 540 L907 540 L906 541 L905 541 L904 541 L903 541 L902 542 L901 542 L900 543 L899 543 L898 543 L897 544 L896 545 L895 545 L894 546 L893 547 L892 548 L891 549 L890 550 L890 551 L889 552 L888 553 L888 554 L887 555 L887 556 L886 557 L886 558 L885 559 L885 560 L885 561 L884 562 L884 563 L884 564 L884 565 L883 566 L883 567 L883 568 L883 569 L883 570 L883 571 L883 572 L883 573 L883 574 L883 575 L883 576 L884 577 L884 578 L884 579 L885 580 L885 581 L886 582 L886 583 L887 584 L887 585 L888 586 L888 587 L889 588 L890 589 L891 590 L892 590 L893 591 L894 591 L895 592 L896 593 L897 593 L898 594 L899 594 L900 595 L901 595 L902 596 L903 596 L904 597 L905 597 L906 597 L907 597 L908 597 L909 597 L910 597 L911 597 L912 597 L913 597 L914 596 L915 596 L916 596 L917 596 L918 596 L919 596 L920 596 L921 596 L922 596 L923 596 L924 596 L925 596 L926 596 L927 596 L928 596 L929 596 L930 596 L931 596 L932 596 L933 596 L934 596 L935 596 L936 596 L937 596 L938 596 L939 596 L940 596 L941 596 L942 596 L943 596 L944 596 L945 596 L946 596 L947 596 L948 596 L949 596 L950 596 L951 596 L952 596 L953 596 L954 596 L955 596 L956 596 L957 596 L958 596 L959 596 L960 596 L961 596 L962 596 L963 596 L964 596 L965 596 L966 596 L967 596 L968 596 L969 596 L970 596 L971 596 L972 596 L973 596 L974 596 L975 596 L976 596 L977 596 L978 596 L979 596 L980 596 L981 596 L982 596 L983 596 L984 596 L985 596 L986 596 L987 596 L988 596 L989 596 L990 596 L991 596 L992 596 L993 596 L994 596 L995 596 L996 596 L997 596 L998 596 L999 596 L1000 596 L1001 596 L1002 596 L1003 596 L1004 596 L1005 596 L1006 596 L1007 596 L1008 596 L1009 596 L1010 596 L1011 596 L1012 595 L1013 595 L1014 595 L1015 595 L1016 595 L1017 595 L1018 595 L1019 595 L1020 595 L1021 595 L1022 595 L1023 595 L1024 595 L1025 595 L1026 595 L1027 595 L1028 595 L1029 595 L1030 595 L1031 595 L1032 594 L1033 594 L1034 594 L1035 594 L1036 594 L1037 594 L1038 594 L1039 594 L1040 593 L1041 593 L1042 593 L1043 593 L1044 592 L1045 592 L1046 592 L1047 591 L1048 591 L1049 591 L1050 590 L1051 590 L1052 589 L1053 589 L1054 588 L1055 588 L1056 587 L1057 587 L1058 586 L1059 585 L1060 585 L1061 584 L1062 583 L1063 582 L1064 581 L1064 580 L1065 579 L1066 578 L1066 577 L1067 576 L1067 575 L1067 574 L1068 573 L1068 572 L1068 571 L1068 570 L1068 569 L1068 568 L1068 567 L1068 566 L1068 565 L1067 564 L1067 563 L1067 562 L1066 561 L1066 560 L1065 559 L1065 558 L1064 557 L1064 556 L1063 555 L1062 554 L1061 553 L1060 552 L1059 551 L1058 550 L1057 549 L1056 548 L1055 548 L1054 547 L1053 546 L1052 546 L1051 545 L1050 545 L1049 544 L1048 544 L1047 544 L1046 543 L1045 543 L1044 542 L1043 542 L1042 542 L1041 541 L1040 541 L1039 541 L1038 540 L1037 540 L1036 540 L1035 540 L1034 540 L1033 540 L1032 539 L1031 539 L1030 539 L1029 539 L1028 539 L1027 539 L1026 539 L1025 539 L1024 539 L1023 539 L1022 539 L1021 538 L1020 538 L1019 538 L1018 538 L1017 538 L1016 538 L1015 538 L1014 538 L1013 538 L1012 538 L1011 538 L1010 538 L1009 538 L1008 538 L1007 538 L1006 538 L1005 538 L1004 538 Z" fill="#000000" fill-rule="evenodd"/>
</svg>
