<?xml version="1.0" encoding="UTF-8"?>
<svg xmlns="http://www.w3.org/2000/svg" width="2000" height="2023" viewBox="0 0 2000 2023" role="img" aria-label="07_plume_douceur">
  <path d="M1304 701 L1303 702 L1302 702 L1301 702 L1300 702 L1299 702 L1298 702 L1297 702 L1296 702 L1295 702 L1294 703 L1293 703 L1292 703 L1291 703 L1290 703 L1289 703 L1288 703 L1287 703 L1286 703 L1285 703 L1284 704 L1283 704 L1282 704 L1281 704 L1280 704 L1279 704 L1278 705 L1277 705 L1276 705 L1275 705 L1274 705 L1273 705 L1272 706 L1271 706 L1270 706 L1269 706 L1268 706 L1267 706 L1266 706 L1265 707 L1264 707 L1263 707 L1262 707 L1261 708 L1260 708 L1259 708 L1258 708 L1257 709 L1256 709 L1255 709 L1254 709 L1253 710 L1252 710 L1251 710 L1250 710 L1249 711 L1248 711 L1247 711 L1246 711 L1245 712 L1244 712 L1243 712 L1242 713 L1241 713 L1240 713 L1239 714 L1238 714 L1237 714 L1236 714 L1235 715 L1234 715 L1233 715 L1232 716 L1231 716 L1230 716 L1229 717 L1228 717 L1227 717 L1226 717 L1225 718 L1224 718 L1223 718 L1222 718 L1221 719 L1220 719 L1219 719 L1218 719 L1217 720 L1216 720 L1215 720 L1214 720 L1213 720 L1212 721 L1211 721 L1210 721 L1209 721 L1208 721 L1207 722 L1206 722 L1205 722 L1204 722 L1203 722 L1202 723 L1201 723 L1200 723 L1199 723 L1198 724 L1197 724 L1196 724 L1195 724 L1194 724 L1193 725 L1192 725 L1191 725 L1190 726 L1189 726 L1188 726 L1187 726 L1186 727 L1185 727 L1184 727 L1183 727 L1182 728 L1181 728 L1180 728 L1179 728 L1178 729 L1177 729 L1176 730 L1175 730 L1174 730 L1173 731 L1172 731 L1171 732 L1170 732 L1169 732 L1168 733 L1167 733 L1166 734 L1165 734 L1164 735 L1163 735 L1162 735 L1161 736 L1160 736 L1159 737 L1158 737 L1157 738 L1156 738 L1155 739 L1154 739 L1153 740 L1152 740 L1151 740 L1150 741 L1149 741 L1148 742 L1147 742 L1146 743 L1145 743 L1144 744 L1143 744 L1142 744 L1141 745 L1140 745 L1139 746 L1138 746 L1137 747 L1136 747 L1135 747 L1134 748 L1133 748 L1132 749 L1131 749 L1130 749 L1129 750 L1128 750 L1127 751 L1126 751 L1125 751 L1124 752 L1123 753 L1122 753 L1121 754 L1120 754 L1119 755 L1118 755 L1117 756 L1116 756 L1115 757 L1114 758 L1113 758 L1112 759 L1111 759 L1110 760 L1109 761 L1108 761 L1107 762 L1106 763 L1105 764 L1104 764 L1103 765 L1102 766 L1101 766 L1100 767 L1099 768 L1098 768 L1097 769 L1096 770 L1095 770 L1094 771 L1093 772 L1092 773 L1091 773 L1090 774 L1089 775 L1088 775 L1087 776 L1086 777 L1085 777 L1084 778 L1083 779 L1082 779 L1081 780 L1080 780 L1079 781 L1078 782 L1077 782 L1076 783 L1075 783 L1074 784 L1073 785 L1072 785 L1071 786 L1070 786 L1069 787 L1068 788 L1067 788 L1066 789 L1065 789 L1064 790 L1063 791 L1062 791 L1061 792 L1060 792 L1059 793 L1058 794 L1057 794 L1056 795 L1055 796 L1054 796 L1053 797 L1052 798 L1051 798 L1050 799 L1049 800 L1048 800 L1047 801 L1046 802 L1045 802 L1044 803 L1043 804 L1042 804 L1041 805 L1040 806 L1039 807 L1038 807 L1037 808 L1036 809 L1035 810 L1034 810 L1033 811 L1032 812 L1031 812 L1030 813 L1029 814 L1028 815 L1027 816 L1026 816 L1025 817 L1024 818 L1023 819 L1022 820 L1021 820 L1020 821 L1019 822 L1018 823 L1017 824 L1016 825 L1015 826 L1014 827 L1013 827 L1012 828 L1011 829 L1010 830 L1009 831 L1008 831 L1007 832 L1006 833 L1005 834 L1004 834 L1003 835 L1002 836 L1001 836 L1000 837 L999 838 L998 839 L997 839 L996 840 L995 841 L994 842 L993 843 L992 843 L991 844 L990 845 L989 846 L988 847 L987 848 L986 849 L985 850 L984 851 L983 852 L982 853 L981 854 L980 855 L980 856 L979 857 L978 858 L977 859 L977 860 L976 861 L975 862 L975 863 L974 864 L974 865 L973 866 L973 867 L972 868 L972 869 L971 870 L971 871 L970 872 L970 873 L969 874 L969 875 L968 876 L968 877 L968 878 L967 879 L967 880 L967 881 L967 882 L967 883 L966 884 L966 885 L966 886 L966 887 L966 888 L966 889 L966 890 L966 891 L966 892 L966 893 L966 894 L966 895 L966 896 L966 897 L966 898 L966 899 L967 900 L967 901 L967 902 L967 903 L968 904 L968 905 L969 906 L969 907 L969 908 L970 909 L970 910 L971 911 L971 912 L971 913 L972 914 L972 915 L973 916 L973 917 L973 918 L974 919 L974 920 L975 921 L975 922 L976 923 L976 924 L977 925 L977 926 L978 927 L979 928 L979 929 L980 930 L980 931 L981 932 L982 933 L982 934 L983 935 L984 936 L984 937 L985 938 L985 939 L985 940 L985 941 L986 942 L985 943 L985 944 L984 945 L983 946 L982 947 L981 947 L980 948 L979 948 L978 949 L977 949 L976 950 L975 950 L974 950 L973 951 L972 951 L971 951 L970 951 L969 951 L968 951 L967 951 L966 952 L965 952 L964 952 L963 952 L962 952 L961 952 L960 952 L959 952 L958 952 L957 952 L956 952 L955 952 L954 952 L953 952 L952 952 L951 952 L950 952 L949 952 L948 952 L947 952 L946 952 L945 952 L944 952 L943 952 L942 952 L941 952 L940 952 L939 952 L938 952 L937 952 L936 952 L935 952 L934 952 L933 952 L932 952 L931 952 L930 952 L929 953 L928 953 L927 953 L926 953 L925 953 L924 953 L923 953 L922 953 L921 953 L920 953 L919 953 L918 954 L917 954 L916 954 L915 954 L914 954 L913 954 L912 954 L911 954 L910 955 L909 955 L908 955 L907 955 L906 955 L905 955 L904 955 L903 956 L902 956 L901 956 L900 956 L899 956 L898 957 L897 957 L896 957 L895 957 L894 957 L893 958 L892 958 L891 958 L890 958 L889 959 L888 959 L887 959 L886 960 L885 960 L884 960 L883 961 L882 961 L881 961 L880 962 L879 963 L878 963 L877 964 L876 964 L875 965 L874 965 L873 966 L872 967 L871 967 L870 968 L869 969 L868 970 L867 971 L866 971 L865 972 L864 973 L863 974 L862 975 L861 976 L860 977 L859 978 L858 978 L857 979 L856 980 L855 981 L854 982 L853 983 L852 984 L851 985 L851 986 L850 987 L849 988 L848 989 L847 990 L846 991 L845 992 L844 993 L843 994 L842 995 L842 996 L841 997 L840 998 L839 999 L838 1000 L838 1001 L837 1002 L836 1003 L835 1004 L835 1005 L834 1006 L833 1007 L832 1008 L831 1009 L830 1010 L829 1011 L829 1012 L828 1013 L827 1014 L826 1015 L825 1016 L824 1017 L823 1018 L822 1019 L821 1020 L820 1021 L819 1022 L818 1023 L817 1024 L816 1025 L815 1026 L814 1027 L813 1028 L812 1029 L811 1030 L810 1031 L809 1032 L808 1033 L807 1034 L806 1035 L805 1036 L804 1037 L803 1038 L802 1039 L801 1040 L800 1041 L799 1042 L798 1043 L797 1044 L796 1045 L795 1046 L794 1047 L793 1048 L792 1048 L791 1049 L790 1050 L789 1051 L788 1052 L787 1053 L786 1054 L785 1055 L784 1056 L783 1056 L782 1057 L781 1058 L780 1059 L779 1060 L778 1061 L777 1062 L776 1063 L775 1064 L774 1064 L773 1065 L772 1066 L771 1067 L770 1068 L769 1069 L768 1070 L767 1070 L766 1071 L765 1072 L764 1073 L763 1074 L762 1075 L761 1076 L760 1077 L759 1077 L758 1078 L757 1079 L756 1080 L755 1081 L754 1082 L753 1083 L752 1084 L751 1085 L750 1086 L749 1087 L748 1088 L747 1089 L746 1090 L745 1091 L744 1091 L743 1092 L742 1093 L741 1094 L740 1095 L739 1096 L738 1097 L737 1097 L736 1098 L735 1099 L734 1100 L733 1100 L732 1101 L731 1102 L730 1103 L729 1103 L728 1104 L727 1104 L726 1105 L725 1106 L724 1106 L723 1107 L722 1107 L721 1108 L720 1108 L719 1109 L718 1110 L717 1110 L716 1111 L715 1111 L714 1112 L713 1112 L712 1113 L711 1113 L710 1114 L709 1114 L708 1115 L707 1115 L706 1116 L705 1117 L704 1117 L703 1118 L702 1118 L701 1119 L700 1119 L699 1120 L698 1121 L697 1121 L696 1122 L695 1122 L694 1123 L693 1124 L692 1124 L691 1125 L690 1126 L689 1126 L688 1127 L687 1127 L686 1128 L685 1129 L684 1129 L683 1130 L682 1131 L681 1131 L680 1132 L679 1133 L678 1133 L677 1134 L676 1134 L675 1135 L674 1136 L673 1136 L672 1137 L671 1138 L670 1138 L669 1139 L668 1139 L667 1140 L666 1141 L665 1141 L664 1142 L663 1142 L662 1143 L661 1143 L660 1144 L659 1145 L658 1145 L657 1146 L656 1146 L655 1147 L654 1147 L653 1148 L652 1148 L651 1149 L650 1149 L649 1150 L648 1150 L647 1151 L646 1152 L645 1152 L644 1153 L643 1153 L642 1153 L641 1154 L640 1155 L639 1155 L638 1156 L637 1156 L636 1157 L635 1157 L634 1158 L633 1159 L632 1159 L631 1160 L630 1161 L629 1162 L628 1162 L627 1163 L626 1164 L625 1165 L624 1166 L623 1167 L622 1167 L621 1168 L620 1169 L619 1170 L618 1171 L617 1171 L616 1172 L615 1173 L614 1174 L613 1175 L612 1175 L611 1176 L610 1177 L609 1177 L608 1178 L607 1178 L606 1179 L605 1179 L604 1180 L603 1181 L602 1181 L601 1182 L600 1182 L599 1183 L598 1183 L597 1184 L596 1184 L595 1185 L594 1185 L593 1186 L592 1187 L591 1187 L590 1188 L589 1188 L588 1189 L587 1190 L586 1190 L585 1191 L584 1192 L583 1192 L582 1193 L581 1194 L580 1194 L579 1195 L578 1196 L577 1196 L576 1197 L575 1198 L574 1198 L573 1199 L572 1200 L571 1200 L570 1201 L569 1201 L568 1202 L567 1203 L566 1203 L565 1204 L564 1204 L563 1205 L562 1206 L561 1206 L560 1207 L559 1207 L558 1208 L557 1209 L556 1209 L555 1210 L554 1210 L553 1211 L552 1212 L551 1212 L550 1213 L549 1213 L548 1214 L547 1215 L546 1215 L545 1216 L544 1217 L543 1217 L542 1218 L541 1219 L540 1219 L539 1220 L538 1221 L537 1221 L536 1222 L535 1223 L534 1224 L533 1225 L532 1226 L531 1226 L530 1227 L529 1228 L528 1229 L528 1230 L527 1231 L526 1232 L525 1233 L524 1234 L523 1235 L523 1236 L522 1237 L521 1238 L520 1239 L519 1240 L518 1241 L517 1242 L517 1243 L516 1244 L515 1245 L514 1246 L513 1247 L512 1248 L511 1249 L510 1250 L509 1251 L508 1252 L507 1253 L507 1254 L506 1255 L505 1256 L504 1257 L503 1258 L502 1259 L502 1260 L501 1261 L500 1262 L499 1263 L499 1264 L498 1265 L497 1266 L496 1267 L496 1268 L495 1269 L494 1270 L493 1271 L492 1272 L492 1273 L491 1274 L490 1275 L489 1276 L488 1277 L488 1278 L487 1279 L486 1280 L485 1281 L485 1282 L484 1283 L483 1284 L482 1285 L482 1286 L481 1287 L480 1288 L480 1289 L479 1290 L478 1291 L478 1292 L477 1293 L477 1294 L476 1295 L475 1296 L475 1297 L474 1298 L474 1299 L473 1300 L473 1301 L472 1302 L472 1303 L471 1304 L471 1305 L470 1306 L470 1307 L470 1308 L469 1309 L469 1310 L468 1311 L468 1312 L468 1313 L467 1314 L467 1315 L466 1316 L466 1317 L466 1318 L465 1319 L465 1320 L465 1321 L465 1322 L464 1323 L464 1324 L464 1325 L463 1326 L463 1327 L463 1328 L462 1329 L462 1330 L462 1331 L462 1332 L462 1333 L461 1334 L461 1335 L461 1336 L461 1337 L461 1338 L460 1339 L460 1340 L460 1341 L460 1342 L460 1343 L459 1344 L459 1345 L459 1346 L459 1347 L459 1348 L459 1349 L459 1350 L458 1351 L458 1352 L458 1353 L458 1354 L458 1355 L458 1356 L458 1357 L458 1358 L457 1359 L457 1360 L457 1361 L457 1362 L457 1363 L457 1364 L457 1365 L457 1366 L456 1367 L456 1368 L456 1369 L456 1370 L456 1371 L456 1372 L456 1373 L456 1374 L455 1375 L455 1376 L455 1377 L455 1378 L455 1379 L455 1380 L455 1381 L454 1382 L454 1383 L454 1384 L454 1385 L454 1386 L454 1387 L454 1388 L454 1389 L453 1390 L453 1391 L453 1392 L453 1393 L453 1394 L453 1395 L453 1396 L453 1397 L452 1398 L452 1399 L452 1400 L452 1401 L452 1402 L452 1403 L452 1404 L452 1405 L452 1406 L452 1407 L452 1408 L452 1409 L452 1410 L452 1411 L452 1412 L452 1413 L452 1414 L452 1415 L452 1416 L452 1417 L452 1418 L452 1419 L452 1420 L452 1421 L452 1422 L452 1423 L452 1424 L452 1425 L452 1426 L452 1427 L452 1428 L452 1429 L452 1430 L452 1431 L453 1432 L453 1433 L453 1434 L453 1435 L453 1436 L453 1437 L453 1438 L453 1439 L454 1440 L454 1441 L454 1442 L454 1443 L454 1444 L454 1445 L455 1446 L455 1447 L455 1448 L455 1449 L455 1450 L456 1451 L456 1452 L456 1453 L456 1454 L457 1455 L457 1456 L457 1457 L457 1458 L458 1459 L458 1460 L458 1461 L458 1462 L459 1463 L459 1464 L459 1465 L460 1466 L460 1467 L460 1468 L461 1469 L461 1470 L461 1471 L462 1472 L462 1473 L462 1474 L463 1475 L463 1476 L463 1477 L464 1478 L464 1479 L464 1480 L465 1481 L465 1482 L466 1483 L466 1484 L466 1485 L467 1486 L467 1487 L468 1488 L468 1489 L468 1490 L469 1491 L469 1492 L470 1493 L470 1494 L471 1495 L471 1496 L472 1497 L472 1498 L472 1499 L473 1500 L473 1501 L474 1502 L474 1503 L475 1504 L475 1505 L476 1506 L476 1507 L477 1508 L477 1509 L478 1510 L478 1511 L479 1512 L479 1513 L480 1514 L480 1515 L481 1516 L481 1517 L482 1518 L483 1519 L483 1520 L484 1521 L484 1522 L485 1523 L485 1524 L486 1525 L486 1526 L487 1527 L488 1528 L488 1529 L489 1530 L489 1531 L490 1532 L491 1533 L491 1534 L492 1535 L493 1536 L493 1537 L494 1538 L495 1539 L496 1540 L496 1541 L497 1542 L498 1543 L499 1544 L500 1545 L501 1546 L502 1547 L503 1548 L504 1549 L504 1550 L505 1551 L506 1552 L507 1553 L508 1554 L509 1554 L510 1555 L511 1556 L512 1557 L513 1558 L513 1559 L514 1560 L515 1561 L516 1562 L517 1563 L518 1564 L519 1565 L520 1566 L521 1567 L522 1568 L523 1569 L524 1570 L525 1571 L526 1572 L527 1573 L528 1574 L529 1575 L530 1576 L531 1577 L532 1578 L533 1579 L534 1580 L535 1581 L536 1582 L537 1583 L538 1584 L539 1585 L540 1586 L541 1587 L542 1588 L543 1588 L544 1589 L545 1590 L546 1591 L547 1592 L548 1592 L549 1593 L550 1594 L551 1595 L552 1595 L553 1596 L554 1597 L555 1598 L556 1598 L557 1599 L558 1600 L559 1601 L560 1602 L561 1602 L562 1603 L563 1604 L564 1604 L565 1605 L566 1606 L567 1606 L568 1607 L569 1608 L570 1608 L571 1609 L572 1609 L573 1610 L574 1610 L575 1611 L576 1611 L577 1612 L578 1612 L579 1612 L580 1613 L581 1613 L582 1614 L583 1614 L584 1614 L585 1615 L586 1615 L587 1616 L588 1616 L589 1616 L590 1617 L591 1617 L592 1618 L593 1618 L594 1618 L595 1619 L596 1619 L597 1620 L598 1620 L599 1621 L600 1621 L601 1622 L602 1622 L603 1623 L604 1624 L605 1624 L606 1625 L607 1626 L608 1626 L609 1627 L610 1628 L611 1628 L612 1629 L613 1630 L614 1630 L615 1631 L616 1631 L617 1632 L618 1633 L619 1633 L620 1634 L621 1634 L622 1635 L623 1635 L624 1636 L625 1636 L626 1637 L627 1637 L628 1638 L629 1638 L630 1639 L631 1639 L632 1640 L633 1640 L634 1640 L635 1641 L636 1641 L637 1642 L638 1642 L639 1643 L640 1643 L641 1643 L642 1644 L643 1644 L644 1645 L645 1645 L646 1645 L647 1646 L648 1646 L649 1646 L650 1647 L651 1647 L652 1648 L653 1648 L654 1648 L655 1649 L656 1649 L657 1649 L658 1650 L659 1650 L660 1651 L661 1651 L662 1651 L663 1652 L664 1652 L665 1652 L666 1653 L667 1653 L668 1653 L669 1654 L670 1654 L671 1654 L672 1655 L673 1655 L674 1656 L675 1656 L676 1656 L677 1657 L678 1657 L679 1657 L680 1658 L681 1658 L682 1658 L683 1658 L684 1659 L685 1659 L686 1659 L687 1660 L688 1660 L689 1660 L690 1661 L691 1661 L692 1661 L693 1661 L694 1662 L695 1662 L696 1662 L697 1662 L698 1663 L699 1663 L700 1663 L701 1663 L702 1664 L703 1664 L704 1664 L705 1665 L706 1665 L707 1665 L708 1665 L709 1665 L710 1665 L711 1666 L712 1666 L713 1666 L714 1666 L715 1667 L716 1667 L717 1667 L718 1667 L719 1667 L720 1667 L721 1667 L722 1668 L723 1668 L724 1668 L725 1668 L726 1668 L727 1668 L728 1668 L729 1668 L730 1668 L731 1668 L732 1668 L733 1668 L734 1668 L735 1668 L736 1668 L737 1668 L738 1668 L739 1668 L740 1668 L741 1668 L742 1668 L743 1668 L744 1668 L745 1668 L746 1669 L747 1669 L748 1669 L749 1669 L750 1669 L751 1669 L752 1669 L753 1669 L754 1669 L755 1669 L756 1669 L757 1669 L758 1669 L759 1669 L760 1669 L761 1669 L762 1669 L763 1669 L764 1669 L765 1669 L766 1669 L767 1669 L768 1669 L769 1669 L770 1669 L771 1669 L772 1669 L773 1669 L774 1669 L775 1669 L776 1669 L777 1669 L778 1669 L779 1669 L780 1669 L781 1669 L782 1669 L783 1669 L784 1669 L785 1669 L786 1669 L787 1669 L788 1669 L789 1669 L790 1669 L791 1669 L792 1669 L793 1669 L794 1669 L795 1669 L796 1669 L797 1669 L798 1669 L799 1669 L800 1669 L801 1669 L802 1669 L803 1669 L804 1669 L805 1669 L806 1669 L807 1669 L808 1669 L809 1669 L810 1669 L811 1669 L812 1669 L813 1669 L814 1669 L815 1669 L816 1669 L817 1669 L818 1669 L819 1669 L820 1669 L821 1668 L822 1668 L823 1668 L824 1668 L825 1668 L826 1668 L827 1668 L828 1668 L829 1668 L830 1668 L831 1668 L832 1668 L833 1668 L834 1668 L835 1668 L836 1668 L837 1668 L838 1668 L839 1668 L840 1668 L841 1668 L842 1668 L843 1668 L844 1668 L845 1667 L846 1667 L847 1667 L848 1667 L849 1667 L850 1666 L851 1666 L852 1666 L853 1666 L854 1666 L855 1665 L856 1665 L857 1665 L858 1665 L859 1665 L860 1664 L861 1664 L862 1664 L863 1664 L864 1663 L865 1663 L866 1663 L867 1663 L868 1663 L869 1662 L870 1662 L871 1662 L872 1661 L873 1661 L874 1661 L875 1660 L876 1660 L877 1660 L878 1660 L879 1659 L880 1659 L881 1658 L882 1658 L883 1658 L884 1657 L885 1657 L886 1657 L887 1656 L888 1656 L889 1655 L890 1655 L891 1655 L892 1654 L893 1654 L894 1653 L895 1653 L896 1652 L897 1652 L898 1651 L899 1651 L900 1650 L901 1650 L902 1649 L903 1648 L904 1647 L905 1647 L906 1646 L907 1645 L908 1644 L909 1644 L910 1643 L911 1642 L912 1641 L913 1640 L914 1639 L915 1638 L916 1637 L917 1636 L918 1635 L918 1634 L919 1633 L920 1632 L921 1631 L922 1630 L922 1629 L923 1628 L924 1627 L925 1626 L925 1625 L926 1624 L927 1623 L927 1622 L928 1621 L929 1620 L930 1619 L931 1618 L931 1617 L932 1616 L933 1615 L934 1614 L935 1613 L936 1612 L937 1611 L938 1610 L939 1609 L940 1608 L941 1607 L942 1606 L943 1605 L944 1604 L944 1603 L945 1602 L946 1601 L947 1600 L948 1599 L949 1598 L950 1597 L951 1596 L952 1595 L953 1594 L954 1593 L955 1592 L955 1591 L956 1590 L957 1589 L958 1588 L959 1587 L959 1586 L960 1585 L961 1584 L962 1583 L962 1582 L963 1581 L964 1580 L965 1579 L966 1578 L967 1577 L967 1576 L968 1575 L969 1574 L970 1573 L971 1572 L972 1571 L973 1570 L974 1569 L975 1568 L976 1567 L977 1566 L978 1565 L979 1564 L980 1564 L981 1563 L982 1562 L983 1562 L984 1561 L985 1561 L986 1560 L987 1560 L988 1560 L989 1560 L990 1560 L991 1561 L992 1561 L993 1562 L994 1563 L995 1564 L996 1565 L997 1566 L997 1567 L998 1568 L999 1569 L1000 1570 L1001 1571 L1001 1572 L1002 1573 L1003 1574 L1004 1575 L1004 1576 L1005 1577 L1006 1578 L1007 1579 L1008 1580 L1008 1581 L1009 1582 L1010 1583 L1011 1584 L1012 1585 L1013 1586 L1014 1587 L1015 1588 L1016 1589 L1017 1589 L1018 1590 L1019 1591 L1020 1592 L1021 1593 L1022 1593 L1023 1594 L1024 1595 L1025 1595 L1026 1596 L1027 1596 L1028 1597 L1029 1597 L1030 1598 L1031 1598 L1032 1599 L1033 1599 L1034 1599 L1035 1599 L1036 1600 L1037 1600 L1038 1600 L1039 1601 L1040 1601 L1041 1601 L1042 1601 L1043 1601 L1044 1601 L1045 1601 L1046 1601 L1047 1602 L1048 1602 L1049 1602 L1050 1602 L1051 1602 L1052 1601 L1053 1601 L1054 1601 L1055 1600 L1056 1600 L1057 1600 L1058 1600 L1059 1599 L1060 1599 L1061 1598 L1062 1598 L1063 1597 L1064 1597 L1065 1596 L1066 1596 L1067 1595 L1068 1595 L1069 1594 L1070 1594 L1071 1593 L1072 1593 L1073 1592 L1074 1592 L1075 1592 L1076 1591 L1077 1591 L1078 1590 L1079 1590 L1080 1589 L1081 1589 L1082 1589 L1083 1588 L1084 1588 L1085 1587 L1086 1587 L1087 1586 L1088 1586 L1089 1586 L1090 1585 L1091 1585 L1092 1584 L1093 1584 L1094 1583 L1095 1583 L1096 1582 L1097 1582 L1098 1581 L1099 1581 L1100 1580 L1101 1580 L1102 1579 L1103 1579 L1104 1578 L1105 1577 L1106 1577 L1107 1576 L1108 1576 L1109 1575 L1110 1575 L1111 1574 L1112 1574 L1113 1573 L1114 1572 L1115 1572 L1116 1571 L1117 1571 L1118 1570 L1119 1570 L1120 1569 L1121 1568 L1122 1568 L1123 1567 L1124 1567 L1125 1566 L1126 1565 L1127 1565 L1128 1564 L1129 1564 L1130 1563 L1131 1562 L1132 1562 L1133 1561 L1134 1561 L1135 1560 L1136 1559 L1137 1559 L1138 1558 L1139 1558 L1140 1557 L1141 1556 L1142 1556 L1143 1555 L1144 1555 L1145 1554 L1146 1554 L1147 1553 L1148 1553 L1149 1552 L1150 1552 L1151 1551 L1152 1551 L1153 1550 L1154 1550 L1155 1549 L1156 1548 L1157 1548 L1158 1547 L1159 1547 L1160 1546 L1161 1546 L1162 1545 L1163 1545 L1164 1544 L1165 1544 L1166 1543 L1167 1543 L1168 1542 L1169 1541 L1170 1541 L1171 1540 L1172 1540 L1173 1539 L1174 1538 L1175 1538 L1176 1537 L1177 1536 L1178 1536 L1179 1535 L1180 1534 L1181 1533 L1182 1533 L1183 1532 L1184 1531 L1185 1531 L1186 1530 L1187 1529 L1188 1529 L1189 1528 L1190 1527 L1191 1527 L1192 1526 L1193 1526 L1194 1525 L1195 1525 L1196 1524 L1197 1523 L1198 1523 L1199 1522 L1200 1521 L1201 1521 L1202 1520 L1203 1519 L1204 1519 L1205 1518 L1206 1517 L1207 1516 L1208 1515 L1209 1514 L1210 1513 L1211 1512 L1212 1512 L1213 1511 L1214 1510 L1215 1509 L1216 1508 L1217 1508 L1218 1507 L1219 1506 L1220 1506 L1221 1505 L1222 1504 L1223 1504 L1224 1503 L1225 1502 L1226 1502 L1227 1501 L1228 1500 L1229 1500 L1230 1499 L1231 1498 L1232 1498 L1233 1497 L1234 1496 L1235 1496 L1236 1495 L1237 1494 L1238 1494 L1239 1493 L1240 1492 L1241 1491 L1242 1491 L1243 1490 L1244 1489 L1245 1488 L1246 1488 L1247 1487 L1248 1486 L1249 1485 L1250 1485 L1251 1484 L1252 1483 L1253 1483 L1254 1482 L1255 1481 L1256 1480 L1257 1480 L1258 1479 L1259 1479 L1260 1478 L1261 1478 L1262 1477 L1263 1476 L1264 1476 L1265 1475 L1266 1474 L1267 1474 L1268 1473 L1269 1473 L1270 1472 L1271 1472 L1272 1471 L1273 1471 L1274 1470 L1275 1469 L1276 1469 L1277 1468 L1278 1467 L1279 1466 L1280 1466 L1281 1465 L1282 1464 L1283 1463 L1284 1462 L1285 1461 L1286 1460 L1287 1459 L1288 1458 L1289 1457 L1290 1456 L1291 1455 L1292 1454 L1293 1453 L1294 1452 L1294 1451 L1295 1450 L1296 1449 L1297 1448 L1298 1447 L1298 1446 L1299 1445 L1300 1444 L1301 1443 L1302 1442 L1303 1441 L1304 1440 L1305 1439 L1306 1438 L1307 1437 L1308 1436 L1309 1435 L1310 1434 L1311 1433 L1312 1432 L1313 1431 L1314 1430 L1315 1429 L1316 1428 L1317 1427 L1318 1426 L1319 1425 L1320 1424 L1321 1424 L1322 1423 L1323 1422 L1324 1421 L1325 1420 L1326 1419 L1327 1419 L1328 1418 L1329 1417 L1330 1416 L1331 1415 L1332 1414 L1333 1414 L1334 1413 L1335 1412 L1336 1411 L1337 1411 L1338 1410 L1339 1409 L1340 1408 L1341 1407 L1342 1407 L1343 1406 L1344 1405 L1345 1404 L1346 1403 L1347 1403 L1348 1402 L1349 1401 L1350 1400 L1351 1399 L1352 1398 L1353 1397 L1354 1396 L1355 1395 L1356 1394 L1357 1393 L1358 1392 L1359 1391 L1360 1390 L1360 1389 L1361 1388 L1362 1387 L1363 1386 L1364 1385 L1365 1384 L1366 1383 L1366 1382 L1367 1381 L1368 1380 L1369 1379 L1370 1378 L1370 1377 L1371 1376 L1372 1375 L1373 1374 L1373 1373 L1374 1372 L1375 1371 L1376 1370 L1377 1369 L1378 1368 L1379 1367 L1379 1366 L1380 1365 L1381 1364 L1382 1363 L1383 1362 L1384 1361 L1385 1360 L1385 1359 L1386 1358 L1387 1357 L1388 1356 L1389 1355 L1390 1354 L1391 1353 L1392 1352 L1393 1351 L1394 1350 L1395 1349 L1395 1348 L1396 1347 L1397 1346 L1398 1345 L1399 1344 L1400 1343 L1401 1342 L1402 1341 L1403 1340 L1404 1339 L1405 1338 L1406 1337 L1407 1336 L1407 1335 L1408 1334 L1409 1333 L1410 1332 L1411 1331 L1411 1330 L1412 1329 L1413 1328 L1414 1327 L1414 1326 L1415 1325 L1416 1324 L1417 1323 L1417 1322 L1418 1321 L1419 1320 L1420 1319 L1421 1318 L1422 1317 L1422 1316 L1423 1315 L1424 1314 L1425 1313 L1426 1312 L1426 1311 L1427 1310 L1428 1309 L1428 1308 L1429 1307 L1430 1306 L1430 1305 L1431 1304 L1432 1303 L1432 1302 L1433 1301 L1433 1300 L1434 1299 L1434 1298 L1435 1297 L1435 1296 L1436 1295 L1437 1294 L1437 1293 L1438 1292 L1438 1291 L1439 1290 L1439 1289 L1440 1288 L1441 1287 L1441 1286 L1442 1285 L1443 1284 L1443 1283 L1444 1282 L1445 1281 L1445 1280 L1446 1279 L1447 1278 L1447 1277 L1448 1276 L1449 1275 L1450 1274 L1450 1273 L1451 1272 L1452 1271 L1453 1270 L1453 1269 L1454 1268 L1455 1267 L1455 1266 L1456 1265 L1457 1264 L1458 1263 L1458 1262 L1459 1261 L1460 1260 L1460 1259 L1461 1258 L1462 1257 L1462 1256 L1463 1255 L1464 1254 L1464 1253 L1465 1252 L1465 1251 L1466 1250 L1466 1249 L1467 1248 L1468 1247 L1468 1246 L1469 1245 L1469 1244 L1470 1243 L1470 1242 L1471 1241 L1471 1240 L1472 1239 L1473 1238 L1473 1237 L1474 1236 L1474 1235 L1475 1234 L1475 1233 L1476 1232 L1476 1231 L1477 1230 L1477 1229 L1478 1228 L1478 1227 L1479 1226 L1480 1225 L1480 1224 L1481 1223 L1481 1222 L1482 1221 L1483 1220 L1483 1219 L1484 1218 L1484 1217 L1485 1216 L1485 1215 L1486 1214 L1487 1213 L1487 1212 L1488 1211 L1489 1210 L1489 1209 L1490 1208 L1490 1207 L1491 1206 L1492 1205 L1492 1204 L1493 1203 L1493 1202 L1494 1201 L1494 1200 L1495 1199 L1495 1198 L1496 1197 L1496 1196 L1497 1195 L1497 1194 L1498 1193 L1498 1192 L1499 1191 L1499 1190 L1500 1189 L1500 1188 L1501 1187 L1501 1186 L1501 1185 L1502 1184 L1502 1183 L1503 1182 L1503 1181 L1504 1180 L1505 1179 L1505 1178 L1506 1177 L1506 1176 L1507 1175 L1507 1174 L1508 1173 L1508 1172 L1509 1171 L1509 1170 L1510 1169 L1511 1168 L1511 1167 L1512 1166 L1513 1165 L1513 1164 L1514 1163 L1514 1162 L1515 1161 L1516 1160 L1516 1159 L1517 1158 L1518 1157 L1518 1156 L1519 1155 L1519 1154 L1520 1153 L1520 1152 L1520 1151 L1521 1150 L1521 1149 L1521 1148 L1522 1147 L1522 1146 L1522 1145 L1522 1144 L1523 1143 L1523 1142 L1523 1141 L1523 1140 L1523 1139 L1524 1138 L1524 1137 L1524 1136 L1524 1135 L1524 1134 L1524 1133 L1525 1132 L1525 1131 L1525 1130 L1525 1129 L1525 1128 L1525 1127 L1526 1126 L1526 1125 L1526 1124 L1526 1123 L1526 1122 L1527 1121 L1527 1120 L1527 1119 L1527 1118 L1527 1117 L1528 1116 L1528 1115 L1528 1114 L1528 1113 L1529 1112 L1529 1111 L1529 1110 L1530 1109 L1530 1108 L1530 1107 L1531 1106 L1531 1105 L1531 1104 L1532 1103 L1532 1102 L1533 1101 L1533 1100 L1534 1099 L1534 1098 L1535 1097 L1535 1096 L1536 1095 L1536 1094 L1537 1093 L1537 1092 L1538 1091 L1538 1090 L1539 1089 L1539 1088 L1540 1087 L1540 1086 L1541 1085 L1541 1084 L1542 1083 L1542 1082 L1543 1081 L1543 1080 L1544 1079 L1544 1078 L1544 1077 L1545 1076 L1545 1075 L1545 1074 L1546 1073 L1546 1072 L1546 1071 L1547 1070 L1547 1069 L1547 1068 L1548 1067 L1548 1066 L1548 1065 L1548 1064 L1549 1063 L1549 1062 L1549 1061 L1549 1060 L1549 1059 L1550 1058 L1550 1057 L1550 1056 L1550 1055 L1551 1054 L1551 1053 L1551 1052 L1551 1051 L1551 1050 L1551 1049 L1552 1048 L1552 1047 L1552 1046 L1552 1045 L1552 1044 L1552 1043 L1553 1042 L1553 1041 L1553 1040 L1553 1039 L1553 1038 L1553 1037 L1553 1036 L1554 1035 L1554 1034 L1554 1033 L1554 1032 L1554 1031 L1554 1030 L1555 1029 L1555 1028 L1555 1027 L1555 1026 L1555 1025 L1555 1024 L1555 1023 L1556 1022 L1556 1021 L1556 1020 L1556 1019 L1556 1018 L1556 1017 L1556 1016 L1557 1015 L1557 1014 L1557 1013 L1557 1012 L1557 1011 L1557 1010 L1558 1009 L1558 1008 L1558 1007 L1558 1006 L1558 1005 L1558 1004 L1559 1003 L1559 1002 L1559 1001 L1559 1000 L1559 999 L1559 998 L1560 997 L1560 996 L1560 995 L1560 994 L1560 993 L1561 992 L1561 991 L1561 990 L1561 989 L1561 988 L1562 987 L1562 986 L1562 985 L1562 984 L1562 983 L1562 982 L1563 981 L1563 980 L1563 979 L1563 978 L1563 977 L1564 976 L1564 975 L1564 974 L1564 973 L1564 972 L1565 971 L1565 970 L1565 969 L1565 968 L1565 967 L1566 966 L1566 965 L1566 964 L1566 963 L1566 962 L1566 961 L1567 960 L1567 959 L1567 958 L1567 957 L1567 956 L1568 955 L1568 954 L1568 953 L1568 952 L1568 951 L1568 950 L1569 949 L1569 948 L1569 947 L1569 946 L1569 945 L1569 944 L1570 943 L1570 942 L1570 941 L1570 940 L1570 939 L1570 938 L1570 937 L1570 936 L1571 935 L1571 934 L1571 933 L1571 932 L1571 931 L1571 930 L1571 929 L1571 928 L1571 927 L1571 926 L1571 925 L1571 924 L1571 923 L1571 922 L1571 921 L1571 920 L1571 919 L1571 918 L1571 917 L1571 916 L1571 915 L1571 914 L1571 913 L1571 912 L1571 911 L1571 910 L1571 909 L1571 908 L1571 907 L1571 906 L1571 905 L1571 904 L1571 903 L1571 902 L1571 901 L1571 900 L1571 899 L1571 898 L1571 897 L1571 896 L1570 895 L1570 894 L1570 893 L1570 892 L1569 891 L1569 890 L1569 889 L1568 888 L1568 887 L1568 886 L1567 885 L1567 884 L1566 883 L1566 882 L1566 881 L1565 880 L1565 879 L1564 878 L1564 877 L1563 876 L1562 875 L1562 874 L1561 873 L1560 872 L1559 871 L1558 870 L1558 869 L1557 868 L1556 867 L1555 867 L1554 866 L1553 865 L1552 864 L1551 863 L1550 862 L1549 861 L1548 861 L1547 860 L1546 859 L1545 859 L1544 858 L1543 858 L1542 858 L1541 857 L1540 857 L1539 857 L1538 857 L1537 857 L1536 857 L1535 857 L1534 857 L1533 857 L1532 858 L1531 858 L1530 859 L1529 859 L1528 860 L1527 861 L1526 862 L1525 863 L1524 864 L1523 865 L1522 866 L1522 867 L1521 868 L1521 869 L1520 870 L1519 871 L1519 872 L1518 873 L1518 874 L1517 875 L1517 876 L1516 877 L1516 878 L1515 879 L1515 880 L1515 881 L1514 882 L1514 883 L1513 884 L1513 885 L1513 886 L1512 887 L1512 888 L1512 889 L1511 890 L1511 891 L1511 892 L1510 893 L1510 894 L1510 895 L1509 896 L1509 897 L1509 898 L1509 899 L1508 900 L1508 901 L1508 902 L1508 903 L1507 904 L1507 905 L1507 906 L1507 907 L1506 908 L1506 909 L1506 910 L1506 911 L1506 912 L1505 913 L1505 914 L1505 915 L1505 916 L1505 917 L1504 918 L1504 919 L1504 920 L1504 921 L1504 922 L1503 923 L1503 924 L1503 925 L1503 926 L1502 927 L1502 928 L1502 929 L1502 930 L1502 931 L1501 932 L1501 933 L1501 934 L1501 935 L1501 936 L1501 937 L1500 938 L1500 939 L1500 940 L1500 941 L1500 942 L1500 943 L1500 944 L1499 945 L1499 946 L1499 947 L1499 948 L1499 949 L1499 950 L1499 951 L1498 952 L1498 953 L1498 954 L1498 955 L1498 956 L1498 957 L1498 958 L1498 959 L1498 960 L1497 961 L1497 962 L1497 963 L1497 964 L1497 965 L1497 966 L1497 967 L1497 968 L1497 969 L1496 970 L1496 971 L1496 972 L1496 973 L1496 974 L1496 975 L1496 976 L1496 977 L1495 978 L1495 979 L1495 980 L1495 981 L1495 982 L1495 983 L1495 984 L1495 985 L1495 986 L1495 987 L1494 988 L1494 989 L1494 990 L1494 991 L1494 992 L1494 993 L1494 994 L1494 995 L1494 996 L1494 997 L1493 998 L1493 999 L1493 1000 L1493 1001 L1493 1002 L1493 1003 L1493 1004 L1493 1005 L1493 1006 L1492 1007 L1492 1008 L1492 1009 L1492 1010 L1492 1011 L1492 1012 L1492 1013 L1492 1014 L1491 1015 L1491 1016 L1491 1017 L1491 1018 L1491 1019 L1491 1020 L1491 1021 L1490 1022 L1490 1023 L1490 1024 L1490 1025 L1490 1026 L1489 1027 L1489 1028 L1489 1029 L1489 1030 L1488 1031 L1488 1032 L1488 1033 L1488 1034 L1487 1035 L1487 1036 L1487 1037 L1486 1038 L1486 1039 L1486 1040 L1485 1041 L1485 1042 L1485 1043 L1484 1044 L1484 1045 L1484 1046 L1483 1047 L1483 1048 L1483 1049 L1482 1050 L1482 1051 L1481 1052 L1481 1053 L1481 1054 L1480 1055 L1480 1056 L1480 1057 L1479 1058 L1479 1059 L1479 1060 L1478 1061 L1478 1062 L1478 1063 L1478 1064 L1477 1065 L1477 1066 L1477 1067 L1476 1068 L1476 1069 L1476 1070 L1475 1071 L1475 1072 L1475 1073 L1475 1074 L1474 1075 L1474 1076 L1474 1077 L1473 1078 L1473 1079 L1473 1080 L1472 1081 L1472 1082 L1472 1083 L1471 1084 L1471 1085 L1471 1086 L1470 1087 L1470 1088 L1470 1089 L1469 1090 L1469 1091 L1469 1092 L1468 1093 L1468 1094 L1468 1095 L1467 1096 L1467 1097 L1467 1098 L1466 1099 L1466 1100 L1466 1101 L1465 1102 L1465 1103 L1464 1104 L1464 1105 L1464 1106 L1463 1107 L1463 1108 L1463 1109 L1463 1110 L1462 1111 L1462 1112 L1462 1113 L1461 1114 L1461 1115 L1461 1116 L1460 1117 L1460 1118 L1460 1119 L1459 1120 L1459 1121 L1459 1122 L1459 1123 L1458 1124 L1458 1125 L1458 1126 L1457 1127 L1457 1128 L1457 1129 L1456 1130 L1456 1131 L1456 1132 L1455 1133 L1455 1134 L1455 1135 L1454 1136 L1454 1137 L1454 1138 L1453 1139 L1453 1140 L1453 1141 L1452 1142 L1452 1143 L1451 1144 L1451 1145 L1450 1146 L1450 1147 L1449 1148 L1449 1149 L1448 1150 L1448 1151 L1447 1152 L1447 1153 L1446 1154 L1445 1155 L1444 1156 L1444 1157 L1443 1158 L1442 1159 L1441 1160 L1441 1161 L1440 1162 L1439 1163 L1438 1164 L1438 1165 L1437 1166 L1436 1167 L1436 1168 L1435 1169 L1435 1170 L1435 1171 L1434 1172 L1434 1173 L1433 1174 L1433 1175 L1432 1176 L1432 1177 L1432 1178 L1431 1179 L1431 1180 L1430 1181 L1430 1182 L1430 1183 L1429 1184 L1429 1185 L1428 1186 L1428 1187 L1428 1188 L1427 1189 L1427 1190 L1426 1191 L1426 1192 L1426 1193 L1425 1194 L1425 1195 L1424 1196 L1424 1197 L1423 1198 L1422 1199 L1422 1200 L1421 1201 L1421 1202 L1420 1203 L1419 1204 L1419 1205 L1418 1206 L1417 1207 L1417 1208 L1416 1209 L1415 1210 L1415 1211 L1414 1212 L1413 1213 L1413 1214 L1412 1215 L1411 1216 L1411 1217 L1410 1218 L1410 1219 L1409 1220 L1408 1221 L1408 1222 L1407 1223 L1407 1224 L1406 1225 L1405 1226 L1405 1227 L1404 1228 L1404 1229 L1403 1230 L1403 1231 L1402 1232 L1402 1233 L1401 1234 L1400 1235 L1400 1236 L1399 1237 L1399 1238 L1398 1239 L1397 1240 L1397 1241 L1396 1242 L1395 1243 L1394 1244 L1394 1245 L1393 1246 L1392 1247 L1392 1248 L1391 1249 L1390 1250 L1389 1251 L1388 1252 L1388 1253 L1387 1254 L1386 1255 L1385 1256 L1384 1257 L1383 1258 L1383 1259 L1382 1260 L1381 1261 L1380 1262 L1379 1263 L1378 1264 L1377 1265 L1376 1266 L1376 1267 L1375 1268 L1374 1269 L1373 1270 L1372 1271 L1371 1272 L1370 1273 L1370 1274 L1369 1275 L1368 1276 L1367 1277 L1366 1278 L1365 1279 L1365 1280 L1364 1281 L1363 1282 L1362 1283 L1361 1284 L1361 1285 L1360 1286 L1359 1287 L1358 1288 L1357 1289 L1356 1290 L1356 1291 L1355 1292 L1354 1293 L1353 1294 L1352 1295 L1351 1296 L1350 1297 L1349 1298 L1348 1299 L1347 1300 L1346 1301 L1345 1302 L1344 1303 L1343 1304 L1342 1305 L1342 1306 L1341 1307 L1340 1308 L1339 1309 L1338 1310 L1337 1311 L1336 1312 L1335 1313 L1334 1314 L1333 1315 L1332 1316 L1331 1317 L1330 1318 L1329 1319 L1328 1320 L1327 1321 L1326 1322 L1325 1323 L1324 1324 L1323 1325 L1322 1326 L1322 1327 L1321 1328 L1320 1329 L1319 1330 L1318 1331 L1317 1332 L1316 1333 L1315 1334 L1314 1335 L1313 1336 L1312 1337 L1312 1338 L1311 1339 L1310 1340 L1309 1341 L1308 1342 L1307 1343 L1306 1344 L1306 1345 L1305 1346 L1304 1347 L1303 1348 L1302 1349 L1302 1350 L1301 1351 L1300 1352 L1299 1353 L1299 1354 L1298 1355 L1297 1356 L1297 1357 L1296 1358 L1295 1359 L1295 1360 L1294 1361 L1293 1362 L1293 1363 L1292 1364 L1291 1365 L1291 1366 L1290 1367 L1290 1368 L1289 1369 L1288 1370 L1288 1371 L1287 1372 L1286 1373 L1285 1374 L1284 1375 L1283 1376 L1282 1377 L1281 1378 L1280 1379 L1279 1379 L1278 1380 L1277 1381 L1276 1382 L1275 1382 L1274 1383 L1273 1384 L1272 1384 L1271 1385 L1270 1386 L1269 1386 L1268 1387 L1267 1388 L1266 1388 L1265 1389 L1264 1390 L1263 1390 L1262 1391 L1261 1392 L1260 1392 L1259 1393 L1258 1394 L1257 1395 L1256 1395 L1255 1396 L1254 1397 L1253 1398 L1252 1399 L1251 1399 L1250 1400 L1249 1401 L1248 1402 L1247 1402 L1246 1403 L1245 1404 L1244 1404 L1243 1405 L1242 1406 L1241 1407 L1240 1407 L1239 1408 L1238 1408 L1237 1409 L1236 1410 L1235 1410 L1234 1411 L1233 1412 L1232 1412 L1231 1413 L1230 1414 L1229 1415 L1228 1415 L1227 1416 L1226 1417 L1225 1418 L1224 1419 L1223 1420 L1222 1421 L1221 1421 L1220 1422 L1219 1423 L1218 1424 L1217 1425 L1216 1425 L1215 1426 L1214 1427 L1213 1428 L1212 1429 L1211 1429 L1210 1430 L1209 1431 L1208 1432 L1207 1432 L1206 1433 L1205 1434 L1204 1435 L1203 1435 L1202 1436 L1201 1437 L1200 1437 L1199 1438 L1198 1439 L1197 1440 L1196 1440 L1195 1441 L1194 1442 L1193 1442 L1192 1443 L1191 1444 L1190 1445 L1189 1445 L1188 1446 L1187 1447 L1186 1448 L1185 1448 L1184 1449 L1183 1450 L1182 1451 L1181 1451 L1180 1452 L1179 1453 L1178 1453 L1177 1454 L1176 1455 L1175 1456 L1174 1456 L1173 1457 L1172 1458 L1171 1458 L1170 1459 L1169 1460 L1168 1460 L1167 1461 L1166 1462 L1165 1462 L1164 1463 L1163 1463 L1162 1464 L1161 1464 L1160 1465 L1159 1466 L1158 1466 L1157 1467 L1156 1467 L1155 1468 L1154 1468 L1153 1469 L1152 1469 L1151 1470 L1150 1470 L1149 1471 L1148 1471 L1147 1472 L1146 1473 L1145 1473 L1144 1474 L1143 1474 L1142 1475 L1141 1475 L1140 1476 L1139 1477 L1138 1477 L1137 1478 L1136 1478 L1135 1479 L1134 1480 L1133 1480 L1132 1481 L1131 1482 L1130 1482 L1129 1483 L1128 1484 L1127 1484 L1126 1485 L1125 1486 L1124 1486 L1123 1487 L1122 1488 L1121 1489 L1120 1489 L1119 1490 L1118 1490 L1117 1491 L1116 1492 L1115 1492 L1114 1493 L1113 1494 L1112 1494 L1111 1495 L1110 1495 L1109 1496 L1108 1496 L1107 1497 L1106 1497 L1105 1498 L1104 1499 L1103 1499 L1102 1500 L1101 1500 L1100 1501 L1099 1501 L1098 1502 L1097 1502 L1096 1503 L1095 1503 L1094 1504 L1093 1504 L1092 1505 L1091 1505 L1090 1506 L1089 1506 L1088 1507 L1087 1507 L1086 1507 L1085 1508 L1084 1508 L1083 1509 L1082 1509 L1081 1509 L1080 1509 L1079 1508 L1078 1508 L1077 1507 L1076 1506 L1075 1505 L1074 1504 L1074 1503 L1073 1502 L1073 1501 L1072 1500 L1072 1499 L1072 1498 L1071 1497 L1071 1496 L1071 1495 L1070 1494 L1070 1493 L1070 1492 L1070 1491 L1069 1490 L1069 1489 L1069 1488 L1069 1487 L1069 1486 L1069 1485 L1069 1484 L1068 1483 L1068 1482 L1068 1481 L1068 1480 L1068 1479 L1068 1478 L1068 1477 L1068 1476 L1068 1475 L1068 1474 L1067 1473 L1067 1472 L1067 1471 L1067 1470 L1067 1469 L1067 1468 L1067 1467 L1067 1466 L1067 1465 L1067 1464 L1067 1463 L1067 1462 L1067 1461 L1066 1460 L1066 1459 L1066 1458 L1066 1457 L1066 1456 L1066 1455 L1066 1454 L1066 1453 L1066 1452 L1066 1451 L1065 1450 L1065 1449 L1065 1448 L1065 1447 L1065 1446 L1065 1445 L1065 1444 L1065 1443 L1064 1442 L1064 1441 L1064 1440 L1064 1439 L1064 1438 L1063 1437 L1063 1436 L1063 1435 L1062 1434 L1062 1433 L1062 1432 L1062 1431 L1061 1430 L1061 1429 L1060 1428 L1060 1427 L1060 1426 L1059 1425 L1059 1424 L1058 1423 L1057 1422 L1057 1421 L1056 1420 L1055 1419 L1055 1418 L1054 1417 L1053 1416 L1052 1416 L1051 1415 L1050 1415 L1049 1414 L1048 1413 L1047 1413 L1046 1413 L1045 1412 L1044 1412 L1043 1412 L1042 1411 L1041 1411 L1040 1411 L1039 1411 L1038 1411 L1037 1410 L1036 1410 L1035 1410 L1034 1410 L1033 1410 L1032 1410 L1031 1410 L1030 1411 L1029 1411 L1028 1411 L1027 1411 L1026 1411 L1025 1412 L1024 1412 L1023 1412 L1022 1412 L1021 1413 L1020 1413 L1019 1413 L1018 1414 L1017 1414 L1016 1415 L1015 1415 L1014 1416 L1013 1416 L1012 1417 L1011 1417 L1010 1418 L1009 1418 L1008 1419 L1007 1420 L1006 1421 L1005 1422 L1004 1423 L1003 1424 L1002 1425 L1001 1426 L1000 1427 L999 1428 L998 1429 L998 1430 L997 1431 L996 1432 L995 1433 L994 1434 L993 1435 L993 1436 L992 1437 L991 1438 L990 1439 L989 1440 L989 1441 L988 1442 L987 1443 L986 1444 L985 1445 L985 1446 L984 1447 L983 1448 L982 1449 L982 1450 L981 1451 L980 1452 L979 1453 L979 1454 L978 1455 L977 1456 L976 1457 L976 1458 L975 1459 L974 1460 L974 1461 L973 1462 L972 1463 L972 1464 L971 1465 L970 1466 L970 1467 L969 1468 L968 1469 L967 1470 L967 1471 L966 1472 L965 1473 L964 1474 L963 1475 L962 1476 L961 1477 L961 1478 L960 1479 L959 1480 L958 1481 L958 1482 L957 1483 L956 1484 L955 1485 L955 1486 L954 1487 L953 1488 L952 1489 L951 1490 L950 1491 L950 1492 L949 1493 L948 1494 L947 1495 L946 1496 L945 1497 L944 1498 L943 1499 L942 1500 L941 1501 L940 1502 L939 1503 L938 1504 L937 1505 L936 1506 L935 1507 L934 1508 L934 1509 L933 1510 L932 1511 L931 1512 L930 1513 L929 1514 L929 1515 L928 1516 L927 1517 L926 1518 L925 1519 L925 1520 L924 1521 L923 1522 L922 1523 L922 1524 L921 1525 L920 1526 L920 1527 L919 1528 L918 1529 L917 1530 L917 1531 L916 1532 L915 1533 L914 1534 L914 1535 L913 1536 L912 1537 L912 1538 L911 1539 L910 1540 L909 1541 L908 1542 L907 1543 L907 1544 L906 1545 L905 1546 L904 1547 L903 1548 L902 1549 L901 1550 L900 1551 L900 1552 L899 1553 L898 1554 L897 1555 L896 1556 L895 1557 L894 1558 L893 1559 L892 1560 L891 1561 L890 1562 L889 1563 L888 1564 L887 1565 L886 1566 L885 1567 L884 1568 L883 1569 L882 1570 L881 1571 L880 1572 L879 1573 L878 1574 L877 1575 L876 1576 L875 1577 L874 1578 L873 1579 L872 1580 L871 1581 L870 1582 L869 1583 L868 1584 L867 1585 L866 1586 L865 1587 L864 1588 L863 1589 L862 1590 L861 1591 L860 1592 L859 1593 L858 1594 L857 1595 L856 1595 L855 1596 L854 1596 L853 1597 L852 1598 L851 1598 L850 1599 L849 1599 L848 1599 L847 1600 L846 1600 L845 1601 L844 1601 L843 1601 L842 1602 L841 1602 L840 1603 L839 1603 L838 1603 L837 1604 L836 1604 L835 1604 L834 1604 L833 1604 L832 1605 L831 1605 L830 1605 L829 1605 L828 1605 L827 1605 L826 1605 L825 1605 L824 1606 L823 1606 L822 1606 L821 1606 L820 1606 L819 1606 L818 1606 L817 1606 L816 1606 L815 1606 L814 1606 L813 1606 L812 1606 L811 1606 L810 1606 L809 1606 L808 1606 L807 1606 L806 1606 L805 1606 L804 1607 L803 1607 L802 1607 L801 1607 L800 1607 L799 1607 L798 1607 L797 1607 L796 1607 L795 1607 L794 1607 L793 1607 L792 1607 L791 1607 L790 1607 L789 1607 L788 1606 L787 1606 L786 1606 L785 1606 L784 1606 L783 1606 L782 1606 L781 1606 L780 1606 L779 1606 L778 1606 L777 1606 L776 1606 L775 1606 L774 1606 L773 1606 L772 1606 L771 1606 L770 1606 L769 1606 L768 1606 L767 1606 L766 1606 L765 1606 L764 1606 L763 1606 L762 1606 L761 1606 L760 1606 L759 1606 L758 1605 L757 1605 L756 1605 L755 1605 L754 1605 L753 1605 L752 1605 L751 1605 L750 1605 L749 1605 L748 1605 L747 1605 L746 1604 L745 1604 L744 1604 L743 1604 L742 1604 L741 1604 L740 1604 L739 1604 L738 1604 L737 1603 L736 1603 L735 1603 L734 1603 L733 1603 L732 1603 L731 1602 L730 1602 L729 1602 L728 1602 L727 1602 L726 1601 L725 1601 L724 1601 L723 1601 L722 1600 L721 1600 L720 1600 L719 1599 L718 1599 L717 1599 L716 1598 L715 1598 L714 1598 L713 1597 L712 1597 L711 1596 L710 1596 L709 1596 L708 1595 L707 1595 L706 1594 L705 1594 L704 1594 L703 1593 L702 1593 L701 1593 L700 1592 L699 1592 L698 1592 L697 1591 L696 1591 L695 1590 L694 1590 L693 1590 L692 1589 L691 1589 L690 1589 L689 1588 L688 1588 L687 1588 L686 1587 L685 1587 L684 1587 L683 1586 L682 1586 L681 1586 L680 1585 L679 1585 L678 1584 L677 1584 L676 1584 L675 1583 L674 1583 L673 1583 L672 1582 L671 1582 L670 1582 L669 1581 L668 1581 L667 1580 L666 1580 L665 1580 L664 1579 L663 1579 L662 1579 L661 1578 L660 1578 L659 1578 L658 1577 L657 1577 L656 1576 L655 1576 L654 1576 L653 1575 L652 1575 L651 1574 L650 1574 L649 1574 L648 1573 L647 1573 L646 1572 L645 1572 L644 1571 L643 1571 L642 1571 L641 1570 L640 1570 L639 1569 L638 1569 L637 1568 L636 1568 L635 1567 L634 1566 L633 1566 L632 1565 L631 1565 L630 1564 L629 1564 L628 1563 L627 1563 L626 1562 L625 1561 L624 1561 L623 1560 L622 1560 L621 1559 L620 1559 L619 1558 L618 1557 L617 1557 L616 1556 L615 1556 L614 1555 L613 1554 L612 1554 L611 1553 L610 1553 L609 1552 L608 1551 L607 1551 L606 1550 L605 1549 L604 1549 L603 1548 L602 1547 L601 1547 L600 1546 L599 1545 L598 1544 L597 1544 L596 1543 L595 1542 L594 1541 L593 1540 L592 1540 L591 1539 L590 1538 L589 1537 L588 1537 L587 1536 L586 1535 L585 1534 L584 1533 L583 1533 L582 1532 L581 1531 L580 1530 L579 1529 L578 1528 L577 1528 L576 1527 L575 1526 L574 1525 L573 1524 L572 1523 L571 1522 L570 1521 L569 1520 L568 1519 L567 1518 L566 1517 L565 1516 L564 1515 L563 1515 L562 1514 L561 1513 L560 1512 L560 1511 L559 1510 L558 1509 L557 1508 L556 1507 L555 1506 L555 1505 L554 1504 L553 1503 L552 1502 L551 1501 L551 1500 L550 1499 L549 1498 L549 1497 L548 1496 L547 1495 L547 1494 L546 1493 L545 1492 L545 1491 L544 1490 L543 1489 L543 1488 L542 1487 L542 1486 L541 1485 L541 1484 L540 1483 L539 1482 L539 1481 L538 1480 L538 1479 L537 1478 L537 1477 L536 1476 L536 1475 L535 1474 L535 1473 L534 1472 L534 1471 L533 1470 L533 1469 L532 1468 L532 1467 L532 1466 L531 1465 L531 1464 L530 1463 L530 1462 L530 1461 L529 1460 L529 1459 L528 1458 L528 1457 L528 1456 L527 1455 L527 1454 L527 1453 L526 1452 L526 1451 L526 1450 L526 1449 L525 1448 L525 1447 L525 1446 L524 1445 L524 1444 L524 1443 L524 1442 L523 1441 L523 1440 L523 1439 L523 1438 L522 1437 L522 1436 L522 1435 L522 1434 L521 1433 L521 1432 L521 1431 L521 1430 L520 1429 L520 1428 L520 1427 L520 1426 L519 1425 L519 1424 L519 1423 L518 1422 L518 1421 L518 1420 L518 1419 L517 1418 L517 1417 L517 1416 L517 1415 L517 1414 L516 1413 L516 1412 L516 1411 L516 1410 L515 1409 L515 1408 L515 1407 L515 1406 L515 1405 L515 1404 L514 1403 L514 1402 L514 1401 L514 1400 L514 1399 L514 1398 L514 1397 L514 1396 L515 1395 L515 1394 L515 1393 L515 1392 L515 1391 L516 1390 L516 1389 L516 1388 L517 1387 L517 1386 L517 1385 L518 1384 L518 1383 L518 1382 L519 1381 L519 1380 L519 1379 L520 1378 L520 1377 L520 1376 L521 1375 L521 1374 L521 1373 L522 1372 L522 1371 L522 1370 L523 1369 L523 1368 L523 1367 L524 1366 L524 1365 L524 1364 L525 1363 L525 1362 L525 1361 L525 1360 L526 1359 L526 1358 L526 1357 L527 1356 L527 1355 L527 1354 L527 1353 L528 1352 L528 1351 L528 1350 L529 1349 L529 1348 L529 1347 L530 1346 L530 1345 L530 1344 L531 1343 L531 1342 L531 1341 L532 1340 L532 1339 L533 1338 L533 1337 L533 1336 L534 1335 L534 1334 L535 1333 L535 1332 L535 1331 L536 1330 L536 1329 L537 1328 L537 1327 L538 1326 L538 1325 L539 1324 L539 1323 L540 1322 L541 1321 L541 1320 L542 1319 L542 1318 L543 1317 L544 1316 L544 1315 L545 1314 L545 1313 L546 1312 L547 1311 L548 1310 L548 1309 L549 1308 L550 1307 L551 1306 L552 1305 L553 1304 L553 1303 L554 1302 L555 1301 L556 1300 L557 1299 L558 1298 L559 1297 L560 1296 L561 1295 L562 1294 L563 1293 L564 1292 L565 1291 L565 1290 L566 1289 L567 1288 L568 1287 L569 1287 L570 1286 L571 1285 L572 1284 L573 1283 L574 1282 L575 1281 L576 1280 L577 1279 L578 1278 L579 1277 L580 1276 L581 1276 L582 1275 L583 1274 L584 1273 L585 1272 L586 1272 L587 1271 L588 1270 L589 1269 L590 1268 L591 1267 L592 1266 L593 1265 L594 1264 L595 1263 L596 1262 L597 1261 L598 1261 L599 1260 L600 1259 L601 1258 L602 1257 L603 1257 L604 1256 L605 1255 L606 1254 L607 1254 L608 1253 L609 1252 L610 1252 L611 1251 L612 1251 L613 1250 L614 1249 L615 1249 L616 1248 L617 1247 L618 1247 L619 1246 L620 1246 L621 1245 L622 1244 L623 1244 L624 1243 L625 1243 L626 1242 L627 1241 L628 1241 L629 1240 L630 1239 L631 1239 L632 1238 L633 1237 L634 1237 L635 1236 L636 1235 L637 1235 L638 1234 L639 1234 L640 1233 L641 1233 L642 1232 L643 1232 L644 1231 L645 1231 L646 1230 L647 1229 L648 1229 L649 1229 L650 1228 L651 1228 L652 1227 L653 1227 L654 1226 L655 1226 L656 1225 L657 1225 L658 1224 L659 1224 L660 1223 L661 1223 L662 1222 L663 1222 L664 1221 L665 1221 L666 1220 L667 1220 L668 1219 L669 1219 L670 1218 L671 1218 L672 1217 L673 1217 L674 1216 L675 1216 L676 1215 L677 1215 L678 1214 L679 1214 L680 1213 L681 1213 L682 1212 L683 1212 L684 1211 L685 1210 L686 1210 L687 1209 L688 1208 L689 1208 L690 1207 L691 1206 L692 1206 L693 1205 L694 1204 L695 1204 L696 1203 L697 1202 L698 1202 L699 1201 L700 1200 L701 1199 L702 1199 L703 1198 L704 1197 L705 1196 L706 1196 L707 1195 L708 1194 L709 1194 L710 1193 L711 1192 L712 1192 L713 1191 L714 1191 L715 1190 L716 1189 L717 1189 L718 1188 L719 1188 L720 1187 L721 1187 L722 1186 L723 1186 L724 1185 L725 1184 L726 1184 L727 1183 L728 1183 L729 1182 L730 1181 L731 1181 L732 1180 L733 1179 L734 1179 L735 1178 L736 1178 L737 1177 L738 1176 L739 1175 L740 1175 L741 1174 L742 1174 L743 1173 L744 1172 L745 1172 L746 1171 L747 1170 L748 1170 L749 1169 L750 1169 L751 1168 L752 1167 L753 1167 L754 1166 L755 1166 L756 1165 L757 1164 L758 1164 L759 1164 L760 1163 L761 1163 L762 1162 L763 1161 L764 1161 L765 1160 L766 1159 L767 1159 L768 1158 L769 1157 L770 1157 L771 1156 L772 1155 L773 1155 L774 1154 L775 1153 L776 1153 L777 1152 L778 1151 L779 1151 L780 1150 L781 1149 L782 1149 L783 1148 L784 1147 L785 1146 L786 1146 L787 1145 L788 1144 L789 1143 L790 1143 L791 1142 L792 1141 L793 1140 L794 1139 L795 1139 L796 1138 L797 1137 L798 1136 L799 1135 L800 1135 L801 1134 L802 1133 L803 1132 L804 1131 L805 1131 L806 1130 L807 1129 L808 1128 L809 1127 L810 1126 L811 1125 L812 1124 L813 1123 L814 1122 L815 1121 L816 1120 L817 1119 L817 1118 L818 1117 L819 1116 L820 1115 L821 1114 L822 1113 L823 1112 L824 1111 L825 1110 L826 1109 L827 1108 L828 1107 L829 1106 L830 1105 L831 1104 L832 1103 L833 1102 L834 1101 L835 1100 L836 1099 L837 1098 L838 1097 L839 1096 L840 1095 L841 1094 L842 1093 L843 1092 L843 1091 L844 1090 L845 1089 L846 1088 L847 1087 L848 1086 L849 1085 L850 1084 L851 1083 L852 1082 L853 1081 L854 1080 L855 1079 L856 1078 L857 1077 L858 1076 L859 1075 L860 1074 L861 1073 L862 1072 L863 1071 L864 1070 L865 1069 L866 1068 L867 1067 L868 1066 L869 1065 L870 1064 L870 1063 L871 1062 L872 1061 L873 1060 L874 1059 L875 1058 L876 1057 L877 1056 L878 1055 L879 1054 L880 1053 L881 1052 L882 1051 L883 1050 L884 1049 L885 1048 L886 1047 L887 1046 L888 1045 L889 1044 L890 1043 L891 1042 L892 1041 L893 1040 L894 1039 L895 1038 L896 1038 L897 1037 L898 1036 L899 1035 L900 1034 L901 1033 L902 1032 L903 1032 L904 1031 L905 1030 L906 1029 L907 1029 L908 1028 L909 1027 L910 1027 L911 1026 L912 1025 L913 1025 L914 1024 L915 1024 L916 1024 L917 1023 L918 1023 L919 1023 L920 1022 L921 1022 L922 1022 L923 1021 L924 1021 L925 1021 L926 1021 L927 1021 L928 1020 L929 1020 L930 1020 L931 1020 L932 1020 L933 1020 L934 1020 L935 1020 L936 1019 L937 1019 L938 1019 L939 1019 L940 1019 L941 1019 L942 1019 L943 1019 L944 1019 L945 1019 L946 1019 L947 1019 L948 1019 L949 1019 L950 1019 L951 1019 L952 1019 L953 1019 L954 1019 L955 1019 L956 1019 L957 1019 L958 1019 L959 1019 L960 1019 L961 1019 L962 1019 L963 1019 L964 1019 L965 1019 L966 1019 L967 1019 L968 1019 L969 1019 L970 1019 L971 1019 L972 1019 L973 1019 L974 1019 L975 1019 L976 1019 L977 1019 L978 1019 L979 1019 L980 1019 L981 1019 L982 1019 L983 1019 L984 1019 L985 1019 L986 1019 L987 1019 L988 1019 L989 1019 L990 1019 L991 1019 L992 1019 L993 1019 L994 1019 L995 1019 L996 1019 L997 1019 L998 1019 L999 1019 L1000 1019 L1001 1019 L1002 1019 L1003 1019 L1004 1019 L1005 1019 L1006 1019 L1007 1019 L1008 1019 L1009 1019 L1010 1019 L1011 1019 L1012 1019 L1013 1019 L1014 1019 L1015 1019 L1016 1019 L1017 1019 L1018 1019 L1019 1019 L1020 1019 L1021 1019 L1022 1019 L1023 1019 L1024 1019 L1025 1019 L1026 1019 L1027 1019 L1028 1019 L1029 1019 L1030 1019 L1031 1019 L1032 1019 L1033 1019 L1034 1019 L1035 1019 L1036 1019 L1037 1019 L1038 1019 L1039 1019 L1040 1019 L1041 1019 L1042 1019 L1043 1019 L1044 1019 L1045 1019 L1046 1019 L1047 1019 L1048 1019 L1049 1019 L1050 1019 L1051 1019 L1052 1019 L1053 1019 L1054 1019 L1055 1019 L1056 1019 L1057 1019 L1058 1019 L1059 1019 L1060 1019 L1061 1019 L1062 1019 L1063 1019 L1064 1019 L1065 1019 L1066 1019 L1067 1019 L1068 1019 L1069 1019 L1070 1019 L1071 1019 L1072 1018 L1073 1018 L1074 1018 L1075 1018 L1076 1018 L1077 1018 L1078 1018 L1079 1018 L1080 1018 L1081 1017 L1082 1017 L1083 1017 L1084 1017 L1085 1016 L1086 1016 L1087 1016 L1088 1015 L1089 1015 L1090 1014 L1091 1014 L1092 1013 L1093 1013 L1094 1012 L1095 1011 L1096 1011 L1097 1010 L1098 1009 L1099 1008 L1100 1007 L1101 1006 L1102 1005 L1103 1004 L1104 1003 L1105 1002 L1105 1001 L1106 1000 L1106 999 L1107 998 L1108 997 L1108 996 L1108 995 L1109 994 L1109 993 L1110 992 L1110 991 L1110 990 L1110 989 L1110 988 L1111 987 L1111 986 L1111 985 L1111 984 L1111 983 L1111 982 L1111 981 L1111 980 L1111 979 L1111 978 L1110 977 L1110 976 L1110 975 L1110 974 L1110 973 L1110 972 L1109 971 L1109 970 L1109 969 L1108 968 L1108 967 L1108 966 L1107 965 L1107 964 L1106 963 L1105 962 L1105 961 L1104 960 L1103 959 L1102 958 L1102 957 L1101 956 L1100 955 L1100 954 L1099 953 L1098 952 L1097 951 L1096 950 L1096 949 L1095 948 L1094 947 L1093 946 L1093 945 L1092 944 L1091 943 L1090 942 L1090 941 L1089 940 L1088 939 L1087 938 L1086 937 L1086 936 L1085 935 L1084 934 L1083 933 L1082 932 L1081 931 L1080 930 L1079 929 L1078 928 L1077 927 L1076 926 L1075 925 L1074 924 L1073 923 L1072 922 L1071 921 L1070 920 L1069 919 L1068 918 L1067 917 L1066 916 L1065 915 L1064 914 L1064 913 L1063 912 L1062 911 L1061 910 L1060 909 L1060 908 L1059 907 L1058 906 L1057 905 L1057 904 L1056 903 L1055 902 L1055 901 L1054 900 L1054 899 L1054 898 L1054 897 L1054 896 L1054 895 L1054 894 L1054 893 L1054 892 L1054 891 L1054 890 L1054 889 L1054 888 L1054 887 L1054 886 L1054 885 L1055 884 L1055 883 L1055 882 L1056 881 L1056 880 L1057 879 L1058 878 L1058 877 L1059 876 L1060 875 L1060 874 L1061 873 L1062 872 L1063 871 L1064 870 L1065 869 L1066 868 L1067 868 L1068 867 L1069 866 L1070 866 L1071 865 L1072 864 L1073 863 L1074 863 L1075 862 L1076 861 L1077 861 L1078 860 L1079 859 L1080 859 L1081 858 L1082 857 L1083 857 L1084 856 L1085 856 L1086 855 L1087 854 L1088 854 L1089 853 L1090 852 L1091 852 L1092 851 L1093 850 L1094 850 L1095 849 L1096 848 L1097 848 L1098 847 L1099 846 L1100 846 L1101 845 L1102 844 L1103 843 L1104 843 L1105 842 L1106 841 L1107 840 L1108 839 L1109 839 L1110 838 L1111 837 L1112 836 L1113 835 L1114 834 L1115 833 L1116 832 L1117 831 L1118 830 L1119 829 L1120 829 L1121 828 L1122 827 L1123 826 L1124 825 L1125 824 L1126 824 L1127 823 L1128 822 L1129 822 L1130 821 L1131 821 L1132 820 L1133 820 L1134 819 L1135 819 L1136 819 L1137 818 L1138 818 L1139 817 L1140 817 L1141 817 L1142 816 L1143 816 L1144 815 L1145 815 L1146 815 L1147 814 L1148 814 L1149 814 L1150 813 L1151 813 L1152 813 L1153 812 L1154 812 L1155 811 L1156 811 L1157 811 L1158 810 L1159 810 L1160 809 L1161 809 L1162 809 L1163 808 L1164 808 L1165 807 L1166 807 L1167 806 L1168 806 L1169 805 L1170 805 L1171 804 L1172 804 L1173 803 L1174 803 L1175 802 L1176 801 L1177 801 L1178 800 L1179 800 L1180 799 L1181 798 L1182 798 L1183 797 L1184 797 L1185 796 L1186 796 L1187 796 L1188 795 L1189 795 L1190 794 L1191 794 L1192 793 L1193 793 L1194 793 L1195 793 L1196 792 L1197 792 L1198 792 L1199 791 L1200 791 L1201 791 L1202 791 L1203 790 L1204 790 L1205 790 L1206 790 L1207 789 L1208 789 L1209 789 L1210 789 L1211 788 L1212 788 L1213 788 L1214 788 L1215 787 L1216 787 L1217 787 L1218 787 L1219 786 L1220 786 L1221 786 L1222 786 L1223 785 L1224 785 L1225 785 L1226 784 L1227 784 L1228 784 L1229 783 L1230 783 L1231 783 L1232 783 L1233 782 L1234 782 L1235 782 L1236 781 L1237 781 L1238 781 L1239 780 L1240 780 L1241 780 L1242 780 L1243 779 L1244 779 L1245 779 L1246 778 L1247 778 L1248 778 L1249 778 L1250 777 L1251 777 L1252 777 L1253 776 L1254 776 L1255 776 L1256 775 L1257 775 L1258 775 L1259 775 L1260 774 L1261 774 L1262 774 L1263 774 L1264 773 L1265 773 L1266 773 L1267 772 L1268 772 L1269 772 L1270 772 L1271 772 L1272 771 L1273 771 L1274 771 L1275 771 L1276 770 L1277 770 L1278 770 L1279 770 L1280 769 L1281 769 L1282 769 L1283 769 L1284 769 L1285 768 L1286 768 L1287 768 L1288 768 L1289 767 L1290 767 L1291 767 L1292 767 L1293 767 L1294 767 L1295 766 L1296 766 L1297 766 L1298 766 L1299 766 L1300 766 L1301 766 L1302 766 L1303 766 L1304 766 L1305 766 L1306 766 L1307 766 L1308 766 L1309 766 L1310 766 L1311 766 L1312 766 L1313 766 L1314 766 L1315 766 L1316 766 L1317 766 L1318 766 L1319 766 L1320 766 L1321 766 L1322 766 L1323 766 L1324 766 L1325 766 L1326 766 L1327 766 L1328 766 L1329 766 L1330 766 L1331 766 L1332 766 L1333 766 L1334 766 L1335 766 L1336 765 L1337 765 L1338 764 L1339 764 L1340 763 L1341 763 L1342 762 L1343 762 L1344 761 L1345 761 L1346 760 L1347 760 L1348 759 L1349 758 L1350 758 L1351 757 L1352 756 L1353 756 L1354 755 L1355 754 L1356 753 L1357 752 L1357 751 L1358 750 L1359 749 L1360 748 L1360 747 L1361 746 L1361 745 L1362 744 L1362 743 L1363 742 L1363 741 L1363 740 L1364 739 L1364 738 L1364 737 L1364 736 L1364 735 L1364 734 L1364 733 L1364 732 L1363 731 L1363 730 L1363 729 L1363 728 L1363 727 L1362 726 L1362 725 L1362 724 L1362 723 L1361 722 L1361 721 L1360 720 L1360 719 L1360 718 L1359 717 L1358 716 L1358 715 L1357 714 L1356 713 L1355 712 L1354 711 L1353 710 L1352 709 L1351 709 L1350 708 L1349 708 L1348 707 L1347 706 L1346 706 L1345 706 L1344 705 L1343 705 L1342 704 L1341 704 L1340 703 L1339 703 L1338 703 L1337 703 L1336 702 L1335 702 L1334 702 L1333 702 L1332 702 L1331 702 L1330 702 L1329 702 L1328 701 L1327 701 L1326 701 L1325 701 L1324 701 L1323 701 L1322 701 L1321 701 L1320 701 L1319 701 L1318 701 L1317 701 L1316 701 L1315 701 L1314 701 L1313 701 L1312 701 L1311 701 L1310 701 L1309 701 L1308 701 L1307 701 L1306 701 L1305 701 Z
M1637 458 L1636 459 L1635 459 L1634 459 L1633 459 L1632 459 L1631 460 L1630 460 L1629 460 L1628 460 L1627 461 L1626 461 L1625 461 L1624 462 L1623 462 L1622 463 L1621 463 L1620 464 L1619 465 L1618 466 L1617 467 L1616 468 L1615 469 L1614 470 L1613 471 L1612 472 L1611 473 L1610 474 L1609 475 L1608 476 L1608 477 L1607 478 L1606 479 L1605 480 L1605 481 L1604 482 L1603 483 L1603 484 L1602 485 L1602 486 L1601 487 L1601 488 L1600 489 L1599 490 L1599 491 L1598 492 L1598 493 L1597 494 L1596 495 L1596 496 L1595 497 L1595 498 L1594 499 L1593 500 L1593 501 L1592 502 L1592 503 L1591 504 L1590 505 L1590 506 L1589 507 L1589 508 L1588 509 L1587 510 L1587 511 L1586 512 L1586 513 L1585 514 L1584 515 L1584 516 L1583 517 L1582 518 L1582 519 L1581 520 L1580 521 L1580 522 L1579 523 L1578 524 L1578 525 L1577 526 L1576 527 L1576 528 L1575 529 L1574 530 L1574 531 L1573 532 L1572 533 L1572 534 L1571 535 L1571 536 L1570 537 L1570 538 L1569 539 L1568 540 L1568 541 L1567 542 L1567 543 L1566 544 L1565 545 L1565 546 L1564 547 L1564 548 L1563 549 L1562 550 L1562 551 L1561 552 L1561 553 L1560 554 L1559 555 L1559 556 L1558 557 L1558 558 L1557 559 L1556 560 L1556 561 L1555 562 L1555 563 L1554 564 L1554 565 L1553 566 L1553 567 L1552 568 L1551 569 L1551 570 L1550 571 L1550 572 L1549 573 L1549 574 L1548 575 L1548 576 L1547 577 L1547 578 L1546 579 L1546 580 L1545 581 L1545 582 L1544 583 L1543 584 L1543 585 L1542 586 L1542 587 L1541 588 L1540 589 L1540 590 L1539 591 L1538 592 L1538 593 L1537 594 L1536 595 L1536 596 L1535 597 L1534 598 L1533 599 L1533 600 L1532 601 L1531 602 L1531 603 L1530 604 L1529 605 L1529 606 L1528 607 L1527 608 L1527 609 L1526 610 L1526 611 L1525 612 L1525 613 L1524 614 L1524 615 L1523 616 L1522 617 L1522 618 L1521 619 L1521 620 L1520 621 L1520 622 L1519 623 L1519 624 L1518 625 L1518 626 L1517 627 L1517 628 L1516 629 L1516 630 L1515 631 L1515 632 L1514 633 L1513 634 L1513 635 L1512 636 L1512 637 L1511 638 L1510 639 L1510 640 L1509 641 L1508 642 L1507 643 L1507 644 L1506 645 L1505 646 L1504 647 L1504 648 L1503 649 L1502 650 L1501 651 L1501 652 L1500 653 L1499 654 L1498 655 L1498 656 L1497 657 L1496 658 L1496 659 L1495 660 L1494 661 L1494 662 L1493 663 L1493 664 L1492 665 L1491 666 L1491 667 L1490 668 L1490 669 L1489 670 L1488 671 L1488 672 L1487 673 L1487 674 L1486 675 L1485 676 L1485 677 L1484 678 L1484 679 L1483 680 L1482 681 L1482 682 L1481 683 L1481 684 L1480 685 L1479 686 L1479 687 L1478 688 L1478 689 L1477 690 L1476 691 L1476 692 L1475 693 L1474 694 L1474 695 L1473 696 L1473 697 L1472 698 L1471 699 L1471 700 L1470 701 L1469 702 L1469 703 L1468 704 L1468 705 L1467 706 L1466 707 L1466 708 L1465 709 L1464 710 L1464 711 L1463 712 L1462 713 L1462 714 L1461 715 L1460 716 L1460 717 L1459 718 L1458 719 L1458 720 L1457 721 L1456 722 L1456 723 L1455 724 L1454 725 L1454 726 L1453 727 L1452 728 L1452 729 L1451 730 L1450 731 L1449 732 L1449 733 L1448 734 L1447 735 L1446 736 L1446 737 L1445 738 L1444 739 L1443 740 L1442 741 L1442 742 L1441 743 L1440 744 L1439 745 L1438 746 L1438 747 L1437 748 L1436 749 L1436 750 L1435 751 L1434 752 L1433 753 L1433 754 L1432 755 L1431 756 L1431 757 L1430 758 L1429 759 L1429 760 L1428 761 L1428 762 L1427 763 L1426 764 L1426 765 L1425 766 L1424 767 L1424 768 L1423 769 L1422 770 L1421 771 L1421 772 L1420 773 L1419 774 L1418 775 L1418 776 L1417 777 L1416 778 L1415 779 L1415 780 L1414 781 L1413 782 L1412 783 L1412 784 L1411 785 L1410 786 L1409 787 L1409 788 L1408 789 L1407 790 L1407 791 L1406 792 L1405 793 L1404 794 L1404 795 L1403 796 L1402 797 L1402 798 L1401 799 L1400 800 L1399 801 L1399 802 L1398 803 L1397 804 L1396 805 L1395 806 L1394 807 L1393 808 L1393 809 L1392 810 L1391 811 L1390 812 L1389 813 L1388 813 L1387 814 L1386 815 L1385 816 L1384 817 L1384 818 L1383 819 L1382 820 L1381 821 L1380 822 L1379 823 L1378 824 L1378 825 L1377 826 L1376 827 L1375 828 L1375 829 L1374 830 L1373 831 L1373 832 L1372 833 L1371 834 L1371 835 L1370 836 L1369 837 L1369 838 L1368 839 L1368 840 L1367 841 L1366 842 L1366 843 L1365 844 L1365 845 L1364 846 L1363 847 L1363 848 L1362 849 L1362 850 L1361 851 L1361 852 L1360 853 L1359 854 L1359 855 L1358 856 L1357 857 L1357 858 L1356 859 L1355 860 L1354 861 L1353 862 L1353 863 L1352 864 L1351 865 L1350 866 L1349 867 L1348 868 L1347 869 L1346 870 L1345 871 L1344 872 L1343 873 L1342 874 L1341 875 L1340 876 L1340 877 L1339 878 L1338 879 L1337 880 L1336 881 L1335 882 L1334 883 L1333 884 L1332 885 L1331 886 L1330 887 L1329 888 L1328 889 L1327 890 L1326 891 L1325 892 L1325 893 L1324 894 L1323 895 L1322 896 L1321 897 L1320 898 L1319 899 L1318 900 L1317 901 L1317 902 L1316 903 L1315 904 L1314 905 L1313 906 L1312 907 L1311 908 L1311 909 L1310 910 L1309 911 L1308 912 L1307 913 L1306 914 L1305 915 L1304 916 L1304 917 L1303 918 L1302 919 L1301 920 L1300 921 L1299 922 L1298 923 L1298 924 L1297 925 L1296 926 L1295 927 L1295 928 L1294 929 L1293 930 L1292 931 L1291 932 L1291 933 L1290 934 L1290 935 L1289 936 L1288 937 L1288 938 L1287 939 L1286 940 L1285 941 L1284 942 L1284 943 L1283 944 L1282 945 L1281 946 L1280 947 L1279 948 L1278 949 L1277 950 L1277 951 L1276 952 L1275 953 L1274 954 L1273 955 L1272 956 L1271 957 L1270 958 L1269 959 L1268 960 L1267 961 L1266 962 L1266 963 L1265 964 L1264 965 L1263 966 L1262 967 L1261 968 L1260 969 L1259 970 L1258 971 L1257 972 L1256 973 L1255 974 L1254 975 L1253 976 L1252 977 L1251 978 L1250 979 L1250 980 L1249 981 L1248 982 L1247 983 L1246 984 L1245 985 L1244 986 L1243 987 L1243 988 L1242 989 L1241 990 L1240 991 L1239 992 L1238 993 L1237 994 L1236 995 L1235 996 L1234 997 L1233 998 L1232 999 L1231 1000 L1230 1001 L1229 1002 L1228 1003 L1227 1004 L1226 1005 L1225 1006 L1225 1007 L1224 1008 L1223 1009 L1222 1010 L1221 1011 L1220 1012 L1219 1013 L1218 1014 L1217 1015 L1216 1016 L1215 1017 L1214 1018 L1213 1019 L1212 1020 L1212 1021 L1211 1022 L1210 1023 L1209 1024 L1208 1025 L1207 1026 L1206 1027 L1205 1028 L1205 1029 L1204 1030 L1203 1031 L1202 1032 L1202 1033 L1201 1034 L1200 1035 L1199 1036 L1198 1037 L1197 1038 L1197 1039 L1196 1040 L1195 1041 L1194 1042 L1193 1043 L1192 1044 L1191 1045 L1190 1046 L1189 1047 L1188 1048 L1187 1049 L1186 1050 L1186 1051 L1185 1052 L1184 1053 L1183 1054 L1182 1055 L1182 1056 L1181 1057 L1180 1058 L1179 1059 L1178 1060 L1177 1061 L1176 1062 L1175 1063 L1174 1064 L1173 1065 L1172 1066 L1171 1066 L1170 1067 L1169 1068 L1168 1068 L1167 1069 L1166 1070 L1165 1070 L1164 1071 L1163 1072 L1162 1072 L1161 1073 L1160 1073 L1159 1074 L1158 1075 L1157 1076 L1156 1076 L1155 1077 L1154 1077 L1153 1078 L1152 1079 L1151 1080 L1150 1081 L1149 1082 L1148 1082 L1147 1083 L1146 1084 L1145 1085 L1144 1086 L1143 1087 L1142 1088 L1141 1089 L1140 1090 L1139 1091 L1138 1092 L1138 1093 L1137 1094 L1136 1095 L1135 1096 L1134 1097 L1133 1098 L1132 1099 L1131 1100 L1130 1101 L1129 1102 L1128 1103 L1127 1104 L1126 1105 L1125 1106 L1124 1107 L1123 1108 L1122 1109 L1121 1110 L1120 1111 L1119 1112 L1118 1113 L1117 1114 L1116 1115 L1115 1116 L1114 1117 L1113 1118 L1112 1119 L1111 1120 L1110 1121 L1109 1122 L1108 1123 L1107 1124 L1106 1124 L1105 1125 L1104 1126 L1103 1127 L1102 1128 L1101 1129 L1100 1130 L1099 1131 L1098 1132 L1097 1132 L1096 1133 L1095 1134 L1094 1135 L1093 1136 L1092 1137 L1091 1138 L1090 1139 L1089 1139 L1088 1140 L1087 1141 L1086 1142 L1085 1143 L1084 1144 L1083 1145 L1082 1146 L1081 1146 L1080 1147 L1079 1148 L1078 1149 L1077 1149 L1076 1150 L1075 1151 L1074 1151 L1073 1152 L1072 1153 L1071 1153 L1070 1154 L1069 1155 L1068 1156 L1067 1156 L1066 1157 L1065 1158 L1064 1159 L1063 1160 L1062 1160 L1061 1161 L1060 1162 L1059 1163 L1058 1164 L1057 1165 L1056 1165 L1055 1166 L1054 1167 L1053 1168 L1052 1169 L1051 1170 L1050 1171 L1049 1172 L1048 1173 L1047 1174 L1046 1175 L1045 1176 L1044 1177 L1043 1178 L1042 1179 L1041 1180 L1040 1181 L1039 1181 L1038 1182 L1037 1183 L1036 1184 L1035 1185 L1034 1186 L1033 1187 L1032 1188 L1031 1189 L1030 1190 L1029 1191 L1028 1192 L1027 1193 L1026 1194 L1025 1195 L1024 1195 L1023 1196 L1022 1197 L1021 1198 L1020 1198 L1019 1199 L1018 1200 L1017 1200 L1016 1201 L1015 1202 L1014 1202 L1013 1203 L1012 1204 L1011 1204 L1010 1205 L1009 1205 L1008 1206 L1007 1206 L1006 1207 L1005 1208 L1004 1208 L1003 1209 L1002 1210 L1001 1210 L1000 1211 L999 1212 L998 1212 L997 1213 L996 1214 L995 1215 L994 1215 L993 1216 L992 1217 L991 1218 L990 1218 L989 1219 L988 1220 L987 1221 L986 1222 L985 1222 L984 1223 L983 1224 L982 1225 L981 1226 L980 1227 L979 1227 L978 1228 L977 1229 L976 1230 L975 1231 L974 1232 L973 1232 L972 1233 L971 1234 L970 1235 L969 1236 L968 1237 L967 1237 L966 1238 L965 1239 L964 1239 L963 1240 L962 1241 L961 1242 L960 1242 L959 1243 L958 1244 L957 1245 L956 1245 L955 1246 L954 1247 L953 1247 L952 1248 L951 1249 L950 1249 L949 1250 L948 1251 L947 1252 L946 1252 L945 1253 L944 1254 L943 1254 L942 1255 L941 1256 L940 1256 L939 1257 L938 1257 L937 1258 L936 1258 L935 1259 L934 1260 L933 1260 L932 1261 L931 1261 L930 1262 L929 1262 L928 1263 L927 1263 L926 1264 L925 1264 L924 1265 L923 1265 L922 1266 L921 1266 L920 1267 L919 1267 L918 1268 L917 1269 L916 1269 L915 1270 L914 1270 L913 1271 L912 1272 L911 1272 L910 1273 L909 1274 L908 1275 L907 1275 L906 1276 L905 1277 L904 1278 L903 1279 L902 1280 L901 1281 L900 1282 L899 1283 L898 1283 L897 1284 L896 1285 L895 1286 L894 1287 L893 1287 L892 1288 L891 1289 L890 1289 L889 1290 L888 1291 L887 1291 L886 1292 L885 1292 L884 1293 L883 1294 L882 1294 L881 1295 L880 1295 L879 1296 L878 1296 L877 1297 L876 1297 L875 1298 L874 1298 L873 1299 L872 1299 L871 1300 L870 1300 L869 1301 L868 1301 L867 1302 L866 1303 L865 1303 L864 1304 L863 1304 L862 1305 L861 1305 L860 1306 L859 1307 L858 1307 L857 1308 L856 1309 L855 1309 L854 1310 L853 1310 L852 1311 L851 1312 L850 1312 L849 1313 L848 1313 L847 1314 L846 1315 L845 1315 L844 1316 L843 1316 L842 1317 L841 1318 L840 1318 L839 1319 L838 1319 L837 1320 L836 1321 L835 1321 L834 1322 L833 1322 L832 1323 L831 1324 L830 1324 L829 1325 L828 1325 L827 1326 L826 1326 L825 1327 L824 1328 L823 1328 L822 1329 L821 1329 L820 1330 L819 1330 L818 1331 L817 1332 L816 1332 L815 1333 L814 1333 L813 1334 L812 1334 L811 1335 L810 1335 L809 1336 L808 1336 L807 1337 L806 1337 L805 1338 L804 1339 L803 1339 L802 1340 L801 1340 L800 1341 L799 1341 L798 1342 L797 1343 L796 1343 L795 1344 L794 1345 L793 1345 L792 1346 L791 1347 L790 1347 L789 1348 L788 1349 L787 1349 L786 1350 L785 1351 L784 1352 L783 1352 L782 1353 L781 1354 L780 1355 L779 1355 L778 1356 L777 1357 L776 1358 L775 1359 L774 1359 L773 1360 L772 1361 L771 1362 L770 1363 L769 1364 L768 1365 L767 1366 L766 1367 L765 1368 L764 1369 L763 1370 L762 1371 L762 1372 L761 1373 L760 1374 L760 1375 L759 1376 L759 1377 L759 1378 L759 1379 L758 1380 L758 1381 L758 1382 L758 1383 L758 1384 L757 1385 L757 1386 L757 1387 L757 1388 L757 1389 L757 1390 L757 1391 L757 1392 L757 1393 L757 1394 L757 1395 L757 1396 L757 1397 L758 1398 L758 1399 L759 1400 L760 1401 L760 1402 L761 1403 L762 1404 L763 1405 L764 1406 L765 1406 L766 1407 L767 1407 L768 1408 L769 1409 L770 1409 L771 1410 L772 1410 L773 1411 L774 1411 L775 1411 L776 1412 L777 1412 L778 1412 L779 1413 L780 1413 L781 1413 L782 1413 L783 1413 L784 1413 L785 1414 L786 1414 L787 1414 L788 1414 L789 1414 L790 1414 L791 1414 L792 1413 L793 1413 L794 1413 L795 1413 L796 1413 L797 1413 L798 1413 L799 1413 L800 1412 L801 1412 L802 1412 L803 1412 L804 1411 L805 1411 L806 1411 L807 1411 L808 1410 L809 1410 L810 1409 L811 1409 L812 1408 L813 1407 L814 1407 L815 1406 L816 1405 L817 1405 L818 1404 L819 1403 L820 1403 L821 1402 L822 1401 L823 1400 L824 1400 L825 1399 L826 1398 L827 1398 L828 1397 L829 1396 L830 1396 L831 1395 L832 1395 L833 1394 L834 1393 L835 1393 L836 1393 L837 1392 L838 1392 L839 1391 L840 1391 L841 1390 L842 1390 L843 1390 L844 1389 L845 1389 L846 1388 L847 1388 L848 1388 L849 1387 L850 1387 L851 1387 L852 1386 L853 1386 L854 1386 L855 1385 L856 1385 L857 1385 L858 1384 L859 1384 L860 1384 L861 1383 L862 1383 L863 1383 L864 1383 L865 1382 L866 1382 L867 1381 L868 1381 L869 1381 L870 1380 L871 1380 L872 1379 L873 1379 L874 1378 L875 1377 L876 1377 L877 1376 L878 1375 L879 1375 L880 1374 L881 1374 L882 1373 L883 1372 L884 1372 L885 1371 L886 1370 L887 1370 L888 1369 L889 1368 L890 1368 L891 1367 L892 1366 L893 1366 L894 1365 L895 1365 L896 1364 L897 1364 L898 1363 L899 1362 L900 1362 L901 1361 L902 1361 L903 1360 L904 1360 L905 1359 L906 1359 L907 1358 L908 1357 L909 1357 L910 1356 L911 1356 L912 1355 L913 1355 L914 1354 L915 1353 L916 1353 L917 1352 L918 1352 L919 1351 L920 1350 L921 1350 L922 1349 L923 1349 L924 1348 L925 1347 L926 1347 L927 1346 L928 1345 L929 1345 L930 1344 L931 1344 L932 1343 L933 1342 L934 1342 L935 1341 L936 1341 L937 1340 L938 1339 L939 1339 L940 1338 L941 1338 L942 1337 L943 1336 L944 1336 L945 1335 L946 1335 L947 1334 L948 1333 L949 1333 L950 1332 L951 1331 L952 1330 L953 1330 L954 1329 L955 1328 L956 1327 L957 1327 L958 1326 L959 1325 L960 1325 L961 1324 L962 1323 L963 1322 L964 1322 L965 1321 L966 1320 L967 1320 L968 1319 L969 1318 L970 1317 L971 1317 L972 1316 L973 1315 L974 1315 L975 1314 L976 1313 L977 1313 L978 1312 L979 1312 L980 1311 L981 1310 L982 1309 L983 1309 L984 1308 L985 1307 L986 1307 L987 1306 L988 1305 L989 1304 L990 1304 L991 1303 L992 1302 L993 1302 L994 1301 L995 1300 L996 1299 L997 1298 L998 1297 L999 1297 L1000 1296 L1001 1295 L1002 1294 L1003 1293 L1004 1292 L1005 1291 L1006 1291 L1007 1290 L1007 1289 L1008 1288 L1009 1287 L1010 1287 L1011 1286 L1012 1285 L1013 1284 L1014 1283 L1015 1282 L1016 1281 L1017 1280 L1018 1280 L1019 1279 L1020 1278 L1021 1277 L1022 1277 L1023 1276 L1024 1275 L1025 1275 L1026 1274 L1027 1273 L1028 1273 L1029 1272 L1030 1271 L1031 1271 L1032 1270 L1033 1270 L1034 1269 L1035 1268 L1036 1268 L1037 1267 L1038 1266 L1039 1265 L1040 1265 L1041 1264 L1042 1263 L1043 1263 L1044 1262 L1045 1261 L1046 1260 L1047 1259 L1048 1259 L1049 1258 L1050 1257 L1051 1256 L1052 1256 L1053 1255 L1054 1254 L1055 1253 L1056 1253 L1057 1252 L1058 1251 L1059 1250 L1060 1250 L1061 1249 L1062 1248 L1063 1247 L1064 1247 L1065 1246 L1066 1245 L1067 1244 L1068 1243 L1069 1242 L1070 1241 L1071 1240 L1072 1239 L1073 1239 L1074 1238 L1075 1237 L1076 1236 L1077 1235 L1078 1234 L1079 1234 L1080 1233 L1081 1232 L1082 1231 L1083 1231 L1084 1230 L1085 1229 L1086 1228 L1087 1228 L1088 1227 L1089 1226 L1090 1225 L1091 1224 L1092 1224 L1093 1223 L1094 1222 L1095 1221 L1096 1220 L1097 1220 L1098 1219 L1099 1218 L1100 1217 L1101 1216 L1102 1216 L1103 1215 L1104 1214 L1105 1213 L1106 1212 L1107 1211 L1108 1211 L1109 1210 L1110 1209 L1111 1208 L1112 1207 L1113 1206 L1114 1205 L1115 1205 L1116 1204 L1117 1203 L1118 1202 L1119 1201 L1120 1200 L1121 1199 L1122 1198 L1123 1197 L1124 1196 L1125 1195 L1126 1194 L1127 1193 L1128 1192 L1129 1191 L1130 1191 L1131 1190 L1132 1189 L1133 1188 L1134 1187 L1135 1186 L1136 1185 L1137 1184 L1138 1184 L1139 1183 L1140 1182 L1141 1181 L1142 1180 L1143 1180 L1144 1179 L1145 1178 L1146 1177 L1147 1176 L1148 1175 L1149 1174 L1150 1174 L1151 1173 L1152 1172 L1153 1171 L1154 1170 L1155 1169 L1156 1168 L1157 1167 L1158 1166 L1159 1165 L1160 1165 L1161 1164 L1162 1163 L1163 1162 L1164 1161 L1165 1161 L1166 1160 L1167 1159 L1168 1158 L1169 1158 L1170 1157 L1171 1156 L1172 1156 L1173 1155 L1174 1154 L1175 1153 L1176 1152 L1177 1151 L1178 1150 L1179 1150 L1180 1149 L1181 1148 L1181 1147 L1182 1146 L1183 1145 L1184 1144 L1185 1143 L1186 1142 L1187 1141 L1188 1140 L1189 1139 L1190 1138 L1191 1137 L1192 1137 L1193 1136 L1194 1135 L1195 1134 L1196 1133 L1197 1132 L1198 1131 L1199 1130 L1200 1129 L1201 1128 L1202 1127 L1203 1126 L1204 1125 L1205 1124 L1206 1123 L1207 1122 L1208 1121 L1209 1120 L1209 1119 L1210 1118 L1211 1117 L1212 1116 L1213 1115 L1214 1114 L1215 1113 L1216 1112 L1216 1111 L1217 1110 L1218 1109 L1219 1108 L1220 1107 L1221 1106 L1222 1105 L1223 1104 L1224 1103 L1225 1102 L1226 1101 L1227 1100 L1228 1099 L1229 1098 L1230 1097 L1231 1096 L1232 1095 L1233 1094 L1234 1093 L1235 1092 L1236 1091 L1237 1090 L1238 1089 L1239 1088 L1240 1087 L1241 1086 L1242 1085 L1243 1084 L1244 1083 L1245 1082 L1246 1081 L1247 1080 L1248 1079 L1249 1078 L1250 1077 L1251 1076 L1252 1075 L1253 1074 L1254 1073 L1255 1072 L1256 1071 L1257 1070 L1258 1069 L1259 1068 L1260 1067 L1261 1066 L1262 1065 L1263 1064 L1264 1063 L1265 1062 L1266 1061 L1267 1060 L1268 1059 L1269 1058 L1270 1057 L1271 1056 L1272 1055 L1272 1054 L1273 1053 L1274 1052 L1275 1051 L1276 1050 L1277 1049 L1278 1048 L1279 1047 L1280 1046 L1281 1045 L1282 1044 L1283 1043 L1284 1042 L1285 1041 L1286 1040 L1287 1039 L1288 1038 L1288 1037 L1289 1036 L1290 1035 L1291 1034 L1292 1033 L1293 1032 L1294 1031 L1295 1030 L1296 1029 L1297 1028 L1298 1027 L1299 1026 L1300 1025 L1301 1024 L1302 1023 L1303 1022 L1304 1021 L1305 1020 L1306 1019 L1307 1018 L1308 1017 L1309 1016 L1310 1015 L1311 1014 L1312 1013 L1313 1012 L1314 1011 L1315 1010 L1316 1009 L1317 1008 L1318 1007 L1319 1006 L1319 1005 L1320 1004 L1321 1003 L1322 1002 L1323 1001 L1324 1000 L1324 999 L1325 998 L1326 997 L1327 996 L1328 995 L1329 994 L1330 993 L1331 992 L1331 991 L1332 990 L1333 989 L1334 988 L1335 987 L1336 986 L1337 985 L1338 984 L1338 983 L1339 982 L1340 981 L1341 980 L1342 979 L1343 978 L1344 977 L1344 976 L1345 975 L1346 974 L1347 973 L1348 972 L1349 971 L1349 970 L1350 969 L1351 968 L1352 967 L1352 966 L1353 965 L1354 964 L1355 963 L1355 962 L1356 961 L1357 960 L1358 959 L1358 958 L1359 957 L1360 956 L1361 955 L1361 954 L1362 953 L1363 952 L1363 951 L1364 950 L1365 949 L1366 948 L1367 947 L1367 946 L1368 945 L1369 944 L1370 943 L1371 942 L1371 941 L1372 940 L1373 939 L1374 938 L1375 937 L1376 936 L1377 935 L1378 934 L1378 933 L1379 932 L1380 931 L1381 930 L1382 929 L1382 928 L1383 927 L1384 926 L1384 925 L1385 924 L1386 923 L1386 922 L1387 921 L1387 920 L1388 919 L1389 918 L1389 917 L1390 916 L1391 915 L1391 914 L1392 913 L1393 912 L1394 911 L1395 910 L1396 909 L1397 908 L1398 907 L1399 906 L1400 905 L1401 904 L1402 904 L1403 903 L1404 902 L1405 901 L1406 900 L1407 899 L1407 898 L1408 897 L1409 896 L1410 895 L1411 894 L1412 893 L1413 892 L1413 891 L1414 890 L1415 889 L1416 888 L1417 887 L1417 886 L1418 885 L1419 884 L1420 883 L1420 882 L1421 881 L1422 880 L1423 879 L1423 878 L1424 877 L1425 876 L1426 875 L1426 874 L1427 873 L1428 872 L1428 871 L1429 870 L1430 869 L1431 868 L1431 867 L1432 866 L1433 865 L1434 864 L1434 863 L1435 862 L1436 861 L1437 860 L1438 859 L1438 858 L1439 857 L1440 856 L1441 855 L1442 854 L1442 853 L1443 852 L1444 851 L1445 850 L1446 849 L1447 848 L1448 847 L1449 846 L1450 845 L1451 844 L1451 843 L1452 842 L1453 841 L1454 840 L1455 839 L1456 838 L1456 837 L1457 836 L1458 835 L1459 834 L1460 833 L1460 832 L1461 831 L1462 830 L1462 829 L1463 828 L1464 827 L1465 826 L1465 825 L1466 824 L1466 823 L1467 822 L1468 821 L1468 820 L1469 819 L1470 818 L1470 817 L1471 816 L1472 815 L1472 814 L1473 813 L1473 812 L1474 811 L1475 810 L1475 809 L1476 808 L1476 807 L1477 806 L1478 805 L1478 804 L1479 803 L1480 802 L1480 801 L1481 800 L1482 799 L1482 798 L1483 797 L1484 796 L1485 795 L1485 794 L1486 793 L1487 792 L1488 791 L1489 790 L1489 789 L1490 788 L1491 787 L1492 786 L1492 785 L1493 784 L1494 783 L1495 782 L1495 781 L1496 780 L1496 779 L1497 778 L1498 777 L1498 776 L1499 775 L1500 774 L1500 773 L1501 772 L1502 771 L1502 770 L1503 769 L1504 768 L1504 767 L1505 766 L1506 765 L1507 764 L1507 763 L1508 762 L1509 761 L1509 760 L1510 759 L1511 758 L1511 757 L1512 756 L1513 755 L1514 754 L1514 753 L1515 752 L1516 751 L1516 750 L1517 749 L1518 748 L1518 747 L1519 746 L1520 745 L1520 744 L1521 743 L1521 742 L1522 741 L1522 740 L1523 739 L1523 738 L1524 737 L1524 736 L1525 735 L1525 734 L1526 733 L1526 732 L1526 731 L1527 730 L1527 729 L1528 728 L1528 727 L1528 726 L1529 725 L1529 724 L1530 723 L1530 722 L1531 721 L1531 720 L1532 719 L1532 718 L1533 717 L1533 716 L1534 715 L1535 714 L1536 713 L1537 712 L1538 711 L1539 710 L1540 709 L1541 708 L1542 707 L1543 706 L1544 705 L1545 704 L1545 703 L1546 702 L1547 701 L1548 700 L1549 699 L1550 698 L1551 697 L1551 696 L1552 695 L1553 694 L1554 693 L1554 692 L1555 691 L1556 690 L1557 689 L1557 688 L1558 687 L1559 686 L1559 685 L1560 684 L1561 683 L1562 682 L1562 681 L1563 680 L1564 679 L1564 678 L1565 677 L1565 676 L1566 675 L1567 674 L1567 673 L1568 672 L1568 671 L1569 670 L1570 669 L1570 668 L1571 667 L1571 666 L1572 665 L1573 664 L1573 663 L1574 662 L1574 661 L1575 660 L1576 659 L1576 658 L1577 657 L1577 656 L1578 655 L1579 654 L1579 653 L1580 652 L1580 651 L1581 650 L1582 649 L1582 648 L1583 647 L1583 646 L1584 645 L1585 644 L1585 643 L1586 642 L1586 641 L1587 640 L1588 639 L1588 638 L1589 637 L1589 636 L1590 635 L1591 634 L1591 633 L1592 632 L1593 631 L1593 630 L1594 629 L1595 628 L1595 627 L1596 626 L1597 625 L1598 624 L1598 623 L1599 622 L1600 621 L1601 620 L1601 619 L1602 618 L1603 617 L1603 616 L1604 615 L1605 614 L1606 613 L1606 612 L1607 611 L1607 610 L1608 609 L1608 608 L1609 607 L1609 606 L1610 605 L1610 604 L1611 603 L1611 602 L1612 601 L1612 600 L1613 599 L1613 598 L1614 597 L1614 596 L1614 595 L1615 594 L1615 593 L1616 592 L1616 591 L1617 590 L1617 589 L1617 588 L1618 587 L1618 586 L1619 585 L1619 584 L1620 583 L1620 582 L1621 581 L1621 580 L1622 579 L1623 578 L1623 577 L1624 576 L1624 575 L1625 574 L1625 573 L1626 572 L1627 571 L1627 570 L1628 569 L1628 568 L1629 567 L1630 566 L1630 565 L1631 564 L1631 563 L1632 562 L1633 561 L1633 560 L1634 559 L1634 558 L1635 557 L1635 556 L1636 555 L1636 554 L1637 553 L1637 552 L1638 551 L1638 550 L1639 549 L1639 548 L1640 547 L1640 546 L1641 545 L1642 544 L1642 543 L1643 542 L1643 541 L1644 540 L1644 539 L1645 538 L1646 537 L1646 536 L1647 535 L1647 534 L1648 533 L1649 532 L1649 531 L1650 530 L1650 529 L1651 528 L1652 527 L1652 526 L1653 525 L1653 524 L1654 523 L1654 522 L1655 521 L1656 520 L1656 519 L1657 518 L1657 517 L1658 516 L1658 515 L1659 514 L1659 513 L1660 512 L1660 511 L1661 510 L1661 509 L1662 508 L1662 507 L1662 506 L1663 505 L1663 504 L1664 503 L1664 502 L1664 501 L1665 500 L1665 499 L1665 498 L1666 497 L1666 496 L1666 495 L1666 494 L1666 493 L1666 492 L1666 491 L1666 490 L1666 489 L1666 488 L1666 487 L1666 486 L1666 485 L1666 484 L1666 483 L1666 482 L1666 481 L1666 480 L1666 479 L1666 478 L1665 477 L1665 476 L1664 475 L1664 474 L1663 473 L1662 472 L1662 471 L1661 470 L1660 469 L1659 468 L1659 467 L1658 466 L1657 465 L1656 464 L1655 463 L1654 462 L1653 462 L1652 461 L1651 460 L1650 460 L1649 459 L1648 459 L1647 459 L1646 458 L1645 458 L1644 458 L1643 458 L1642 458 L1641 458 L1640 458 L1639 458 L1638 458 Z" fill="#000000" fill-rule="evenodd"/>
</svg>
