<svg xmlns="http://www.w3.org/2000/svg" width="510" height="441" viewBox="0 0 510 441" fill="none">
  <path d="M 330 233 L 329 234 L 328 235 L 327 236 L 326 236 L 326 237 L 325 238 L 324 238 L 323 239 L 323 240 L 322 241 L 321 242 L 320 243 L 319 244 L 318 244 L 318 245 L 317 246 L 316 246 L 315 247 L 315 248 L 314 249 L 313 250 L 312 251 L 311 252 L 310 252 L 310 253 L 309 254 L 308 254 L 307 255 L 307 256 L 306 257 L 305 258 L 304 259 L 303 260 L 302 260 L 302 261 L 301 262 L 300 262 L 299 263 L 299 264 L 298 265 L 297 266 L 296 267 L 295 268 L 294 268 L 294 269 L 293 270 L 292 270 L 291 271 L 291 272 L 290 273 L 289 274 L 288 275 L 287 276 L 286 276 L 286 277 L 285 278 L 284 278 L 283 279 L 283 280 L 282 281 L 281 282 L 280 283 L 279 284 L 278 285 L 278 286 L 278 287 L 278 288 L 278 289 L 279 290 L 280 291 L 281 292 L 282 293 L 283 294 L 284 295 L 285 296 L 286 297 L 287 298 L 288 299 L 289 300 L 290 301 L 291 302 L 292 303 L 293 304 L 294 305 L 295 306 L 296 307 L 297 308 L 298 309 L 299 310 L 300 311 L 301 312 L 302 313 L 303 314 L 304 315 L 305 316 L 306 317 L 307 318 L 308 319 L 309 320 L 310 321 L 311 322 L 312 323 L 313 324 L 314 325 L 315 326 L 316 327 L 317 328 L 318 329 L 319 330 L 320 331 L 321 332 L 322 333 L 323 334 L 324 335 L 325 336 L 326 337 L 327 338 L 328 339 L 329 340 L 330 341 L 331 342 L 332 343 L 333 344 L 334 345 L 335 346 L 336 347 L 337 348 L 338 349 L 339 350 L 340 351 L 341 352 L 342 353 L 343 354 L 344 355 L 344 356 L 343 357 L 342 357 L 341 358 L 340 359 L 339 359 L 338 360 L 337 361 L 336 361 L 335 362 L 334 363 L 333 363 L 332 364 L 331 365 L 330 365 L 329 366 L 328 367 L 327 368 L 326 368 L 325 369 L 324 370 L 323 370 L 322 371 L 321 372 L 320 372 L 319 373 L 318 374 L 317 374 L 316 375 L 315 376 L 314 376 L 313 377 L 312 378 L 311 379 L 310 379 L 309 380 L 308 381 L 307 381 L 307 382 L 306 383 L 306 384 L 306 385 L 307 386 L 307 387 L 308 388 L 309 388 L 310 388 L 311 388 L 312 388 L 313 388 L 314 388 L 315 388 L 316 388 L 317 388 L 318 388 L 319 388 L 320 388 L 321 388 L 322 388 L 323 388 L 324 388 L 325 388 L 326 388 L 327 388 L 328 388 L 329 388 L 330 388 L 331 388 L 332 388 L 333 388 L 334 388 L 335 388 L 336 388 L 337 388 L 338 388 L 339 388 L 340 388 L 341 388 L 342 388 L 343 388 L 344 388 L 345 388 L 346 388 L 347 388 L 348 388 L 349 388 L 350 388 L 351 388 L 352 388 L 353 388 L 354 388 L 355 388 L 356 388 L 357 388 L 358 388 L 359 388 L 360 388 L 361 388 L 362 388 L 363 388 L 364 388 L 365 388 L 366 388 L 367 388 L 368 388 L 369 388 L 370 388 L 371 388 L 372 388 L 373 388 L 374 388 L 375 388 L 376 388 L 377 388 L 378 388 L 379 388 L 380 388 L 381 388 L 382 388 L 383 388 L 384 388 L 385 388 L 386 388 L 387 388 L 388 388 L 389 388 L 390 388 L 391 388 L 392 388 L 393 388 L 394 388 L 395 388 L 396 388 L 397 388 L 398 388 L 399 388 L 400 388 L 401 388 L 402 388 L 403 388 L 404 388 L 405 388 L 406 388 L 407 388 L 408 388 L 409 388 L 410 388 L 411 388 L 412 388 L 413 388 L 414 388 L 415 388 L 416 388 L 417 388 L 418 388 L 419 388 L 420 388 L 421 388 L 422 388 L 423 388 L 424 388 L 425 388 L 426 388 L 427 388 L 428 388 L 429 388 L 430 388 L 431 388 L 432 387 L 433 387 L 433 386 L 434 385 L 434 384 L 434 383 L 434 382 L 434 381 L 434 380 L 434 379 L 434 378 L 434 377 L 434 376 L 434 375 L 434 374 L 434 373 L 434 372 L 434 371 L 434 370 L 434 369 L 434 368 L 434 367 L 434 366 L 434 365 L 434 364 L 434 363 L 434 362 L 434 361 L 434 360 L 434 359 L 434 358 L 434 357 L 434 356 L 434 355 L 434 354 L 434 353 L 434 352 L 434 351 L 434 350 L 434 349 L 434 348 L 434 347 L 434 346 L 434 345 L 434 344 L 434 343 L 434 342 L 434 341 L 434 340 L 434 339 L 434 338 L 434 337 L 434 336 L 434 335 L 434 334 L 434 333 L 434 332 L 434 331 L 434 330 L 434 329 L 434 328 L 434 327 L 434 326 L 434 325 L 434 324 L 434 323 L 434 322 L 434 321 L 434 320 L 434 319 L 434 318 L 434 317 L 434 316 L 434 315 L 434 314 L 434 313 L 434 312 L 434 311 L 434 310 L 434 309 L 434 308 L 434 307 L 434 306 L 434 305 L 434 304 L 434 303 L 434 302 L 434 301 L 434 300 L 434 299 L 434 298 L 434 297 L 434 296 L 434 295 L 434 294 L 434 293 L 434 292 L 434 291 L 434 290 L 434 289 L 434 288 L 434 287 L 434 286 L 434 285 L 434 284 L 434 283 L 434 282 L 434 281 L 434 280 L 434 279 L 434 278 L 434 277 L 434 276 L 434 275 L 434 274 L 434 273 L 434 272 L 434 271 L 434 270 L 434 269 L 434 268 L 434 267 L 434 266 L 434 265 L 434 264 L 433 263 L 433 262 L 432 262 L 431 261 L 430 261 L 429 261 L 428 261 L 427 262 L 426 262 L 426 263 L 425 264 L 424 265 L 424 266 L 423 267 L 422 268 L 422 269 L 421 270 L 420 271 L 420 272 L 419 273 L 418 274 L 417 275 L 417 276 L 416 277 L 415 278 L 415 279 L 414 280 L 413 281 L 413 282 L 412 283 L 411 284 L 411 285 L 410 286 L 409 287 L 408 288 L 408 289 L 407 290 L 406 291 L 406 292 L 405 293 L 404 294 L 404 295 L 403 296 L 402 297 L 402 298 L 401 299 L 400 299 L 399 298 L 398 297 L 397 296 L 396 295 L 395 294 L 395 293 L 394 293 L 393 292 L 392 291 L 391 290 L 390 289 L 389 288 L 388 287 L 387 286 L 387 285 L 386 285 L 385 284 L 384 283 L 383 282 L 382 281 L 381 280 L 380 279 L 379 278 L 379 277 L 378 277 L 377 276 L 376 275 L 375 274 L 374 273 L 373 272 L 372 271 L 371 270 L 371 269 L 370 269 L 369 268 L 368 267 L 367 266 L 366 265 L 365 264 L 364 263 L 363 262 L 363 261 L 362 261 L 361 260 L 360 259 L 359 258 L 358 257 L 357 256 L 356 255 L 355 254 L 355 253 L 354 253 L 353 252 L 352 251 L 351 250 L 350 249 L 349 248 L 348 247 L 347 246 L 346 245 L 345 244 L 344 243 L 343 242 L 342 241 L 341 240 L 340 239 L 339 238 L 338 237 L 337 236 L 336 235 L 335 234 L 334 233 L 333 233 L 332 233 L 331 233 Z M 331 244 L 332 243 L 333 243 L 334 244 L 334 245 L 335 245 L 336 246 L 336 247 L 337 248 L 338 248 L 339 249 L 340 250 L 341 251 L 341 252 L 342 253 L 343 253 L 344 254 L 344 255 L 345 256 L 346 256 L 347 257 L 348 258 L 349 259 L 350 260 L 350 261 L 351 261 L 352 262 L 352 263 L 353 264 L 354 264 L 355 265 L 356 266 L 357 267 L 357 268 L 358 269 L 359 269 L 360 270 L 360 271 L 361 272 L 362 272 L 363 273 L 364 274 L 365 275 L 366 276 L 366 277 L 367 277 L 368 278 L 368 279 L 369 280 L 370 280 L 371 281 L 372 282 L 373 283 L 374 284 L 374 285 L 375 285 L 376 286 L 376 287 L 377 288 L 378 288 L 379 289 L 380 290 L 381 291 L 381 292 L 382 293 L 383 293 L 384 294 L 384 295 L 385 296 L 386 296 L 387 297 L 388 298 L 389 299 L 390 300 L 390 301 L 391 301 L 392 302 L 392 303 L 393 304 L 394 304 L 395 305 L 396 306 L 397 307 L 397 308 L 398 309 L 399 309 L 400 310 L 401 310 L 402 310 L 403 310 L 404 309 L 405 308 L 406 307 L 406 306 L 407 305 L 408 304 L 408 303 L 409 302 L 410 301 L 410 300 L 411 299 L 412 298 L 412 297 L 413 296 L 414 295 L 415 294 L 415 293 L 416 292 L 417 291 L 417 290 L 418 289 L 419 288 L 419 287 L 420 286 L 421 285 L 422 284 L 422 283 L 423 282 L 423 281 L 424 280 L 425 280 L 426 281 L 425 282 L 425 283 L 425 284 L 425 285 L 425 286 L 425 287 L 425 288 L 425 289 L 425 290 L 425 291 L 425 292 L 425 293 L 425 294 L 425 295 L 425 296 L 425 297 L 425 298 L 425 299 L 425 300 L 425 301 L 425 302 L 425 303 L 425 304 L 425 305 L 425 306 L 425 307 L 425 308 L 425 309 L 425 310 L 425 311 L 425 312 L 425 313 L 425 314 L 425 315 L 425 316 L 425 317 L 425 318 L 425 319 L 425 320 L 425 321 L 425 322 L 425 323 L 425 324 L 425 325 L 425 326 L 425 327 L 425 328 L 425 329 L 425 330 L 425 331 L 425 332 L 425 333 L 425 334 L 425 335 L 425 336 L 425 337 L 425 338 L 425 339 L 425 340 L 425 341 L 425 342 L 425 343 L 425 344 L 425 345 L 425 346 L 425 347 L 425 348 L 425 349 L 425 350 L 425 351 L 425 352 L 425 353 L 425 354 L 425 355 L 425 356 L 425 357 L 425 358 L 425 359 L 425 360 L 425 361 L 425 362 L 425 363 L 425 364 L 425 365 L 425 366 L 425 367 L 425 368 L 425 369 L 425 370 L 425 371 L 425 372 L 425 373 L 425 374 L 425 375 L 425 376 L 425 377 L 425 378 L 425 379 L 424 380 L 423 380 L 422 380 L 421 380 L 420 380 L 419 380 L 418 380 L 417 380 L 416 380 L 415 380 L 414 380 L 413 380 L 412 380 L 411 380 L 410 380 L 409 380 L 408 380 L 407 380 L 406 380 L 405 380 L 404 380 L 403 380 L 402 380 L 401 380 L 400 380 L 399 380 L 398 380 L 397 380 L 396 380 L 395 380 L 394 380 L 393 380 L 392 380 L 391 380 L 390 380 L 389 380 L 388 380 L 387 380 L 386 380 L 385 380 L 384 380 L 383 380 L 382 380 L 381 380 L 380 380 L 379 380 L 378 380 L 377 380 L 376 380 L 375 380 L 374 380 L 373 380 L 372 380 L 371 380 L 370 380 L 369 380 L 368 380 L 367 380 L 366 380 L 365 380 L 364 380 L 363 380 L 362 380 L 361 380 L 360 380 L 359 380 L 358 380 L 357 380 L 356 380 L 355 380 L 354 380 L 353 380 L 352 380 L 351 380 L 350 380 L 349 380 L 348 380 L 347 380 L 346 380 L 345 380 L 344 380 L 343 380 L 342 380 L 341 380 L 340 380 L 339 380 L 338 380 L 337 380 L 336 380 L 335 380 L 334 380 L 333 380 L 332 380 L 331 380 L 330 380 L 329 380 L 328 380 L 327 380 L 326 380 L 325 379 L 326 378 L 327 378 L 328 377 L 329 376 L 330 376 L 331 375 L 332 374 L 333 374 L 334 373 L 335 372 L 336 371 L 337 371 L 338 370 L 339 370 L 340 369 L 341 368 L 342 368 L 343 367 L 344 366 L 345 365 L 346 365 L 347 364 L 348 363 L 349 363 L 350 362 L 351 361 L 352 360 L 353 360 L 354 359 L 355 358 L 355 357 L 355 356 L 355 355 L 355 354 L 354 353 L 353 352 L 352 351 L 351 350 L 350 349 L 349 348 L 348 347 L 347 346 L 346 345 L 345 344 L 344 343 L 343 342 L 342 341 L 341 340 L 340 339 L 339 338 L 338 337 L 337 336 L 336 335 L 335 334 L 334 333 L 333 332 L 332 331 L 331 330 L 330 329 L 329 328 L 328 327 L 327 326 L 326 325 L 325 324 L 324 323 L 323 322 L 322 321 L 321 320 L 320 319 L 319 318 L 318 317 L 317 316 L 316 315 L 315 314 L 314 313 L 313 312 L 312 311 L 311 310 L 310 309 L 309 308 L 308 307 L 307 306 L 306 305 L 305 304 L 304 303 L 303 302 L 302 301 L 301 300 L 300 299 L 299 298 L 298 297 L 297 296 L 296 295 L 295 294 L 294 293 L 293 292 L 292 291 L 291 290 L 290 289 L 289 288 L 288 287 L 289 286 L 290 285 L 291 284 L 292 283 L 293 282 L 294 281 L 295 280 L 296 279 L 297 278 L 298 277 L 299 276 L 300 275 L 301 274 L 302 273 L 303 272 L 304 271 L 305 270 L 306 269 L 307 268 L 308 267 L 309 266 L 310 265 L 311 264 L 312 263 L 313 262 L 314 261 L 315 260 L 316 259 L 317 258 L 318 257 L 319 256 L 320 255 L 321 254 L 322 253 L 323 252 L 324 251 L 325 250 L 326 249 L 327 248 L 328 247 L 329 246 L 330 245 Z M 181 232 L 180 233 L 179 233 L 178 234 L 177 235 L 176 236 L 175 237 L 174 237 L 174 238 L 173 239 L 172 240 L 171 241 L 170 242 L 169 243 L 168 244 L 167 245 L 166 245 L 165 246 L 164 247 L 164 248 L 163 249 L 162 250 L 161 251 L 160 252 L 159 253 L 158 253 L 157 254 L 157 255 L 156 256 L 155 257 L 154 258 L 153 259 L 152 260 L 151 260 L 151 261 L 150 262 L 149 263 L 148 263 L 148 264 L 147 265 L 146 266 L 145 267 L 144 268 L 143 269 L 142 270 L 141 270 L 141 271 L 140 272 L 139 273 L 138 274 L 137 275 L 136 276 L 135 277 L 134 277 L 133 278 L 132 279 L 132 280 L 131 281 L 130 282 L 129 283 L 128 284 L 127 284 L 126 285 L 125 286 L 125 287 L 124 288 L 123 289 L 122 290 L 121 291 L 120 292 L 119 292 L 118 293 L 118 294 L 117 295 L 116 296 L 115 297 L 114 297 L 114 298 L 113 299 L 112 299 L 111 298 L 111 297 L 110 296 L 109 295 L 109 294 L 108 293 L 107 292 L 107 291 L 106 290 L 105 289 L 105 288 L 104 287 L 103 286 L 103 285 L 102 284 L 101 283 L 101 282 L 100 281 L 99 280 L 98 279 L 98 278 L 97 277 L 96 276 L 96 275 L 95 274 L 94 273 L 94 272 L 93 271 L 92 270 L 91 269 L 91 268 L 90 267 L 89 266 L 89 265 L 88 264 L 87 263 L 86 262 L 85 261 L 84 261 L 83 261 L 82 261 L 81 262 L 80 263 L 80 264 L 80 265 L 80 266 L 80 267 L 80 268 L 80 269 L 80 270 L 80 271 L 80 272 L 80 273 L 80 274 L 80 275 L 80 276 L 80 277 L 80 278 L 80 279 L 80 280 L 80 281 L 80 282 L 80 283 L 80 284 L 80 285 L 80 286 L 80 287 L 80 288 L 80 289 L 80 290 L 80 291 L 80 292 L 80 293 L 80 294 L 80 295 L 80 296 L 80 297 L 80 298 L 80 299 L 80 300 L 80 301 L 80 302 L 80 303 L 80 304 L 80 305 L 80 306 L 80 307 L 80 308 L 80 309 L 80 310 L 80 311 L 80 312 L 80 313 L 80 314 L 80 315 L 80 316 L 80 317 L 80 318 L 80 319 L 80 320 L 80 321 L 80 322 L 80 323 L 80 324 L 80 325 L 80 326 L 80 327 L 80 328 L 80 329 L 80 330 L 80 331 L 80 332 L 80 333 L 80 334 L 80 335 L 80 336 L 80 337 L 80 338 L 80 339 L 80 340 L 80 341 L 80 342 L 80 343 L 80 344 L 80 345 L 80 346 L 80 347 L 80 348 L 80 349 L 80 350 L 80 351 L 80 352 L 80 353 L 80 354 L 80 355 L 80 356 L 80 357 L 80 358 L 80 359 L 80 360 L 80 361 L 80 362 L 80 363 L 80 364 L 80 365 L 80 366 L 80 367 L 80 368 L 80 369 L 80 370 L 80 371 L 80 372 L 80 373 L 80 374 L 80 375 L 80 376 L 80 377 L 80 378 L 80 379 L 80 380 L 80 381 L 80 382 L 80 383 L 80 384 L 80 385 L 80 386 L 81 387 L 82 388 L 83 388 L 84 388 L 85 388 L 86 388 L 87 388 L 88 388 L 89 388 L 90 388 L 91 388 L 92 388 L 93 388 L 94 388 L 95 388 L 96 388 L 97 388 L 98 388 L 99 388 L 100 388 L 101 388 L 102 388 L 103 388 L 104 388 L 105 388 L 106 388 L 107 388 L 108 388 L 109 388 L 110 388 L 111 388 L 112 388 L 113 388 L 114 388 L 115 388 L 116 388 L 117 388 L 118 388 L 119 388 L 120 388 L 121 388 L 122 388 L 123 388 L 124 388 L 125 388 L 126 388 L 127 388 L 128 388 L 129 388 L 130 388 L 131 388 L 132 388 L 133 388 L 134 388 L 135 388 L 136 388 L 137 388 L 138 388 L 139 388 L 140 388 L 141 388 L 142 388 L 143 388 L 144 388 L 145 388 L 146 388 L 147 388 L 148 388 L 149 388 L 150 388 L 151 388 L 152 388 L 153 388 L 154 388 L 155 388 L 156 388 L 157 388 L 158 388 L 159 388 L 160 388 L 161 388 L 162 388 L 163 388 L 164 388 L 165 388 L 166 388 L 167 388 L 168 388 L 169 388 L 170 388 L 171 388 L 172 388 L 173 388 L 174 388 L 175 388 L 176 388 L 177 388 L 178 388 L 179 388 L 180 388 L 181 388 L 182 388 L 183 388 L 184 388 L 185 388 L 186 388 L 187 388 L 188 388 L 189 388 L 190 388 L 191 388 L 192 388 L 193 388 L 194 388 L 195 388 L 196 388 L 197 388 L 198 388 L 199 388 L 200 388 L 201 388 L 202 388 L 203 388 L 204 388 L 205 388 L 206 387 L 207 386 L 207 385 L 207 384 L 207 383 L 206 382 L 206 381 L 205 380 L 204 380 L 203 379 L 202 379 L 201 378 L 200 377 L 199 376 L 198 376 L 197 375 L 196 374 L 195 374 L 194 373 L 193 372 L 192 372 L 191 371 L 190 370 L 189 369 L 188 369 L 187 368 L 186 367 L 185 367 L 184 366 L 183 365 L 182 365 L 181 364 L 180 363 L 179 363 L 178 362 L 177 361 L 176 361 L 175 360 L 174 359 L 173 359 L 172 358 L 171 357 L 170 357 L 169 356 L 169 355 L 170 354 L 171 353 L 172 352 L 173 351 L 174 350 L 175 349 L 176 348 L 177 347 L 178 346 L 179 345 L 180 344 L 181 343 L 182 342 L 183 341 L 184 340 L 185 339 L 186 338 L 187 337 L 188 336 L 189 335 L 190 334 L 191 333 L 192 332 L 193 331 L 194 330 L 195 329 L 196 328 L 197 327 L 198 326 L 199 325 L 200 324 L 201 323 L 202 322 L 203 321 L 204 320 L 205 319 L 206 318 L 207 317 L 208 316 L 209 315 L 210 314 L 211 313 L 212 312 L 213 311 L 214 310 L 215 309 L 216 308 L 217 307 L 218 306 L 219 305 L 220 304 L 221 303 L 222 302 L 223 301 L 224 300 L 225 299 L 226 298 L 227 297 L 228 296 L 229 295 L 230 294 L 231 293 L 232 292 L 233 291 L 234 290 L 235 289 L 235 288 L 235 287 L 235 286 L 235 285 L 234 284 L 233 283 L 232 282 L 231 281 L 231 280 L 230 280 L 229 279 L 229 278 L 228 277 L 227 277 L 226 276 L 225 275 L 224 274 L 223 273 L 223 272 L 222 272 L 221 271 L 221 270 L 220 269 L 219 269 L 218 268 L 217 267 L 216 266 L 215 265 L 215 264 L 214 264 L 213 263 L 213 262 L 212 261 L 211 261 L 210 260 L 209 259 L 208 258 L 207 257 L 207 256 L 206 256 L 205 255 L 205 254 L 204 253 L 203 253 L 202 252 L 201 251 L 200 250 L 199 249 L 199 248 L 198 248 L 197 247 L 197 246 L 196 245 L 195 245 L 194 244 L 193 243 L 192 242 L 191 241 L 191 240 L 190 240 L 189 239 L 189 238 L 188 238 L 187 237 L 186 236 L 185 235 L 184 234 L 183 233 L 182 233 Z M 180 244 L 181 243 L 182 244 L 183 244 L 184 245 L 185 246 L 185 247 L 186 247 L 187 248 L 187 249 L 188 249 L 189 250 L 189 251 L 190 252 L 191 252 L 192 253 L 193 254 L 193 255 L 194 255 L 195 256 L 195 257 L 196 257 L 197 258 L 197 259 L 198 260 L 199 260 L 200 261 L 201 262 L 201 263 L 202 263 L 203 264 L 203 265 L 204 265 L 205 266 L 205 267 L 206 268 L 207 268 L 208 269 L 209 270 L 209 271 L 210 271 L 211 272 L 211 273 L 212 273 L 213 274 L 213 275 L 214 276 L 215 276 L 216 277 L 217 278 L 217 279 L 218 279 L 219 280 L 219 281 L 220 281 L 221 282 L 221 283 L 222 284 L 223 284 L 224 285 L 225 286 L 225 287 L 224 288 L 223 289 L 222 290 L 221 291 L 220 292 L 219 293 L 218 294 L 217 295 L 216 296 L 215 297 L 214 298 L 213 299 L 212 300 L 211 301 L 210 302 L 209 303 L 208 304 L 207 305 L 206 306 L 205 307 L 204 308 L 203 309 L 202 310 L 201 311 L 200 312 L 199 313 L 198 314 L 197 315 L 196 316 L 195 317 L 194 318 L 193 319 L 192 320 L 191 321 L 190 322 L 189 323 L 188 324 L 187 325 L 186 326 L 185 327 L 184 328 L 183 329 L 182 330 L 181 331 L 180 332 L 179 333 L 178 334 L 177 335 L 176 336 L 175 337 L 174 338 L 173 339 L 172 340 L 171 341 L 170 342 L 169 343 L 168 344 L 167 345 L 166 346 L 165 347 L 164 348 L 163 349 L 162 350 L 161 351 L 160 352 L 159 353 L 158 354 L 158 355 L 158 356 L 158 357 L 158 358 L 159 359 L 160 360 L 161 360 L 162 361 L 163 362 L 164 363 L 165 363 L 166 364 L 167 365 L 168 365 L 169 366 L 170 367 L 171 367 L 172 368 L 173 369 L 174 369 L 175 370 L 176 371 L 177 372 L 178 372 L 179 373 L 180 374 L 181 374 L 182 375 L 183 376 L 184 376 L 185 377 L 186 378 L 187 378 L 188 379 L 187 380 L 186 380 L 185 380 L 184 380 L 183 380 L 182 380 L 181 380 L 180 380 L 179 380 L 178 380 L 177 380 L 176 380 L 175 380 L 174 380 L 173 380 L 172 380 L 171 380 L 170 380 L 169 380 L 168 380 L 167 380 L 166 380 L 165 380 L 164 380 L 163 380 L 162 380 L 161 380 L 160 380 L 159 380 L 158 380 L 157 380 L 156 380 L 155 380 L 154 380 L 153 380 L 152 380 L 151 380 L 150 380 L 149 380 L 148 380 L 147 380 L 146 380 L 145 380 L 144 380 L 143 380 L 142 380 L 141 380 L 140 380 L 139 380 L 138 380 L 137 380 L 136 380 L 135 380 L 134 380 L 133 380 L 132 380 L 131 380 L 130 380 L 129 380 L 128 380 L 127 380 L 126 380 L 125 380 L 124 380 L 123 380 L 122 380 L 121 380 L 120 380 L 119 380 L 118 380 L 117 380 L 116 380 L 115 380 L 114 380 L 113 380 L 112 380 L 111 380 L 110 380 L 109 380 L 108 380 L 107 380 L 106 380 L 105 380 L 104 380 L 103 380 L 102 380 L 101 380 L 100 380 L 99 380 L 98 380 L 97 380 L 96 380 L 95 380 L 94 380 L 93 380 L 92 380 L 91 380 L 90 380 L 89 380 L 88 379 L 88 378 L 88 377 L 88 376 L 88 375 L 88 374 L 88 373 L 88 372 L 88 371 L 88 370 L 88 369 L 88 368 L 88 367 L 88 366 L 88 365 L 88 364 L 88 363 L 88 362 L 88 361 L 88 360 L 88 359 L 88 358 L 88 357 L 88 356 L 88 355 L 88 354 L 88 353 L 88 352 L 88 351 L 88 350 L 88 349 L 88 348 L 88 347 L 88 346 L 88 345 L 88 344 L 88 343 L 88 342 L 88 341 L 88 340 L 88 339 L 88 338 L 88 337 L 88 336 L 88 335 L 88 334 L 88 333 L 88 332 L 88 331 L 88 330 L 88 329 L 88 328 L 88 327 L 88 326 L 88 325 L 88 324 L 88 323 L 88 322 L 88 321 L 88 320 L 88 319 L 88 318 L 88 317 L 88 316 L 88 315 L 88 314 L 88 313 L 88 312 L 88 311 L 88 310 L 88 309 L 88 308 L 88 307 L 88 306 L 88 305 L 88 304 L 88 303 L 88 302 L 88 301 L 88 300 L 88 299 L 88 298 L 88 297 L 88 296 L 88 295 L 88 294 L 88 293 L 88 292 L 88 291 L 88 290 L 88 289 L 88 288 L 88 287 L 88 286 L 88 285 L 88 284 L 88 283 L 88 282 L 88 281 L 89 280 L 90 281 L 90 282 L 91 283 L 92 284 L 92 285 L 93 286 L 94 287 L 94 288 L 95 289 L 96 290 L 96 291 L 97 292 L 98 293 L 98 294 L 99 295 L 100 296 L 101 297 L 101 298 L 102 299 L 103 300 L 103 301 L 104 302 L 105 303 L 105 304 L 106 305 L 107 306 L 107 307 L 108 308 L 109 309 L 110 310 L 111 310 L 112 310 L 113 310 L 114 310 L 115 309 L 116 308 L 117 307 L 118 306 L 119 305 L 120 304 L 121 303 L 122 302 L 123 301 L 124 300 L 125 299 L 126 298 L 127 297 L 128 296 L 129 295 L 130 294 L 131 293 L 132 292 L 133 291 L 134 290 L 135 289 L 136 288 L 137 287 L 138 286 L 139 285 L 140 284 L 141 283 L 142 282 L 143 281 L 144 280 L 145 279 L 146 278 L 147 277 L 148 276 L 149 275 L 150 274 L 151 273 L 152 272 L 153 271 L 154 270 L 155 269 L 156 268 L 157 267 L 158 266 L 159 265 L 160 264 L 161 263 L 162 262 L 163 261 L 164 260 L 165 259 L 166 258 L 167 257 L 168 256 L 169 255 L 170 254 L 171 253 L 172 252 L 173 251 L 174 250 L 175 249 L 176 248 L 177 247 L 178 246 L 179 245 Z M 309 34 L 308 35 L 307 36 L 306 37 L 306 38 L 306 39 L 307 40 L 307 41 L 308 42 L 309 43 L 310 43 L 311 44 L 312 45 L 313 45 L 314 46 L 315 47 L 316 47 L 317 48 L 318 49 L 319 49 L 320 50 L 321 51 L 322 52 L 323 52 L 324 53 L 325 54 L 326 54 L 327 55 L 328 56 L 329 56 L 330 57 L 331 58 L 332 58 L 333 59 L 334 60 L 335 60 L 336 61 L 337 62 L 338 63 L 339 63 L 340 64 L 341 65 L 342 65 L 343 66 L 344 67 L 343 68 L 343 69 L 342 70 L 341 70 L 341 71 L 340 72 L 339 73 L 338 74 L 337 75 L 336 76 L 335 77 L 334 77 L 333 78 L 333 79 L 332 80 L 331 81 L 330 82 L 329 83 L 328 84 L 327 85 L 326 85 L 325 86 L 325 87 L 324 88 L 323 89 L 322 90 L 321 91 L 320 92 L 319 93 L 318 94 L 317 95 L 316 95 L 316 96 L 315 97 L 314 98 L 313 99 L 312 100 L 311 101 L 310 101 L 309 102 L 309 103 L 308 104 L 307 105 L 306 106 L 305 107 L 304 108 L 303 109 L 302 109 L 301 110 L 301 111 L 300 112 L 299 113 L 298 114 L 297 115 L 296 116 L 295 117 L 294 117 L 294 118 L 293 119 L 292 119 L 292 120 L 291 121 L 290 122 L 289 123 L 288 124 L 287 125 L 286 125 L 285 126 L 285 127 L 284 128 L 283 129 L 282 130 L 281 131 L 280 132 L 279 133 L 278 133 L 278 134 L 278 135 L 278 136 L 278 137 L 278 138 L 279 139 L 280 140 L 281 141 L 282 142 L 283 143 L 284 144 L 285 145 L 286 146 L 287 147 L 288 148 L 289 149 L 290 150 L 291 151 L 292 152 L 293 153 L 294 154 L 295 155 L 296 156 L 297 157 L 298 158 L 299 159 L 300 160 L 301 161 L 302 162 L 303 163 L 304 164 L 305 165 L 306 166 L 307 167 L 308 168 L 309 169 L 310 170 L 311 171 L 312 172 L 313 173 L 314 174 L 315 175 L 316 176 L 317 177 L 318 178 L 319 179 L 320 180 L 321 181 L 322 182 L 323 183 L 324 184 L 325 185 L 326 186 L 327 187 L 328 188 L 329 189 L 330 190 L 331 190 L 332 190 L 333 190 L 334 190 L 335 189 L 336 188 L 337 187 L 338 186 L 339 185 L 340 184 L 341 183 L 342 182 L 343 181 L 344 180 L 345 179 L 346 178 L 347 177 L 348 176 L 349 175 L 350 174 L 351 173 L 352 172 L 353 171 L 354 170 L 355 169 L 356 168 L 357 167 L 358 166 L 359 165 L 360 164 L 361 163 L 362 162 L 363 161 L 364 160 L 365 159 L 366 158 L 367 157 L 368 156 L 369 155 L 370 154 L 371 153 L 372 152 L 373 151 L 374 150 L 375 149 L 376 148 L 377 147 L 378 146 L 379 145 L 380 144 L 381 143 L 382 142 L 383 141 L 384 140 L 385 139 L 386 138 L 387 137 L 388 136 L 389 135 L 390 134 L 391 133 L 392 132 L 393 131 L 394 130 L 395 129 L 396 128 L 397 127 L 398 126 L 399 125 L 400 124 L 401 124 L 402 125 L 403 126 L 403 127 L 404 128 L 405 129 L 405 130 L 406 131 L 407 132 L 407 133 L 408 134 L 409 135 L 410 136 L 410 137 L 411 138 L 412 139 L 412 140 L 413 141 L 414 142 L 414 143 L 415 144 L 416 145 L 416 146 L 417 147 L 418 148 L 418 149 L 419 150 L 420 151 L 421 152 L 421 153 L 422 154 L 422 155 L 423 156 L 424 157 L 425 158 L 425 159 L 426 160 L 427 161 L 428 161 L 429 162 L 430 162 L 431 161 L 432 161 L 433 160 L 433 159 L 434 158 L 434 157 L 434 156 L 434 155 L 434 154 L 434 153 L 434 152 L 434 151 L 434 150 L 434 149 L 434 148 L 434 147 L 434 146 L 434 145 L 434 144 L 434 143 L 434 142 L 434 141 L 434 140 L 434 139 L 434 138 L 434 137 L 434 136 L 434 135 L 434 134 L 434 133 L 434 132 L 434 131 L 434 130 L 434 129 L 434 128 L 434 127 L 434 126 L 434 125 L 434 124 L 434 123 L 434 122 L 434 121 L 434 120 L 434 119 L 434 118 L 434 117 L 434 116 L 434 115 L 434 114 L 434 113 L 434 112 L 434 111 L 434 110 L 434 109 L 434 108 L 434 107 L 434 106 L 434 105 L 434 104 L 433 103 L 433 102 L 433 101 L 433 100 L 433 99 L 433 98 L 433 97 L 433 96 L 433 95 L 433 94 L 433 93 L 433 92 L 433 91 L 433 90 L 433 89 L 433 88 L 433 87 L 433 86 L 433 85 L 433 84 L 433 83 L 433 82 L 433 81 L 433 80 L 433 79 L 433 78 L 433 77 L 433 76 L 433 75 L 433 74 L 433 73 L 433 72 L 433 71 L 433 70 L 433 69 L 433 68 L 433 67 L 433 66 L 433 65 L 433 64 L 433 63 L 433 62 L 433 61 L 433 60 L 433 59 L 433 58 L 433 57 L 433 56 L 433 55 L 433 54 L 433 53 L 433 52 L 433 51 L 433 50 L 433 49 L 433 48 L 433 47 L 433 46 L 433 45 L 433 44 L 433 43 L 433 42 L 433 41 L 433 40 L 433 39 L 433 38 L 433 37 L 433 36 L 432 35 L 431 35 L 430 34 L 429 34 L 428 34 L 427 34 L 426 34 L 425 34 L 424 34 L 423 34 L 422 34 L 421 34 L 420 34 L 419 34 L 418 34 L 417 34 L 416 34 L 415 34 L 414 34 L 413 34 L 412 34 L 411 34 L 410 34 L 409 34 L 408 34 L 407 34 L 406 34 L 405 34 L 404 34 L 403 34 L 402 34 L 401 34 L 400 34 L 399 34 L 398 34 L 397 34 L 396 34 L 395 34 L 394 34 L 393 34 L 392 34 L 391 34 L 390 34 L 389 34 L 388 34 L 387 34 L 386 34 L 385 34 L 384 34 L 383 34 L 382 34 L 381 34 L 380 34 L 379 34 L 378 34 L 377 34 L 376 34 L 375 34 L 374 34 L 373 34 L 372 34 L 371 34 L 370 34 L 369 34 L 368 34 L 367 34 L 366 34 L 365 34 L 364 34 L 363 34 L 362 34 L 361 34 L 360 34 L 359 34 L 358 34 L 357 34 L 356 34 L 355 34 L 354 34 L 353 34 L 352 34 L 351 34 L 350 34 L 349 34 L 348 34 L 347 34 L 346 34 L 345 34 L 344 34 L 343 34 L 342 34 L 341 34 L 340 34 L 339 34 L 338 34 L 337 34 L 336 34 L 335 34 L 334 34 L 333 34 L 332 34 L 331 34 L 330 34 L 329 34 L 328 34 L 327 34 L 326 34 L 325 34 L 324 34 L 323 34 L 322 34 L 321 34 L 320 34 L 319 34 L 318 34 L 317 34 L 316 34 L 315 34 L 314 34 L 313 34 L 312 34 L 311 34 L 310 34 Z M 326 44 L 327 43 L 328 43 L 329 43 L 330 43 L 331 43 L 332 43 L 333 43 L 334 43 L 335 43 L 336 43 L 337 43 L 338 43 L 339 43 L 340 43 L 341 43 L 342 43 L 343 43 L 344 43 L 345 43 L 346 43 L 347 43 L 348 43 L 349 43 L 350 43 L 351 43 L 352 43 L 353 43 L 354 43 L 355 43 L 356 43 L 357 43 L 358 43 L 359 43 L 360 43 L 361 43 L 362 43 L 363 43 L 364 43 L 365 43 L 366 43 L 367 43 L 368 43 L 369 43 L 370 43 L 371 43 L 372 43 L 373 43 L 374 43 L 375 43 L 376 43 L 377 43 L 378 43 L 379 43 L 380 43 L 381 43 L 382 43 L 383 43 L 384 43 L 385 43 L 386 43 L 387 43 L 388 43 L 389 43 L 390 43 L 391 43 L 392 43 L 393 43 L 394 43 L 395 43 L 396 43 L 397 43 L 398 43 L 399 43 L 400 43 L 401 43 L 402 43 L 403 43 L 404 43 L 405 43 L 406 43 L 407 43 L 408 43 L 409 43 L 410 43 L 411 43 L 412 43 L 413 43 L 414 43 L 415 43 L 416 43 L 417 43 L 418 43 L 419 43 L 420 43 L 421 43 L 422 43 L 423 43 L 424 43 L 425 44 L 425 45 L 425 46 L 425 47 L 425 48 L 425 49 L 425 50 L 425 51 L 425 52 L 425 53 L 425 54 L 425 55 L 425 56 L 425 57 L 425 58 L 425 59 L 425 60 L 425 61 L 425 62 L 425 63 L 425 64 L 425 65 L 425 66 L 425 67 L 425 68 L 425 69 L 425 70 L 425 71 L 425 72 L 425 73 L 425 74 L 425 75 L 425 76 L 425 77 L 425 78 L 425 79 L 425 80 L 425 81 L 425 82 L 425 83 L 425 84 L 425 85 L 425 86 L 425 87 L 425 88 L 425 89 L 425 90 L 425 91 L 425 92 L 425 93 L 425 94 L 425 95 L 425 96 L 425 97 L 425 98 L 425 99 L 425 100 L 425 101 L 425 102 L 425 103 L 425 104 L 425 105 L 425 106 L 425 107 L 425 108 L 425 109 L 425 110 L 425 111 L 425 112 L 425 113 L 425 114 L 425 115 L 425 116 L 425 117 L 425 118 L 425 119 L 425 120 L 425 121 L 425 122 L 425 123 L 425 124 L 425 125 L 425 126 L 425 127 L 425 128 L 425 129 L 425 130 L 425 131 L 425 132 L 425 133 L 425 134 L 425 135 L 425 136 L 425 137 L 425 138 L 425 139 L 425 140 L 425 141 L 424 142 L 423 141 L 423 140 L 422 139 L 421 138 L 420 137 L 420 136 L 419 135 L 418 134 L 418 133 L 417 132 L 416 131 L 416 130 L 415 129 L 414 128 L 413 127 L 413 126 L 412 125 L 411 124 L 411 123 L 410 122 L 409 121 L 409 120 L 408 119 L 407 118 L 407 117 L 406 116 L 405 115 L 405 114 L 404 113 L 403 113 L 402 113 L 401 113 L 400 113 L 399 113 L 398 114 L 397 115 L 396 116 L 395 117 L 394 118 L 393 119 L 392 120 L 391 121 L 390 122 L 389 123 L 388 124 L 387 125 L 386 126 L 385 127 L 384 128 L 383 129 L 382 130 L 381 131 L 380 132 L 379 133 L 378 134 L 377 135 L 376 136 L 375 137 L 374 138 L 373 139 L 372 140 L 371 141 L 370 142 L 369 143 L 368 144 L 367 145 L 366 146 L 365 147 L 364 148 L 363 149 L 362 150 L 361 151 L 360 152 L 359 153 L 358 154 L 357 155 L 356 156 L 355 157 L 354 158 L 353 159 L 352 160 L 351 161 L 350 162 L 349 163 L 348 164 L 347 165 L 346 166 L 345 167 L 344 168 L 343 169 L 342 170 L 341 171 L 340 172 L 339 173 L 338 174 L 337 175 L 336 176 L 335 177 L 334 178 L 333 179 L 332 180 L 331 179 L 330 178 L 329 177 L 328 176 L 327 175 L 326 174 L 325 173 L 324 172 L 323 171 L 322 170 L 321 169 L 320 168 L 319 167 L 318 166 L 317 165 L 316 164 L 315 163 L 314 162 L 313 161 L 312 160 L 311 159 L 310 158 L 309 157 L 308 156 L 307 155 L 306 154 L 305 153 L 304 152 L 303 151 L 302 150 L 301 149 L 300 148 L 299 147 L 298 146 L 297 145 L 296 144 L 295 143 L 294 142 L 293 141 L 292 140 L 291 139 L 290 138 L 289 137 L 288 136 L 288 135 L 289 134 L 290 134 L 291 133 L 291 132 L 292 131 L 293 130 L 294 130 L 295 129 L 296 128 L 297 127 L 298 126 L 298 125 L 299 124 L 300 124 L 300 123 L 301 122 L 302 122 L 303 121 L 304 120 L 305 119 L 306 118 L 306 117 L 307 116 L 308 116 L 308 115 L 309 114 L 310 114 L 311 113 L 312 112 L 313 111 L 314 110 L 314 109 L 315 108 L 316 108 L 316 107 L 317 106 L 318 106 L 319 105 L 320 104 L 321 103 L 322 102 L 322 101 L 323 100 L 324 100 L 324 99 L 325 98 L 326 98 L 327 97 L 328 96 L 329 95 L 330 94 L 330 93 L 331 92 L 332 91 L 333 90 L 334 90 L 335 89 L 336 88 L 337 87 L 338 86 L 338 85 L 339 84 L 340 84 L 340 83 L 341 82 L 342 82 L 343 81 L 344 80 L 345 79 L 346 78 L 346 77 L 347 76 L 348 75 L 349 74 L 350 74 L 351 73 L 352 72 L 353 71 L 354 70 L 354 69 L 355 68 L 355 67 L 355 66 L 355 65 L 354 64 L 354 63 L 353 63 L 352 62 L 351 61 L 350 61 L 349 60 L 348 59 L 347 59 L 346 58 L 345 57 L 344 57 L 343 56 L 342 55 L 341 54 L 340 54 L 339 53 L 338 52 L 337 52 L 336 51 L 335 50 L 334 50 L 333 49 L 332 48 L 331 47 L 330 47 L 329 46 L 328 45 L 327 45 Z M 83 34 L 82 35 L 81 35 L 80 36 L 80 37 L 80 38 L 80 39 L 80 40 L 80 41 L 80 42 L 80 43 L 80 44 L 80 45 L 80 46 L 80 47 L 80 48 L 80 49 L 80 50 L 80 51 L 80 52 L 80 53 L 80 54 L 80 55 L 80 56 L 80 57 L 80 58 L 80 59 L 80 60 L 80 61 L 80 62 L 80 63 L 80 64 L 80 65 L 80 66 L 80 67 L 80 68 L 80 69 L 80 70 L 80 71 L 80 72 L 80 73 L 80 74 L 80 75 L 80 76 L 80 77 L 80 78 L 80 79 L 80 80 L 80 81 L 80 82 L 80 83 L 80 84 L 80 85 L 80 86 L 80 87 L 80 88 L 80 89 L 80 90 L 80 91 L 80 92 L 80 93 L 80 94 L 80 95 L 80 96 L 80 97 L 80 98 L 80 99 L 80 100 L 80 101 L 80 102 L 80 103 L 80 104 L 80 105 L 80 106 L 80 107 L 80 108 L 80 109 L 80 110 L 80 111 L 80 112 L 80 113 L 80 114 L 80 115 L 80 116 L 80 117 L 80 118 L 80 119 L 80 120 L 80 121 L 80 122 L 80 123 L 80 124 L 80 125 L 80 126 L 80 127 L 80 128 L 80 129 L 80 130 L 80 131 L 80 132 L 80 133 L 80 134 L 80 135 L 80 136 L 80 137 L 80 138 L 80 139 L 80 140 L 80 141 L 80 142 L 80 143 L 80 144 L 80 145 L 80 146 L 80 147 L 80 148 L 80 149 L 80 150 L 80 151 L 80 152 L 80 153 L 80 154 L 80 155 L 80 156 L 80 157 L 80 158 L 80 159 L 80 160 L 81 161 L 82 161 L 83 161 L 84 162 L 85 161 L 86 161 L 87 160 L 88 159 L 88 158 L 89 157 L 90 156 L 91 155 L 91 154 L 92 153 L 93 152 L 93 151 L 94 150 L 95 149 L 95 148 L 96 147 L 97 146 L 97 145 L 98 144 L 99 143 L 99 142 L 100 141 L 101 140 L 102 139 L 102 138 L 103 137 L 104 136 L 104 135 L 105 134 L 106 133 L 106 132 L 107 131 L 108 130 L 108 129 L 109 128 L 110 127 L 110 126 L 111 125 L 112 124 L 113 124 L 114 125 L 115 126 L 116 127 L 117 128 L 118 129 L 119 130 L 120 131 L 121 132 L 122 133 L 123 134 L 124 135 L 125 136 L 126 137 L 127 138 L 128 139 L 129 140 L 130 141 L 131 142 L 132 143 L 133 144 L 134 145 L 135 146 L 136 147 L 137 148 L 138 149 L 139 150 L 140 151 L 141 152 L 142 153 L 143 154 L 144 155 L 145 156 L 146 157 L 147 158 L 148 159 L 149 160 L 150 161 L 151 162 L 152 163 L 153 164 L 154 165 L 155 166 L 156 167 L 157 168 L 158 169 L 159 170 L 160 171 L 161 172 L 162 173 L 163 174 L 164 175 L 165 176 L 166 177 L 167 178 L 168 179 L 169 180 L 170 181 L 171 182 L 172 183 L 173 184 L 174 185 L 175 186 L 176 187 L 177 188 L 178 189 L 179 190 L 180 190 L 181 190 L 182 190 L 183 190 L 184 189 L 185 188 L 186 187 L 187 186 L 188 185 L 189 184 L 190 183 L 191 182 L 192 181 L 193 180 L 194 179 L 195 178 L 196 177 L 197 176 L 198 175 L 199 174 L 200 173 L 201 172 L 202 171 L 203 170 L 204 169 L 205 168 L 206 167 L 207 166 L 208 165 L 209 164 L 210 163 L 211 162 L 212 161 L 213 160 L 214 159 L 215 158 L 216 157 L 217 156 L 218 155 L 219 154 L 220 153 L 221 152 L 222 151 L 223 150 L 224 149 L 225 148 L 226 147 L 227 146 L 228 145 L 229 144 L 230 143 L 231 142 L 232 141 L 233 140 L 234 139 L 235 138 L 235 137 L 235 136 L 235 135 L 235 134 L 234 133 L 233 132 L 232 131 L 231 130 L 230 129 L 229 128 L 228 127 L 227 126 L 227 125 L 226 125 L 225 124 L 224 123 L 223 122 L 222 121 L 221 120 L 220 119 L 219 118 L 219 117 L 218 117 L 217 116 L 216 115 L 215 114 L 214 113 L 213 112 L 212 111 L 211 110 L 211 109 L 210 109 L 209 108 L 208 107 L 207 106 L 206 105 L 205 104 L 204 103 L 203 102 L 202 101 L 201 100 L 200 99 L 199 98 L 198 97 L 197 96 L 196 95 L 195 94 L 195 93 L 194 93 L 193 92 L 192 91 L 191 90 L 190 89 L 189 88 L 188 87 L 187 86 L 187 85 L 186 85 L 185 84 L 184 83 L 183 82 L 182 81 L 181 80 L 180 79 L 179 78 L 178 77 L 177 76 L 176 75 L 175 74 L 174 73 L 173 72 L 172 71 L 171 70 L 171 69 L 170 69 L 169 68 L 169 67 L 170 66 L 171 65 L 172 65 L 173 64 L 174 63 L 175 63 L 176 62 L 177 61 L 178 61 L 179 60 L 180 59 L 181 58 L 182 58 L 183 57 L 184 56 L 185 56 L 186 55 L 187 54 L 188 54 L 189 53 L 190 52 L 191 52 L 192 51 L 193 50 L 194 49 L 195 49 L 196 48 L 197 48 L 198 47 L 199 46 L 200 45 L 201 45 L 202 44 L 203 43 L 204 43 L 205 42 L 206 41 L 207 40 L 207 39 L 207 38 L 207 37 L 206 36 L 205 35 L 204 34 L 203 34 L 202 34 L 201 34 L 200 34 L 199 34 L 198 34 L 197 34 L 196 34 L 195 34 L 194 34 L 193 34 L 192 34 L 191 34 L 190 34 L 189 34 L 188 34 L 187 34 L 186 34 L 185 34 L 184 34 L 183 34 L 182 34 L 181 34 L 180 34 L 179 34 L 178 34 L 177 34 L 176 34 L 175 34 L 174 34 L 173 34 L 172 34 L 171 34 L 170 34 L 169 34 L 168 34 L 167 34 L 166 34 L 165 34 L 164 34 L 163 34 L 162 34 L 161 34 L 160 34 L 159 34 L 158 34 L 157 34 L 156 34 L 155 34 L 154 34 L 153 34 L 152 34 L 151 34 L 150 34 L 149 34 L 148 34 L 147 34 L 146 34 L 145 34 L 144 34 L 143 34 L 142 34 L 141 34 L 140 34 L 139 34 L 138 34 L 137 34 L 136 34 L 135 34 L 134 34 L 133 34 L 132 34 L 131 34 L 130 34 L 129 34 L 128 34 L 127 34 L 126 34 L 125 34 L 124 34 L 123 34 L 122 34 L 121 34 L 120 34 L 119 34 L 118 34 L 117 34 L 116 34 L 115 34 L 114 34 L 113 34 L 112 34 L 111 34 L 110 34 L 109 34 L 108 34 L 107 34 L 106 34 L 105 34 L 104 34 L 103 34 L 102 34 L 101 34 L 100 34 L 99 34 L 98 34 L 97 34 L 96 34 L 95 34 L 94 34 L 93 34 L 92 34 L 91 34 L 90 34 L 89 34 L 88 34 L 87 34 L 86 34 L 85 34 L 84 34 Z M 88 44 L 89 43 L 90 43 L 91 43 L 92 43 L 93 43 L 94 43 L 95 43 L 96 43 L 97 43 L 98 43 L 99 43 L 100 43 L 101 43 L 102 43 L 103 43 L 104 43 L 105 43 L 106 43 L 107 43 L 108 43 L 109 43 L 110 43 L 111 43 L 112 43 L 113 43 L 114 43 L 115 43 L 116 43 L 117 43 L 118 43 L 119 43 L 120 43 L 121 43 L 122 43 L 123 43 L 124 43 L 125 43 L 126 43 L 127 43 L 128 43 L 129 43 L 130 43 L 131 43 L 132 43 L 133 43 L 134 43 L 135 43 L 136 43 L 137 43 L 138 43 L 139 43 L 140 43 L 141 43 L 142 43 L 143 43 L 144 43 L 145 43 L 146 43 L 147 43 L 148 43 L 149 43 L 150 43 L 151 43 L 152 43 L 153 43 L 154 43 L 155 43 L 156 43 L 157 43 L 158 43 L 159 43 L 160 43 L 161 43 L 162 43 L 163 43 L 164 43 L 165 43 L 166 43 L 167 43 L 168 43 L 169 43 L 170 43 L 171 43 L 172 43 L 173 43 L 174 43 L 175 43 L 176 43 L 177 43 L 178 43 L 179 43 L 180 43 L 181 43 L 182 43 L 183 43 L 184 43 L 185 43 L 186 43 L 187 44 L 186 45 L 185 45 L 184 46 L 183 47 L 182 48 L 181 48 L 180 49 L 179 50 L 178 50 L 177 51 L 176 52 L 175 52 L 174 53 L 173 54 L 172 54 L 171 55 L 170 56 L 169 56 L 168 57 L 167 58 L 166 59 L 165 59 L 164 60 L 163 61 L 162 61 L 161 62 L 160 63 L 159 63 L 159 64 L 158 65 L 158 66 L 158 67 L 158 68 L 159 69 L 159 70 L 160 71 L 161 72 L 162 73 L 163 74 L 164 75 L 165 76 L 166 77 L 167 78 L 168 79 L 169 80 L 170 81 L 171 82 L 172 83 L 173 84 L 174 85 L 175 86 L 176 87 L 177 88 L 178 89 L 179 90 L 180 91 L 181 92 L 182 93 L 183 94 L 184 95 L 185 96 L 186 97 L 187 98 L 188 99 L 189 100 L 190 101 L 191 102 L 192 103 L 193 104 L 194 105 L 195 106 L 196 107 L 197 108 L 198 109 L 199 110 L 200 111 L 201 112 L 202 113 L 203 114 L 204 115 L 205 116 L 206 117 L 207 118 L 208 119 L 209 120 L 210 121 L 211 122 L 212 123 L 213 124 L 214 125 L 215 126 L 216 127 L 217 128 L 218 129 L 219 130 L 220 131 L 221 132 L 222 133 L 223 134 L 224 135 L 225 136 L 224 137 L 223 138 L 222 139 L 221 140 L 220 141 L 219 142 L 218 143 L 217 144 L 216 145 L 215 146 L 214 147 L 213 148 L 212 149 L 211 150 L 210 151 L 209 152 L 208 153 L 207 154 L 206 155 L 205 156 L 204 157 L 203 158 L 202 159 L 201 160 L 200 161 L 199 162 L 198 163 L 197 164 L 196 165 L 195 166 L 194 167 L 193 168 L 192 169 L 191 170 L 190 171 L 189 172 L 188 173 L 187 174 L 186 175 L 185 176 L 184 177 L 183 178 L 182 179 L 181 180 L 180 179 L 179 178 L 178 177 L 177 176 L 176 175 L 175 174 L 174 173 L 173 172 L 172 171 L 171 170 L 170 169 L 169 168 L 168 167 L 167 166 L 166 165 L 165 164 L 164 163 L 163 162 L 162 161 L 161 160 L 160 159 L 159 158 L 158 157 L 157 156 L 156 155 L 155 154 L 154 153 L 153 152 L 152 151 L 151 150 L 150 149 L 149 148 L 148 147 L 147 146 L 146 145 L 145 144 L 144 143 L 143 142 L 142 141 L 141 140 L 140 139 L 139 138 L 138 137 L 137 136 L 136 135 L 135 134 L 134 133 L 133 132 L 132 131 L 131 130 L 130 129 L 129 128 L 128 127 L 127 126 L 126 125 L 125 124 L 124 123 L 123 122 L 122 121 L 121 120 L 120 119 L 119 118 L 118 117 L 117 116 L 116 115 L 115 114 L 114 113 L 113 113 L 112 113 L 111 113 L 110 113 L 109 114 L 108 114 L 108 115 L 107 116 L 106 117 L 106 118 L 105 119 L 104 120 L 104 121 L 103 122 L 102 123 L 102 124 L 101 125 L 100 126 L 99 127 L 99 128 L 98 129 L 98 130 L 97 131 L 96 132 L 95 133 L 95 134 L 94 135 L 93 136 L 93 137 L 92 138 L 91 139 L 91 140 L 90 141 L 89 142 L 88 141 L 88 140 L 88 139 L 88 138 L 88 137 L 88 136 L 88 135 L 88 134 L 88 133 L 88 132 L 88 131 L 88 130 L 88 129 L 88 128 L 88 127 L 88 126 L 88 125 L 88 124 L 88 123 L 88 122 L 88 121 L 88 120 L 88 119 L 88 118 L 88 117 L 88 116 L 88 115 L 88 114 L 88 113 L 88 112 L 88 111 L 88 110 L 88 109 L 88 108 L 88 107 L 88 106 L 88 105 L 88 104 L 88 103 L 88 102 L 88 101 L 88 100 L 88 99 L 88 98 L 88 97 L 88 96 L 88 95 L 88 94 L 88 93 L 88 92 L 88 91 L 88 90 L 88 89 L 88 88 L 88 87 L 88 86 L 88 85 L 88 84 L 88 83 L 88 82 L 88 81 L 88 80 L 88 79 L 88 78 L 88 77 L 88 76 L 88 75 L 88 74 L 88 73 L 88 72 L 88 71 L 88 70 L 88 69 L 88 68 L 88 67 L 88 66 L 88 65 L 88 64 L 88 63 L 88 62 L 88 61 L 88 60 L 88 59 L 88 58 L 88 57 L 88 56 L 88 55 L 88 54 L 88 53 L 88 52 L 88 51 L 88 50 L 88 49 L 88 48 L 88 47 L 88 46 L 88 45 Z" fill="#000" fill-rule="evenodd"/>
</svg>